STARTFONT 2.3
FONT -FontForge-Source Code Pro-Book-R-Normal--14-140-72-72-M-80-ISO10646-1
SIZE 14 72 72  2
FONTBOUNDINGBOX 16 24 -4 -6
COMMENT "Generated by fontforge, http://fontforge.sourceforge.net"
COMMENT "Copyright 2010, 2012 Adobe Systems Incorporated (http://www.adobe.com/), with Reserved Font Name `Source'."
STARTPROPERTIES 42
FOUNDRY "FontForge"
FAMILY_NAME "Source Code Pro"
WEIGHT_NAME "Book"
SLANT "R"
SETWIDTH_NAME "Normal"
ADD_STYLE_NAME ""
PIXEL_SIZE 14
POINT_SIZE 140
RESOLUTION_X 72
RESOLUTION_Y 72
SPACING "M"
AVERAGE_WIDTH 80
CHARSET_REGISTRY "ISO10646"
CHARSET_ENCODING "1"
FONTNAME_REGISTRY ""
CHARSET_COLLECTIONS "ASCII ISOLatin1Encoding ISO8859-2 ISO8859-9 ISO8859-4 ISO10646-1"
BITS_PER_PIXEL 2
FONT_NAME "SourceCodePro-It"
FACE_NAME "Source Code Pro Italic"
COPYRIGHT "Copyright 2010, 2012 Adobe Systems Incorporated (http://www.adobe.com/), with Reserved Font Name `Source'."
FONT_VERSION "1.050;PS 1.000;hotconv 16.6.51;makeotf.lib2.5.65220"
FONT_ASCENT 11
FONT_DESCENT 3
UNDERLINE_POSITION -1
UNDERLINE_THICKNESS 1
X_HEIGHT 6
CAP_HEIGHT 8
RAW_ASCENT 750
RAW_DESCENT 250
ITALIC_ANGLE 5056
NORM_SPACE 8
RELATIVE_WEIGHT 40
RELATIVE_SETWIDTH 50
SUPERSCRIPT_X 0
SUPERSCRIPT_Y 4
SUPERSCRIPT_SIZE 8
SUBSCRIPT_X 0
SUBSCRIPT_Y 1
SUBSCRIPT_SIZE 8
FIGURE_WIDTH 8
AVG_LOWERCASE_WIDTH 80
AVG_UPPERCASE_WIDTH 80
ENDPROPERTIES
CHARS 1269
STARTCHAR space
ENCODING 32
SWIDTH 600 0
DWIDTH 8 0
BBX 1 1 0 0
BITMAP
00
ENDCHAR
STARTCHAR exclam
ENCODING 33
SWIDTH 600 0
DWIDTH 8 0
BBX 4 9 2 0
BITMAP
06
09
09
0C
08
14
00
74
74
ENDCHAR
STARTCHAR quotedbl
ENCODING 34
SWIDTH 600 0
DWIDTH 8 0
BBX 6 5 2 5
BITMAP
34E0
70D0
71C0
6180
9140
ENDCHAR
STARTCHAR numbersign
ENCODING 35
SWIDTH 600 0
DWIDTH 8 0
BBX 7 9 1 0
BITMAP
0520
0820
7FF8
1480
2080
FFE0
2140
5200
8200
ENDCHAR
STARTCHAR dollar
ENCODING 36
SWIDTH 600 0
DWIDTH 8 0
BBX 6 13 1 -2
BITMAP
0080
0140
1BD0
3460
3000
2900
0780
0090
0060
D090
6F80
0800
1800
ENDCHAR
STARTCHAR percent
ENCODING 37
SWIDTH 600 0
DWIDTH 8 0
BBX 9 10 0 0
BITMAP
2D0000
930140
820600
C61400
B80000
007D00
189600
618600
818900
00B800
ENDCHAR
STARTCHAR ampersand
ENCODING 38
SWIDTH 600 0
DWIDTH 8 0
BBX 8 9 0 0
BITMAP
02E0
0620
0920
0A80
1B02
7249
91E8
A0B4
2F59
ENDCHAR
STARTCHAR quotesingle
ENCODING 39
SWIDTH 600 0
DWIDTH 8 0
BBX 2 5 4 5
BITMAP
B0
A0
90
D0
C0
ENDCHAR
STARTCHAR parenleft
ENCODING 40
SWIDTH 600 0
DWIDTH 8 0
BBX 6 13 2 -3
BITMAP
0060
0280
0600
0C00
2400
3000
3000
6000
6000
3000
2400
1800
0900
ENDCHAR
STARTCHAR parenright
ENCODING 41
SWIDTH 600 0
DWIDTH 8 0
BBX 6 13 0 -3
BITMAP
0200
0180
00C0
0090
0060
0060
0090
0090
01C0
0240
0A00
2800
5000
ENDCHAR
STARTCHAR asterisk
ENCODING 42
SWIDTH 600 0
DWIDTH 8 0
BBX 6 6 1 2
BITMAP
0200
0300
7BA0
0F40
1A40
5080
ENDCHAR
STARTCHAR plus
ENCODING 43
SWIDTH 600 0
DWIDTH 8 0
BBX 7 7 1 1
BITMAP
0500
0600
0600
BFF4
0600
0600
0500
ENDCHAR
STARTCHAR comma
ENCODING 44
SWIDTH 600 0
DWIDTH 8 0
BBX 4 5 1 -3
BITMAP
0E
1E
0A
2C
A0
ENDCHAR
STARTCHAR hyphen
ENCODING 45
SWIDTH 600 0
DWIDTH 8 0
BBX 7 1 1 4
BITMAP
BFF4
ENDCHAR
STARTCHAR period
ENCODING 46
SWIDTH 600 0
DWIDTH 8 0
BBX 3 2 2 0
BITMAP
74
74
ENDCHAR
STARTCHAR slash
ENCODING 47
SWIDTH 600 0
DWIDTH 8 0
BBX 8 12 0 -2
BITMAP
0003
0009
0018
0020
0060
00C0
0240
0600
0900
1800
3000
9000
ENDCHAR
STARTCHAR zero
ENCODING 48
SWIDTH 600 0
DWIDTH 8 0
BBX 7 9 1 0
BITMAP
0BD0
3874
6024
9718
C628
C024
C070
A1D0
2E40
ENDCHAR
STARTCHAR one
ENCODING 49
SWIDTH 600 0
DWIDTH 8 0
BBX 7 9 0 0
BITMAP
01B0
01A0
0090
0090
00C0
01C0
0180
0240
7FF8
ENDCHAR
STARTCHAR two
ENCODING 50
SWIDTH 600 0
DWIDTH 8 0
BBX 7 9 0 0
BITMAP
06F4
0D1C
000C
0018
0030
0090
0640
1800
7FFC
ENDCHAR
STARTCHAR three
ENCODING 51
SWIDTH 600 0
DWIDTH 8 0
BBX 7 9 0 0
BITMAP
06F4
091C
000C
0068
03E0
0064
0018
6464
1FD0
ENDCHAR
STARTCHAR four
ENCODING 52
SWIDTH 600 0
DWIDTH 8 0
BBX 8 9 0 0
BITMAP
001C
006C
0198
0618
0824
2424
BFFD
0060
0060
ENDCHAR
STARTCHAR five
ENCODING 53
SWIDTH 600 0
DWIDTH 8 0
BBX 8 9 0 0
BITMAP
0BFD
0900
0C00
1EE4
0428
000C
0018
6074
1F90
ENDCHAR
STARTCHAR six
ENCODING 54
SWIDTH 600 0
DWIDTH 8 0
BBX 7 9 1 0
BITMAP
07E0
2914
6000
9BD0
E470
C030
C030
A090
2F40
ENDCHAR
STARTCHAR seven
ENCODING 55
SWIDTH 600 0
DWIDTH 8 0
BBX 7 9 1 0
BITMAP
7FFC
0024
0090
0280
0700
0900
0C00
1800
2400
ENDCHAR
STARTCHAR eight
ENCODING 56
SWIDTH 600 0
DWIDTH 8 0
BBX 7 9 1 0
BITMAP
0BD0
2824
2424
1870
7BD0
D090
C020
D0A0
6F80
ENDCHAR
STARTCHAR nine
ENCODING 57
SWIDTH 600 0
DWIDTH 8 0
BBX 7 9 1 0
BITMAP
1B90
3470
9024
9024
A064
2E70
0060
81C0
BE00
ENDCHAR
STARTCHAR colon
ENCODING 58
SWIDTH 600 0
DWIDTH 8 0
BBX 4 7 2 0
BITMAP
1D
1D
00
00
00
74
74
ENDCHAR
STARTCHAR semicolon
ENCODING 59
SWIDTH 600 0
DWIDTH 8 0
BBX 5 10 1 -3
BITMAP
0740
0740
0000
0000
0000
0E00
1E00
0A00
2C00
A000
ENDCHAR
STARTCHAR less
ENCODING 60
SWIDTH 600 0
DWIDTH 8 0
BBX 6 7 1 1
BITMAP
0060
0290
1D00
7000
1D00
0290
0060
ENDCHAR
STARTCHAR equal
ENCODING 61
SWIDTH 600 0
DWIDTH 8 0
BBX 7 4 1 3
BITMAP
BFF4
0000
0000
BFF4
ENDCHAR
STARTCHAR greater
ENCODING 62
SWIDTH 600 0
DWIDTH 8 0
BBX 6 7 1 1
BITMAP
5000
2900
0680
00A0
0680
2900
5000
ENDCHAR
STARTCHAR question
ENCODING 63
SWIDTH 600 0
DWIDTH 8 0
BBX 6 9 2 0
BITMAP
1F80
60D0
00C0
0240
1800
2400
0000
7000
B000
ENDCHAR
STARTCHAR at
ENCODING 64
SWIDTH 600 0
DWIDTH 8 0
BBX 8 11 0 -2
BITMAP
01F9
0A46
2802
3002
606E
9296
931D
92E8
6000
3410
0BD0
ENDCHAR
STARTCHAR A
ENCODING 65
SWIDTH 600 0
DWIDTH 8 0
BBX 7 9 0 0
BITMAP
00B0
01A0
0264
0624
0814
1FF8
3018
A01C
C00C
ENDCHAR
STARTCHAR B
ENCODING 66
SWIDTH 600 0
DWIDTH 8 0
BBX 8 9 0 0
BITMAP
0BF8
0D0A
0C0A
1D68
2EB4
240C
300D
302C
7FE0
ENDCHAR
STARTCHAR C
ENCODING 67
SWIDTH 600 0
DWIDTH 8 0
BBX 7 9 1 0
BITMAP
06F4
1D18
3400
A000
9000
D000
9000
7460
1F90
ENDCHAR
STARTCHAR D
ENCODING 68
SWIDTH 600 0
DWIDTH 8 0
BBX 8 9 0 0
BITMAP
0FE4
0C1D
180A
2806
2406
300A
701C
6074
BF90
ENDCHAR
STARTCHAR E
ENCODING 69
SWIDTH 600 0
DWIDTH 8 0
BBX 8 9 1 0
BITMAP
1FFD
2400
2400
3000
7FE0
6000
9000
D000
FFE0
ENDCHAR
STARTCHAR F
ENCODING 70
SWIDTH 600 0
DWIDTH 8 0
BBX 8 9 1 0
BITMAP
0FFD
1800
2800
2400
3FF0
7000
6000
A000
9000
ENDCHAR
STARTCHAR G
ENCODING 71
SWIDTH 600 0
DWIDTH 8 0
BBX 7 9 1 0
BITMAP
06E4
2D18
7000
9000
C1F8
C024
D030
A070
2F90
ENDCHAR
STARTCHAR H
ENCODING 72
SWIDTH 600 0
DWIDTH 8 0
BBX 8 9 0 0
BITMAP
0C03
1C03
1806
240A
2FFD
300C
700C
6018
9024
ENDCHAR
STARTCHAR I
ENCODING 73
SWIDTH 600 0
DWIDTH 8 0
BBX 8 9 0 0
BITMAP
0BFF
0090
00D0
00C0
0180
0280
0240
0300
7FF4
ENDCHAR
STARTCHAR J
ENCODING 74
SWIDTH 600 0
DWIDTH 8 0
BBX 8 9 0 0
BITMAP
07FD
0009
000C
001C
0018
0024
0030
60A0
2F80
ENDCHAR
STARTCHAR K
ENCODING 75
SWIDTH 600 0
DWIDTH 8 0
BBX 9 9 0 0
BITMAP
090740
0D1D00
0C6000
19C000
1AD000
286000
343000
302800
601C00
ENDCHAR
STARTCHAR L
ENCODING 76
SWIDTH 600 0
DWIDTH 8 0
BBX 6 9 1 0
BITMAP
0D00
0C00
1800
1800
2400
3400
3000
6000
BFF0
ENDCHAR
STARTCHAR M
ENCODING 77
SWIDTH 600 0
DWIDTH 8 0
BBX 8 9 0 0
BITMAP
0D07
1E0B
1A1A
2626
3299
328C
614C
6018
9018
ENDCHAR
STARTCHAR N
ENCODING 78
SWIDTH 600 0
DWIDTH 8 0
BBX 8 9 0 0
BITMAP
0D03
0E03
1B06
2649
2589
30CC
309C
6078
9034
ENDCHAR
STARTCHAR O
ENCODING 79
SWIDTH 600 0
DWIDTH 8 0
BBX 8 9 0 0
BITMAP
02F8
0E09
2806
3007
6007
600A
600D
3478
1BD0
ENDCHAR
STARTCHAR P
ENCODING 80
SWIDTH 600 0
DWIDTH 8 0
BBX 7 9 1 0
BITMAP
2FE4
241C
300C
3068
7F90
9000
9000
C000
C000
ENDCHAR
STARTCHAR Q
ENCODING 81
SWIDTH 600 0
DWIDTH 8 0
BBX 8 11 0 -2
BITMAP
02F8
0D09
2806
3007
6007
600A
600C
3478
1FD0
0340
01B8
ENDCHAR
STARTCHAR R
ENCODING 82
SWIDTH 600 0
DWIDTH 8 0
BBX 8 9 0 0
BITMAP
0BF8
0C0A
1C06
181D
2FE4
24D0
30A0
7030
6024
ENDCHAR
STARTCHAR S
ENCODING 83
SWIDTH 600 0
DWIDTH 8 0
BBX 8 9 0 0
BITMAP
02F4
0A09
0C00
0A40
01E0
0028
0018
7464
1BD0
ENDCHAR
STARTCHAR T
ENCODING 84
SWIDTH 600 0
DWIDTH 8 0
BBX 8 9 1 0
BITMAP
BFFE
0240
0340
0300
0600
0A00
0900
0C00
0C00
ENDCHAR
STARTCHAR U
ENCODING 85
SWIDTH 600 0
DWIDTH 8 0
BBX 7 9 1 0
BITMAP
300C
700C
6018
9028
D024
C030
C060
E1D0
6F40
ENDCHAR
STARTCHAR V
ENCODING 86
SWIDTH 600 0
DWIDTH 8 0
BBX 8 9 1 0
BITMAP
700A
300C
3024
3070
3490
2580
2640
2A00
1D00
ENDCHAR
STARTCHAR W
ENCODING 87
SWIDTH 600 0
DWIDTH 8 0
BBX 9 9 0 0
BITMAP
240180
240280
304240
31D300
329600
365900
395C00
286800
747400
ENDCHAR
STARTCHAR X
ENCODING 88
SWIDTH 600 0
DWIDTH 8 0
BBX 8 9 0 0
BITMAP
0D07
0A0D
0324
02A0
02C0
0690
0C60
3434
A028
ENDCHAR
STARTCHAR Y
ENCODING 89
SWIDTH 600 0
DWIDTH 8 0
BBX 8 9 1 0
BITMAP
6009
3018
2470
1890
0E80
0B00
0900
0D00
0C00
ENDCHAR
STARTCHAR Z
ENCODING 90
SWIDTH 600 0
DWIDTH 8 0
BBX 8 9 0 0
BITMAP
0FFF
0009
0028
00A0
0180
0700
1D00
3400
BFFC
ENDCHAR
STARTCHAR bracketleft
ENCODING 91
SWIDTH 600 0
DWIDTH 8 0
BBX 6 12 2 -2
BITMAP
0FF0
0800
1800
2400
2000
3000
2000
6000
9000
8000
8000
FE00
ENDCHAR
STARTCHAR backslash
ENCODING 92
SWIDTH 600 0
DWIDTH 8 0
BBX 4 12 2 -2
BITMAP
60
20
30
24
24
18
18
0C
08
09
05
06
ENDCHAR
STARTCHAR bracketright
ENCODING 93
SWIDTH 600 0
DWIDTH 8 0
BBX 7 12 0 -2
BITMAP
07F4
0020
0020
0020
0060
0090
0080
00C0
0080
0180
0240
BF00
ENDCHAR
STARTCHAR asciicircum
ENCODING 94
SWIDTH 600 0
DWIDTH 8 0
BBX 6 5 1 4
BITMAP
0700
0A40
1880
2090
6060
ENDCHAR
STARTCHAR underscore
ENCODING 95
SWIDTH 600 0
DWIDTH 8 0
BBX 8 1 -1 -2
BITMAP
7FFD
ENDCHAR
STARTCHAR grave
ENCODING 96
SWIDTH 600 0
DWIDTH 8 0
BBX 2 3 4 8
BITMAP
80
90
20
ENDCHAR
STARTCHAR a
ENCODING 97
SWIDTH 600 0
DWIDTH 8 0
BBX 8 7 0 0
BITMAP
06E6
1D1D
2409
300C
701C
3478
1F94
ENDCHAR
STARTCHAR b
ENCODING 98
SWIDTH 600 0
DWIDTH 8 0
BBX 8 10 0 0
BITMAP
0900
0900
0C00
19F8
1D1D
2409
2409
300C
7468
6BD0
ENDCHAR
STARTCHAR c
ENCODING 99
SWIDTH 600 0
DWIDTH 8 0
BBX 7 7 1 0
BITMAP
0BE0
3424
9000
C000
C000
A060
2F80
ENDCHAR
STARTCHAR d
ENCODING 100
SWIDTH 600 0
DWIDTH 8 0
BBX 9 10 0 0
BITMAP
000240
000300
000700
06E600
1D1D00
240900
300C00
701C00
347800
1F9400
ENDCHAR
STARTCHAR e
ENCODING 101
SWIDTH 600 0
DWIDTH 8 0
BBX 7 7 1 0
BITMAP
1BD0
7470
9024
FFF4
C000
A050
2F80
ENDCHAR
STARTCHAR f
ENCODING 102
SWIDTH 600 0
DWIDTH 8 0
BBX 8 10 1 0
BITMAP
00BD
0281
0300
7FF8
0A00
0900
0C00
0C00
1800
2800
ENDCHAR
STARTCHAR g
ENCODING 103
SWIDTH 600 0
DWIDTH 8 0
BBX 8 10 0 -3
BITMAP
06E6
1D1D
2409
300C
701C
3478
1BA4
0024
50A0
6F80
ENDCHAR
STARTCHAR h
ENCODING 104
SWIDTH 600 0
DWIDTH 8 0
BBX 8 10 0 0
BITMAP
0900
0900
0C00
1DB8
1E0D
2809
240C
300C
7018
6028
ENDCHAR
STARTCHAR i
ENCODING 105
SWIDTH 600 0
DWIDTH 8 0
BBX 6 10 1 0
BITMAP
0280
0280
0000
7F00
0300
0600
0900
0D00
0D00
07D0
ENDCHAR
STARTCHAR j
ENCODING 106
SWIDTH 600 0
DWIDTH 8 0
BBX 7 13 0 -3
BITMAP
0028
0028
0000
0FF0
0030
0060
00A0
0090
00C0
00C0
0180
4740
BD00
ENDCHAR
STARTCHAR k
ENCODING 107
SWIDTH 600 0
DWIDTH 8 0
BBX 8 10 0 0
BITMAP
0600
0900
0900
0C0A
1C28
18D0
2BD0
2C60
3024
701C
ENDCHAR
STARTCHAR l
ENCODING 108
SWIDTH 600 0
DWIDTH 8 0
BBX 5 10 2 0
BITMAP
FD00
0C00
0C00
1800
2800
2400
3000
3000
7000
2F40
ENDCHAR
STARTCHAR m
ENCODING 109
SWIDTH 600 0
DWIDTH 8 0
BBX 8 7 0 0
BITMAP
279E
38D7
30C6
6186
A249
924C
C30C
ENDCHAR
STARTCHAR n
ENCODING 110
SWIDTH 600 0
DWIDTH 8 0
BBX 8 7 0 0
BITMAP
19B8
1E0D
2809
240C
300C
7018
6028
ENDCHAR
STARTCHAR o
ENCODING 111
SWIDTH 600 0
DWIDTH 8 0
BBX 8 7 0 0
BITMAP
06E4
1D1C
3409
6009
600C
3474
1BD0
ENDCHAR
STARTCHAR p
ENCODING 112
SWIDTH 600 0
DWIDTH 8 0
BBX 8 10 0 -3
BITMAP
19F8
1D1D
2409
2409
300C
7468
6BD0
9000
9000
C000
ENDCHAR
STARTCHAR q
ENCODING 113
SWIDTH 600 0
DWIDTH 8 0
BBX 8 10 0 -3
BITMAP
06E6
1D1D
2409
300C
701C
3478
1FA4
0024
0030
0030
ENDCHAR
STARTCHAR r
ENCODING 114
SWIDTH 600 0
DWIDTH 8 0
BBX 7 7 1 0
BITMAP
19B8
2A40
2800
3000
3000
6000
A000
ENDCHAR
STARTCHAR s
ENCODING 115
SWIDTH 600 0
DWIDTH 8 0
BBX 6 7 1 0
BITMAP
1F90
3060
3400
1B80
00A0
90A0
6F80
ENDCHAR
STARTCHAR t
ENCODING 116
SWIDTH 600 0
DWIDTH 8 0
BBX 7 9 1 0
BITMAP
0600
0900
FFF8
0C00
1800
2800
2400
2810
1F90
ENDCHAR
STARTCHAR u
ENCODING 117
SWIDTH 600 0
DWIDTH 8 0
BBX 8 7 0 0
BITMAP
1806
2809
240D
300C
3018
70A8
2E54
ENDCHAR
STARTCHAR v
ENCODING 118
SWIDTH 600 0
DWIDTH 8 0
BBX 7 7 1 0
BITMAP
9018
6024
6060
30C0
2640
2B00
1D00
ENDCHAR
STARTCHAR w
ENCODING 119
SWIDTH 600 0
DWIDTH 8 0
BBX 9 7 0 0
BITMAP
608280
61D300
629600
669900
699C00
68A400
747000
ENDCHAR
STARTCHAR x
ENCODING 120
SWIDTH 600 0
DWIDTH 8 0
BBX 8 7 0 0
BITMAP
0C0D
0A24
0390
0280
0AD0
2860
6024
ENDCHAR
STARTCHAR y
ENCODING 121
SWIDTH 600 0
DWIDTH 8 0
BBX 9 10 -1 -3
BITMAP
0901C0
060240
060600
030C00
026400
01A000
01D000
018000
070000
790000
ENDCHAR
STARTCHAR z
ENCODING 122
SWIDTH 600 0
DWIDTH 8 0
BBX 8 7 0 0
BITMAP
1FFD
0028
00A0
0280
0A00
2800
7FF8
ENDCHAR
STARTCHAR braceleft
ENCODING 123
SWIDTH 600 0
DWIDTH 8 0
BBX 7 12 1 -2
BITMAP
00BC
0180
0240
0300
0300
0A00
7C00
0900
0800
0800
1800
0F80
ENDCHAR
STARTCHAR bar
ENCODING 124
SWIDTH 600 0
DWIDTH 8 0
BBX 2 14 3 -4
BITMAP
60
60
60
60
60
60
60
60
60
60
60
60
60
60
ENDCHAR
STARTCHAR braceright
ENCODING 125
SWIDTH 600 0
DWIDTH 8 0
BBX 7 12 0 -2
BITMAP
0BD0
0060
0050
0090
0080
00D0
00B8
0180
0240
0300
0600
BD00
ENDCHAR
STARTCHAR asciitilde
ENCODING 126
SWIDTH 600 0
DWIDTH 8 0
BBX 6 2 1 4
BITMAP
7D20
96E0
ENDCHAR
STARTCHAR uni00A0
ENCODING 160
SWIDTH 600 0
DWIDTH 8 0
BBX 1 1 0 0
BITMAP
00
ENDCHAR
STARTCHAR exclamdown
ENCODING 161
SWIDTH 600 0
DWIDTH 8 0
BBX 4 10 2 -3
BITMAP
1D
1D
00
14
24
30
30
60
60
90
ENDCHAR
STARTCHAR cent
ENCODING 162
SWIDTH 600 0
DWIDTH 8 0
BBX 6 10 1 -1
BITMAP
0080
0BE0
2950
7200
A200
A200
7650
2F80
0800
0800
ENDCHAR
STARTCHAR sterling
ENCODING 163
SWIDTH 600 0
DWIDTH 8 0
BBX 8 9 0 0
BITMAP
01F8
0745
0600
0600
2FF4
0600
0900
1800
BFF4
ENDCHAR
STARTCHAR currency
ENCODING 164
SWIDTH 600 0
DWIDTH 8 0
BBX 8 7 0 1
BITMAP
1401
0EF9
0D1C
180C
1828
2BE4
5008
ENDCHAR
STARTCHAR yen
ENCODING 165
SWIDTH 600 0
DWIDTH 8 0
BBX 9 9 0 0
BITMAP
0C0340
090900
061400
021000
3FFD00
028000
7FFC00
034000
030000
ENDCHAR
STARTCHAR brokenbar
ENCODING 166
SWIDTH 600 0
DWIDTH 8 0
BBX 2 14 3 -4
BITMAP
60
60
60
60
60
60
00
00
60
60
60
60
60
60
ENDCHAR
STARTCHAR section
ENCODING 167
SWIDTH 600 0
DWIDTH 8 0
BBX 6 11 1 -1
BITMAP
07D0
0C60
0C00
3A00
6190
6060
2870
07D0
0180
9240
7E00
ENDCHAR
STARTCHAR dieresis
ENCODING 168
SWIDTH 600 0
DWIDTH 8 0
BBX 4 1 3 8
BITMAP
93
ENDCHAR
STARTCHAR copyright
ENCODING 169
SWIDTH 600 0
DWIDTH 8 0
BBX 8 9 0 0
BITMAP
02F8
1906
21E2
5612
8802
8912
97D9
6468
1F90
ENDCHAR
STARTCHAR ordfeminine
ENCODING 170
SWIDTH 600 0
DWIDTH 8 0
BBX 5 5 2 5
BITMAP
1F80
34C0
5080
6240
3D40
ENDCHAR
STARTCHAR guillemotleft
ENCODING 171
SWIDTH 600 0
DWIDTH 8 0
BBX 6 6 1 1
BITMAP
0820
24A0
A280
D240
60C0
2050
ENDCHAR
STARTCHAR logicalnot
ENCODING 172
SWIDTH 600 0
DWIDTH 8 0
BBX 7 4 1 1
BITMAP
BFF4
0024
0024
0024
ENDCHAR
STARTCHAR uni00AD
ENCODING 173
SWIDTH 600 0
DWIDTH 8 0
BBX 7 1 1 4
BITMAP
BFF4
ENDCHAR
STARTCHAR registered
ENCODING 174
SWIDTH 600 0
DWIDTH 8 0
BBX 6 6 2 4
BITMAP
1F80
6450
8F20
9650
9180
2E00
ENDCHAR
STARTCHAR macron
ENCODING 175
SWIDTH 600 0
DWIDTH 8 0
BBX 4 1 3 8
BITMAP
BF
ENDCHAR
STARTCHAR degree
ENCODING 176
SWIDTH 600 0
DWIDTH 8 0
BBX 4 4 3 6
BITMAP
2D
96
85
78
ENDCHAR
STARTCHAR plusminus
ENCODING 177
SWIDTH 600 0
DWIDTH 8 0
BBX 7 8 1 0
BITMAP
0600
0600
0600
BFF4
0600
0600
0000
BFF4
ENDCHAR
STARTCHAR two.sups
ENCODING 178
SWIDTH 600 0
DWIDTH 8 0
BBX 5 6 2 5
BITMAP
0B40
1580
0140
0600
1800
7F40
ENDCHAR
STARTCHAR three.sups
ENCODING 179
SWIDTH 600 0
DWIDTH 8 0
BBX 5 6 2 5
BITMAP
1B40
0180
0E00
0240
5240
2E00
ENDCHAR
STARTCHAR acute
ENCODING 180
SWIDTH 600 0
DWIDTH 8 0
BBX 3 3 4 8
BITMAP
08
34
90
ENDCHAR
STARTCHAR uni00B5
ENCODING 181
SWIDTH 600 0
DWIDTH 8 0
BBX 8 10 0 -3
BITMAP
1806
2409
240C
300C
3018
70A8
6F5C
9000
C000
C000
ENDCHAR
STARTCHAR paragraph
ENCODING 182
SWIDTH 600 0
DWIDTH 8 0
BBX 7 10 1 -1
BITMAP
0BA8
3FA4
BF70
BF70
7F60
2E90
0090
00C0
01C0
0180
ENDCHAR
STARTCHAR periodcentered
ENCODING 183
SWIDTH 600 0
DWIDTH 8 0
BBX 2 2 3 4
BITMAP
B0
A0
ENDCHAR
STARTCHAR cedilla
ENCODING 184
SWIDTH 600 0
DWIDTH 8 0
BBX 3 4 1 -4
BITMAP
14
28
1C
A4
ENDCHAR
STARTCHAR one.sups
ENCODING 185
SWIDTH 600 0
DWIDTH 8 0
BBX 5 6 2 5
BITMAP
1B00
0200
0600
0500
0900
7F80
ENDCHAR
STARTCHAR ordmasculine
ENCODING 186
SWIDTH 600 0
DWIDTH 8 0
BBX 5 5 2 5
BITMAP
1B40
34C0
50C0
6180
2E00
ENDCHAR
STARTCHAR guillemotright
ENCODING 187
SWIDTH 600 0
DWIDTH 8 0
BBX 7 6 0 1
BITMAP
1460
0C34
0A18
0928
2860
5080
ENDCHAR
STARTCHAR onequarter
ENCODING 188
SWIDTH 600 0
DWIDTH 8 0
BBX 9 9 0 0
BITMAP
280140
180600
141400
240000
000000
181400
609800
81FD00
001800
ENDCHAR
STARTCHAR onehalf
ENCODING 189
SWIDTH 600 0
DWIDTH 8 0
BBX 9 9 0 0
BITMAP
280140
180600
141400
240000
007C00
184900
600800
806000
01FD00
ENDCHAR
STARTCHAR threequarters
ENCODING 190
SWIDTH 600 0
DWIDTH 8 0
BBX 9 10 0 0
BITMAP
2D0000
190140
280600
491400
780000
000000
181400
609800
81FD00
001800
ENDCHAR
STARTCHAR questiondown
ENCODING 191
SWIDTH 600 0
DWIDTH 8 0
BBX 5 10 1 -3
BITMAP
0380
0340
0000
0200
0900
2800
A000
C000
D240
7E00
ENDCHAR
STARTCHAR Agrave
ENCODING 192
SWIDTH 600 0
DWIDTH 8 0
BBX 7 12 0 0
BITMAP
0080
0060
0000
00B0
01A0
0264
0624
0814
1FF8
3018
A01C
C00C
ENDCHAR
STARTCHAR Aacute
ENCODING 193
SWIDTH 600 0
DWIDTH 8 0
BBX 7 12 0 0
BITMAP
0008
0064
0000
00B0
01A0
0264
0624
0814
1FF8
3018
A01C
C00C
ENDCHAR
STARTCHAR Acircumflex
ENCODING 194
SWIDTH 600 0
DWIDTH 8 0
BBX 8 12 0 0
BITMAP
00B8
0149
0000
00B0
01A0
0264
0624
0814
1FF8
3018
A01C
C00C
ENDCHAR
STARTCHAR Atilde
ENCODING 195
SWIDTH 600 0
DWIDTH 8 0
BBX 8 12 0 0
BITMAP
01E2
022D
0000
00B0
01A0
0264
0624
0814
1FF8
3018
A01C
C00C
ENDCHAR
STARTCHAR Adieresis
ENCODING 196
SWIDTH 600 0
DWIDTH 8 0
BBX 8 11 0 0
BITMAP
0189
0000
00B0
01A0
0264
0624
0814
1FF8
3018
A01C
C00C
ENDCHAR
STARTCHAR Aring
ENCODING 197
SWIDTH 600 0
DWIDTH 8 0
BBX 7 13 0 0
BITMAP
0078
0088
0074
0000
00B0
01A0
0264
0624
0814
1FF8
3018
A01C
C00C
ENDCHAR
STARTCHAR AE
ENCODING 198
SWIDTH 600 0
DWIDTH 8 0
BBX 10 9 -1 0
BITMAP
002FF0
006C00
009C00
015800
022F80
0BF400
183000
303000
A07F40
ENDCHAR
STARTCHAR Ccedilla
ENCODING 199
SWIDTH 600 0
DWIDTH 8 0
BBX 7 13 1 -4
BITMAP
06F4
1D18
3400
A000
9000
D000
9000
7460
1F90
0500
0D00
0600
2800
ENDCHAR
STARTCHAR Egrave
ENCODING 200
SWIDTH 600 0
DWIDTH 8 0
BBX 8 12 1 0
BITMAP
0180
0090
0000
1FFD
2400
2400
3000
7FE0
6000
9000
D000
FFE0
ENDCHAR
STARTCHAR Eacute
ENCODING 201
SWIDTH 600 0
DWIDTH 8 0
BBX 8 12 1 0
BITMAP
0018
0090
0000
1FFD
2400
2400
3000
7FE0
6000
9000
D000
FFE0
ENDCHAR
STARTCHAR Ecircumflex
ENCODING 202
SWIDTH 600 0
DWIDTH 8 0
BBX 8 12 1 0
BITMAP
01B0
0218
0000
1FFD
2400
2400
3000
7FE0
6000
9000
D000
FFE0
ENDCHAR
STARTCHAR Edieresis
ENCODING 203
SWIDTH 600 0
DWIDTH 8 0
BBX 8 11 1 0
BITMAP
0218
0000
1FFD
2400
2400
3000
7FE0
6000
9000
D000
FFE0
ENDCHAR
STARTCHAR Igrave
ENCODING 204
SWIDTH 600 0
DWIDTH 8 0
BBX 8 12 0 0
BITMAP
0080
0060
0000
0BFF
0090
00D0
00C0
0180
0280
0240
0300
7FF4
ENDCHAR
STARTCHAR Iacute
ENCODING 205
SWIDTH 600 0
DWIDTH 8 0
BBX 8 12 0 0
BITMAP
0008
0064
0000
0BFF
0090
00D0
00C0
0180
0280
0240
0300
7FF4
ENDCHAR
STARTCHAR Icircumflex
ENCODING 206
SWIDTH 600 0
DWIDTH 8 0
BBX 8 12 0 0
BITMAP
00B8
0149
0000
0BFF
0090
00D0
00C0
0180
0280
0240
0300
7FF4
ENDCHAR
STARTCHAR Idieresis
ENCODING 207
SWIDTH 600 0
DWIDTH 8 0
BBX 8 11 0 0
BITMAP
0189
0000
0BFF
0090
00D0
00C0
0180
0280
0240
0300
7FF4
ENDCHAR
STARTCHAR Eth
ENCODING 208
SWIDTH 600 0
DWIDTH 8 0
BBX 8 9 0 0
BITMAP
0BE4
0C1D
0C07
1803
BF87
2406
300D
3078
7F90
ENDCHAR
STARTCHAR Ntilde
ENCODING 209
SWIDTH 600 0
DWIDTH 8 0
BBX 8 12 0 0
BITMAP
01E2
022D
0000
0D03
0E03
1B06
2649
2589
30CC
309C
6078
9034
ENDCHAR
STARTCHAR Ograve
ENCODING 210
SWIDTH 600 0
DWIDTH 8 0
BBX 8 12 0 0
BITMAP
0080
0060
0000
02F8
0E09
2806
3007
6007
600A
600D
3478
1BD0
ENDCHAR
STARTCHAR Oacute
ENCODING 211
SWIDTH 600 0
DWIDTH 8 0
BBX 8 12 0 0
BITMAP
0008
0064
0000
02F8
0E09
2806
3007
6007
600A
600D
3478
1BD0
ENDCHAR
STARTCHAR Ocircumflex
ENCODING 212
SWIDTH 600 0
DWIDTH 8 0
BBX 8 12 0 0
BITMAP
00B8
0149
0000
02F8
0E09
2806
3007
6007
600A
600D
3478
1BD0
ENDCHAR
STARTCHAR Otilde
ENCODING 213
SWIDTH 600 0
DWIDTH 8 0
BBX 8 12 0 0
BITMAP
01E2
022D
0000
02F8
0E09
2806
3007
6007
600A
600D
3478
1BD0
ENDCHAR
STARTCHAR Odieresis
ENCODING 214
SWIDTH 600 0
DWIDTH 8 0
BBX 8 11 0 0
BITMAP
0189
0000
02F8
0E09
2806
3007
6007
600A
600D
3478
1BD0
ENDCHAR
STARTCHAR multiply
ENCODING 215
SWIDTH 600 0
DWIDTH 8 0
BBX 6 6 1 2
BITMAP
5020
2490
0A40
0B40
2490
5020
ENDCHAR
STARTCHAR Oslash
ENCODING 216
SWIDTH 600 0
DWIDTH 8 0
BBX 9 9 0 0
BITMAP
02FA40
0D0E00
281A00
306700
618700
660A00
7C0D00
747800
9BD000
ENDCHAR
STARTCHAR Ugrave
ENCODING 217
SWIDTH 600 0
DWIDTH 8 0
BBX 7 12 1 0
BITMAP
0200
0180
0000
300C
700C
6018
9028
D024
C030
C060
E1D0
6F40
ENDCHAR
STARTCHAR Uacute
ENCODING 218
SWIDTH 600 0
DWIDTH 8 0
BBX 7 12 1 0
BITMAP
0020
0190
0000
300C
700C
6018
9028
D024
C030
C060
E1D0
6F40
ENDCHAR
STARTCHAR Ucircumflex
ENCODING 219
SWIDTH 600 0
DWIDTH 8 0
BBX 7 12 1 0
BITMAP
02E0
0524
0000
300C
700C
6018
9028
D024
C030
C060
E1D0
6F40
ENDCHAR
STARTCHAR Udieresis
ENCODING 220
SWIDTH 600 0
DWIDTH 8 0
BBX 7 11 1 0
BITMAP
0624
0000
300C
700C
6018
9028
D024
C030
C060
E1D0
6F40
ENDCHAR
STARTCHAR Yacute
ENCODING 221
SWIDTH 600 0
DWIDTH 8 0
BBX 8 12 1 0
BITMAP
0060
0180
0000
6009
3018
2470
1890
0E80
0B00
0900
0D00
0C00
ENDCHAR
STARTCHAR Thorn
ENCODING 222
SWIDTH 600 0
DWIDTH 8 0
BBX 8 9 0 0
BITMAP
0900
0FF8
0C0A
1806
180A
241C
3FE4
3000
6000
ENDCHAR
STARTCHAR germandbls
ENCODING 223
SWIDTH 600 0
DWIDTH 8 0
BBX 8 10 0 0
BITMAP
02F4
0A0C
0C0C
1C24
1890
24A0
3428
3009
710D
62F8
ENDCHAR
STARTCHAR agrave
ENCODING 224
SWIDTH 600 0
DWIDTH 8 0
BBX 8 11 0 0
BITMAP
0080
00A0
0020
0000
06E6
1D1D
2409
300C
701C
3478
1F94
ENDCHAR
STARTCHAR aacute
ENCODING 225
SWIDTH 600 0
DWIDTH 8 0
BBX 8 11 0 0
BITMAP
0008
0028
0050
0000
06E6
1D1D
2409
300C
701C
3478
1F94
ENDCHAR
STARTCHAR acircumflex
ENCODING 226
SWIDTH 600 0
DWIDTH 8 0
BBX 8 10 0 0
BITMAP
00B4
0248
0000
06E6
1D1D
2409
300C
701C
3478
1F94
ENDCHAR
STARTCHAR atilde
ENCODING 227
SWIDTH 600 0
DWIDTH 8 0
BBX 8 10 0 0
BITMAP
02A2
022D
0000
06E6
1D1D
2409
300C
701C
3478
1F94
ENDCHAR
STARTCHAR adieresis
ENCODING 228
SWIDTH 600 0
DWIDTH 8 0
BBX 8 9 0 0
BITMAP
0188
0000
06E6
1D1D
2409
300C
701C
3478
1F94
ENDCHAR
STARTCHAR aring
ENCODING 229
SWIDTH 600 0
DWIDTH 8 0
BBX 8 12 0 0
BITMAP
0074
0088
0088
00B4
0000
06E6
1D1D
2409
300C
701C
3478
1F94
ENDCHAR
STARTCHAR ae
ENCODING 230
SWIDTH 600 0
DWIDTH 8 0
BBX 10 7 -1 0
BITMAP
0BDB80
047490
006590
1BFA80
349000
61E100
2E2E40
ENDCHAR
STARTCHAR ccedilla
ENCODING 231
SWIDTH 600 0
DWIDTH 8 0
BBX 7 11 1 -4
BITMAP
0BE0
3424
9000
C000
C000
A060
2F80
0800
1D00
0900
3800
ENDCHAR
STARTCHAR egrave
ENCODING 232
SWIDTH 600 0
DWIDTH 8 0
BBX 7 11 1 0
BITMAP
0200
0280
0080
0000
1BD0
7470
9024
FFF4
C000
A050
2F80
ENDCHAR
STARTCHAR eacute
ENCODING 233
SWIDTH 600 0
DWIDTH 8 0
BBX 7 11 1 0
BITMAP
0020
00E0
0240
0000
1BD0
7470
9024
FFF4
C000
A050
2F80
ENDCHAR
STARTCHAR ecircumflex
ENCODING 234
SWIDTH 600 0
DWIDTH 8 0
BBX 7 10 1 0
BITMAP
02D0
0920
0000
1BD0
7470
9024
FFF4
C000
A050
2F80
ENDCHAR
STARTCHAR edieresis
ENCODING 235
SWIDTH 600 0
DWIDTH 8 0
BBX 7 9 1 0
BITMAP
0930
0000
1BD0
7470
9024
FFF4
C000
A050
2F80
ENDCHAR
STARTCHAR igrave
ENCODING 236
SWIDTH 600 0
DWIDTH 8 0
BBX 6 11 1 0
BITMAP
0600
0340
0180
0000
7F00
0300
0600
0900
0D00
0D00
07D0
ENDCHAR
STARTCHAR iacute
ENCODING 237
SWIDTH 600 0
DWIDTH 8 0
BBX 6 11 1 0
BITMAP
0060
01D0
0200
0000
7F00
0300
0600
0900
0D00
0D00
07D0
ENDCHAR
STARTCHAR icircumflex
ENCODING 238
SWIDTH 600 0
DWIDTH 8 0
BBX 6 10 1 0
BITMAP
06C0
0860
0000
7F00
0300
0600
0900
0D00
0D00
07D0
ENDCHAR
STARTCHAR idieresis
ENCODING 239
SWIDTH 600 0
DWIDTH 8 0
BBX 6 9 1 0
BITMAP
0C60
0000
7F00
0300
0600
0900
0D00
0D00
07D0
ENDCHAR
STARTCHAR eth
ENCODING 240
SWIDTH 600 0
DWIDTH 8 0
BBX 8 10 0 0
BITMAP
0182
00B9
0298
000D
0BE9
281E
6009
600C
7468
1FD0
ENDCHAR
STARTCHAR ntilde
ENCODING 241
SWIDTH 600 0
DWIDTH 8 0
BBX 8 10 0 0
BITMAP
02A2
022D
0000
19B8
1E0D
2809
240C
300C
7018
6028
ENDCHAR
STARTCHAR ograve
ENCODING 242
SWIDTH 600 0
DWIDTH 8 0
BBX 8 11 0 0
BITMAP
0080
0090
0020
0000
06E4
1D1C
3409
6009
600C
3474
1BD0
ENDCHAR
STARTCHAR oacute
ENCODING 243
SWIDTH 600 0
DWIDTH 8 0
BBX 8 11 0 0
BITMAP
0008
0034
0090
0000
06E4
1D1C
3409
6009
600C
3474
1BD0
ENDCHAR
STARTCHAR ocircumflex
ENCODING 244
SWIDTH 600 0
DWIDTH 8 0
BBX 8 10 0 0
BITMAP
00B4
0248
0000
06E4
1D1C
3409
6009
600C
3474
1BD0
ENDCHAR
STARTCHAR otilde
ENCODING 245
SWIDTH 600 0
DWIDTH 8 0
BBX 8 10 0 0
BITMAP
0296
062C
0000
06E4
1D1C
3409
6009
600C
3474
1BD0
ENDCHAR
STARTCHAR odieresis
ENCODING 246
SWIDTH 600 0
DWIDTH 8 0
BBX 8 9 0 0
BITMAP
024C
0000
06E4
1D1C
3409
6009
600C
3474
1BD0
ENDCHAR
STARTCHAR divide
ENCODING 247
SWIDTH 600 0
DWIDTH 8 0
BBX 7 5 1 2
BITMAP
0600
0000
BFF4
0000
0600
ENDCHAR
STARTCHAR oslash
ENCODING 248
SWIDTH 600 0
DWIDTH 8 0
BBX 8 7 0 0
BITMAP
06EA
1D2C
34A9
6289
6A0C
3874
ABD0
ENDCHAR
STARTCHAR ugrave
ENCODING 249
SWIDTH 600 0
DWIDTH 8 0
BBX 8 11 0 0
BITMAP
0080
0090
0020
0000
1806
2809
240D
300C
3018
70A8
2E54
ENDCHAR
STARTCHAR uacute
ENCODING 250
SWIDTH 600 0
DWIDTH 8 0
BBX 8 11 0 0
BITMAP
0008
0074
0090
0000
1806
2809
240D
300C
3018
70A8
2E54
ENDCHAR
STARTCHAR ucircumflex
ENCODING 251
SWIDTH 600 0
DWIDTH 8 0
BBX 8 10 0 0
BITMAP
00B4
0248
0000
1806
2809
240D
300C
3018
70A8
2E54
ENDCHAR
STARTCHAR udieresis
ENCODING 252
SWIDTH 600 0
DWIDTH 8 0
BBX 8 9 0 0
BITMAP
024C
0000
1806
2809
240D
300C
3018
70A8
2E54
ENDCHAR
STARTCHAR yacute
ENCODING 253
SWIDTH 600 0
DWIDTH 8 0
BBX 9 14 -1 -3
BITMAP
000600
001D00
002400
000000
0901C0
060240
060600
030C00
026400
01A000
01D000
018000
070000
790000
ENDCHAR
STARTCHAR thorn
ENCODING 254
SWIDTH 600 0
DWIDTH 8 0
BBX 8 13 0 -3
BITMAP
0900
0900
0C00
19F8
1D1D
2409
2409
300C
7468
6BD0
9000
9000
C000
ENDCHAR
STARTCHAR ydieresis
ENCODING 255
SWIDTH 600 0
DWIDTH 8 0
BBX 9 12 -1 -3
BITMAP
009600
000000
0901C0
060240
060600
030C00
026400
01A000
01D000
018000
070000
790000
ENDCHAR
STARTCHAR Amacron
ENCODING 256
SWIDTH 600 0
DWIDTH 8 0
BBX 8 11 0 0
BITMAP
01FD
0000
00B0
01A0
0264
0624
0814
1FF8
3018
A01C
C00C
ENDCHAR
STARTCHAR amacron
ENCODING 257
SWIDTH 600 0
DWIDTH 8 0
BBX 8 9 0 0
BITMAP
01FC
0000
06E6
1D1D
2409
300C
701C
3478
1F94
ENDCHAR
STARTCHAR Abreve
ENCODING 258
SWIDTH 600 0
DWIDTH 8 0
BBX 8 12 0 0
BITMAP
0145
00B8
0000
00B0
01A0
0264
0624
0814
1FF8
3018
A01C
C00C
ENDCHAR
STARTCHAR abreve
ENCODING 259
SWIDTH 600 0
DWIDTH 8 0
BBX 8 10 0 0
BITMAP
0246
01F8
0000
06E6
1D1D
2409
300C
701C
3478
1F94
ENDCHAR
STARTCHAR Aogonek
ENCODING 260
SWIDTH 600 0
DWIDTH 8 0
BBX 7 12 0 -3
BITMAP
00B0
01A0
0264
0624
0814
1FF8
3018
A01C
C00C
0014
0060
0078
ENDCHAR
STARTCHAR aogonek
ENCODING 261
SWIDTH 600 0
DWIDTH 8 0
BBX 8 10 0 -3
BITMAP
06E6
1D1D
2409
300C
701C
3478
1F94
0050
0080
00B4
ENDCHAR
STARTCHAR Cacute
ENCODING 262
SWIDTH 600 0
DWIDTH 8 0
BBX 7 12 1 0
BITMAP
0018
0090
0000
06F4
1D18
3400
A000
9000
D000
9000
7460
1F90
ENDCHAR
STARTCHAR cacute
ENCODING 263
SWIDTH 600 0
DWIDTH 8 0
BBX 7 11 1 0
BITMAP
0024
00A0
0180
0000
0BE0
3424
9000
C000
C000
A060
2F80
ENDCHAR
STARTCHAR Ccircumflex
ENCODING 264
SWIDTH 600 0
DWIDTH 8 0
BBX 7 12 1 0
BITMAP
01B0
0218
0000
06F4
1D18
3400
A000
9000
D000
9000
7460
1F90
ENDCHAR
STARTCHAR ccircumflex
ENCODING 265
SWIDTH 600 0
DWIDTH 8 0
BBX 7 10 1 0
BITMAP
02A0
0524
0000
0BE0
3424
9000
C000
C000
A060
2F80
ENDCHAR
STARTCHAR Cdotaccent
ENCODING 266
SWIDTH 600 0
DWIDTH 8 0
BBX 7 11 1 0
BITMAP
0090
0000
06F4
1D18
3400
A000
9000
D000
9000
7460
1F90
ENDCHAR
STARTCHAR cdotaccent
ENCODING 267
SWIDTH 600 0
DWIDTH 8 0
BBX 7 10 1 0
BITMAP
01D0
01D0
0000
0BE0
3424
9000
C000
C000
A060
2F80
ENDCHAR
STARTCHAR Ccaron
ENCODING 268
SWIDTH 600 0
DWIDTH 8 0
BBX 7 12 1 0
BITMAP
0208
00E0
0000
06F4
1D18
3400
A000
9000
D000
9000
7460
1F90
ENDCHAR
STARTCHAR ccaron
ENCODING 269
SWIDTH 600 0
DWIDTH 8 0
BBX 7 10 1 0
BITMAP
0614
02E0
0000
0BE0
3424
9000
C000
C000
A060
2F80
ENDCHAR
STARTCHAR Dcaron
ENCODING 270
SWIDTH 600 0
DWIDTH 8 0
BBX 8 12 0 0
BITMAP
0145
00B4
0000
0FE4
0C1D
180A
2806
2406
300A
701C
6074
BF90
ENDCHAR
STARTCHAR dcaron
ENCODING 271
SWIDTH 600 0
DWIDTH 8 0
BBX 10 12 0 0
BITMAP
000030
000030
000760
000650
000900
07E900
1D2C00
341C00
601800
602400
747400
2F7000
ENDCHAR
STARTCHAR Dcroat
ENCODING 272
SWIDTH 600 0
DWIDTH 8 0
BBX 8 9 0 0
BITMAP
0BE4
0C1D
0C07
1803
BF87
2406
300D
3078
7F90
ENDCHAR
STARTCHAR dcroat
ENCODING 273
SWIDTH 600 0
DWIDTH 8 0
BBX 9 10 0 0
BITMAP
000340
006BC0
000600
07EA00
1D1D00
340D00
700C00
601800
347800
1FA400
ENDCHAR
STARTCHAR Emacron
ENCODING 274
SWIDTH 600 0
DWIDTH 8 0
BBX 8 11 1 0
BITMAP
03F8
0000
1FFD
2400
2400
3000
7FE0
6000
9000
D000
FFE0
ENDCHAR
STARTCHAR emacron
ENCODING 275
SWIDTH 600 0
DWIDTH 8 0
BBX 7 9 1 0
BITMAP
0BF0
0000
1BD0
7470
9024
FFF4
C000
A050
2F80
ENDCHAR
STARTCHAR Ebreve
ENCODING 276
SWIDTH 600 0
DWIDTH 8 0
BBX 8 12 1 0
BITMAP
0208
01F4
0000
1FFD
2400
2400
3000
7FE0
6000
9000
D000
FFE0
ENDCHAR
STARTCHAR ebreve
ENCODING 277
SWIDTH 600 0
DWIDTH 8 0
BBX 7 10 1 0
BITMAP
0924
07E0
0000
1BD0
7470
9024
FFF4
C000
A050
2F80
ENDCHAR
STARTCHAR Edotaccent
ENCODING 278
SWIDTH 600 0
DWIDTH 8 0
BBX 8 11 1 0
BITMAP
0090
0000
1FFD
2400
2400
3000
7FE0
6000
9000
D000
FFE0
ENDCHAR
STARTCHAR edotaccent
ENCODING 279
SWIDTH 600 0
DWIDTH 8 0
BBX 7 10 1 0
BITMAP
01C0
01C0
0000
1BD0
7470
9024
FFF4
C000
A050
2F80
ENDCHAR
STARTCHAR Eogonek
ENCODING 280
SWIDTH 600 0
DWIDTH 8 0
BBX 8 12 1 -3
BITMAP
1FFD
2400
2400
3000
7FE0
6000
9000
D000
FFE0
0140
0200
02D0
ENDCHAR
STARTCHAR eogonek
ENCODING 281
SWIDTH 600 0
DWIDTH 8 0
BBX 7 10 1 -3
BITMAP
1BD0
7470
9024
FFF4
C000
A050
2F80
0100
0500
0780
ENDCHAR
STARTCHAR Ecaron
ENCODING 282
SWIDTH 600 0
DWIDTH 8 0
BBX 8 12 1 0
BITMAP
0208
00E0
0000
1FFD
2400
2400
3000
7FE0
6000
9000
D000
FFE0
ENDCHAR
STARTCHAR ecaron
ENCODING 283
SWIDTH 600 0
DWIDTH 8 0
BBX 7 10 1 0
BITMAP
0524
0290
0000
1BD0
7470
9024
FFF4
C000
A050
2F80
ENDCHAR
STARTCHAR Gcircumflex
ENCODING 284
SWIDTH 600 0
DWIDTH 8 0
BBX 7 12 1 0
BITMAP
01B0
0618
0000
06E4
2D18
7000
9000
C1F8
C024
D030
A070
2F90
ENDCHAR
STARTCHAR gcircumflex
ENCODING 285
SWIDTH 600 0
DWIDTH 8 0
BBX 8 13 0 -3
BITMAP
00B4
0248
0000
06E6
1D1D
2409
300C
701C
3478
1BA4
0024
50A0
6F80
ENDCHAR
STARTCHAR Gbreve
ENCODING 286
SWIDTH 600 0
DWIDTH 8 0
BBX 7 12 1 0
BITMAP
0218
02E4
0000
06E4
2D18
7000
9000
C1F8
C024
D030
A070
2F90
ENDCHAR
STARTCHAR gbreve
ENCODING 287
SWIDTH 600 0
DWIDTH 8 0
BBX 8 13 0 -3
BITMAP
0246
01F8
0000
06E6
1D1D
2409
300C
701C
3478
1BA4
0024
50A0
6F80
ENDCHAR
STARTCHAR Gdotaccent
ENCODING 288
SWIDTH 600 0
DWIDTH 8 0
BBX 7 11 1 0
BITMAP
0090
0000
06E4
2D18
7000
9000
C1F8
C024
D030
A070
2F90
ENDCHAR
STARTCHAR gdotaccent
ENCODING 289
SWIDTH 600 0
DWIDTH 8 0
BBX 8 13 0 -3
BITMAP
0070
0070
0000
06E6
1D1D
2409
300C
701C
3478
1BA4
0024
50A0
6F80
ENDCHAR
STARTCHAR uni0122
ENCODING 290
SWIDTH 600 0
DWIDTH 8 0
BBX 7 12 1 -3
BITMAP
06E4
2D18
7000
9000
C1F8
C024
D030
A070
2F90
0000
0A00
2D00
ENDCHAR
STARTCHAR uni0123
ENCODING 291
SWIDTH 600 0
DWIDTH 8 0
BBX 8 13 0 -3
BITMAP
0028
0090
0050
06E6
1D1D
2409
300C
701C
3478
1BA4
0024
50A0
6F80
ENDCHAR
STARTCHAR Hcircumflex
ENCODING 292
SWIDTH 600 0
DWIDTH 8 0
BBX 8 12 0 0
BITMAP
00B8
0149
0000
0C03
1C03
1806
240A
2FFD
300C
700C
6018
9024
ENDCHAR
STARTCHAR hcircumflex
ENCODING 293
SWIDTH 600 0
DWIDTH 8 0
BBX 8 13 0 0
BITMAP
0B40
2480
0000
0900
0900
0C00
1DB8
1E0D
2809
240C
300C
7018
6028
ENDCHAR
STARTCHAR Hbar
ENCODING 294
SWIDTH 600 0
DWIDTH 8 0
BBX 9 9 0 0
BITMAP
0C0300
7FFF80
180600
240900
3FFD00
300C00
700C00
601800
902400
ENDCHAR
STARTCHAR hbar
ENCODING 295
SWIDTH 600 0
DWIDTH 8 0
BBX 8 10 0 0
BITMAP
0900
2FF4
0C00
19B8
1E0D
2809
240C
300C
7018
6028
ENDCHAR
STARTCHAR Itilde
ENCODING 296
SWIDTH 600 0
DWIDTH 8 0
BBX 8 12 0 0
BITMAP
01E2
022D
0000
0BFF
0090
00D0
00C0
0180
0280
0240
0300
7FF4
ENDCHAR
STARTCHAR itilde
ENCODING 297
SWIDTH 600 0
DWIDTH 8 0
BBX 7 10 1 0
BITMAP
0A64
14E0
0000
7F00
0300
0600
0900
0D00
0D00
07D0
ENDCHAR
STARTCHAR Imacron
ENCODING 298
SWIDTH 600 0
DWIDTH 8 0
BBX 8 11 0 0
BITMAP
01FD
0000
0BFF
0090
00D0
00C0
0180
0280
0240
0300
7FF4
ENDCHAR
STARTCHAR imacron
ENCODING 299
SWIDTH 600 0
DWIDTH 8 0
BBX 6 9 1 0
BITMAP
0FE0
0000
7F00
0300
0600
0900
0D00
0D00
07D0
ENDCHAR
STARTCHAR Ibreve
ENCODING 300
SWIDTH 600 0
DWIDTH 8 0
BBX 8 12 0 0
BITMAP
0145
00B8
0000
0BFF
0090
00D0
00C0
0180
0280
0240
0300
7FF4
ENDCHAR
STARTCHAR ibreve
ENCODING 301
SWIDTH 600 0
DWIDTH 8 0
BBX 6 10 1 0
BITMAP
0820
0BD0
0000
7F00
0300
0600
0900
0D00
0D00
07D0
ENDCHAR
STARTCHAR Iogonek
ENCODING 302
SWIDTH 600 0
DWIDTH 8 0
BBX 8 12 0 -3
BITMAP
0BFF
0090
00D0
00C0
0180
0280
0240
0300
7FF4
0500
1800
0F00
ENDCHAR
STARTCHAR iogonek
ENCODING 303
SWIDTH 600 0
DWIDTH 8 0
BBX 6 13 1 -3
BITMAP
0280
0280
0000
7F00
0300
0600
0900
0D00
0D00
07D0
0100
0600
0780
ENDCHAR
STARTCHAR Idotaccent
ENCODING 304
SWIDTH 600 0
DWIDTH 8 0
BBX 8 11 0 0
BITMAP
0030
0000
0BFF
0090
00D0
00C0
0180
0280
0240
0300
7FF4
ENDCHAR
STARTCHAR dotlessi
ENCODING 305
SWIDTH 600 0
DWIDTH 8 0
BBX 6 7 1 0
BITMAP
7F00
0300
0600
0900
0D00
0D00
07D0
ENDCHAR
STARTCHAR IJ
ENCODING 306
SWIDTH 600 0
DWIDTH 8 0
BBX 8 11 0 -2
BITMAP
0906
0D06
0C09
180D
180C
2418
3428
3024
6030
0070
02D0
ENDCHAR
STARTCHAR ij
ENCODING 307
SWIDTH 600 0
DWIDTH 8 0
BBX 7 13 1 -3
BITMAP
1C28
1C28
0000
2430
3060
70A0
6090
90C0
90C0
C180
0280
0340
1E00
ENDCHAR
STARTCHAR Jcircumflex
ENCODING 308
SWIDTH 600 0
DWIDTH 8 0
BBX 8 12 0 0
BITMAP
00B8
0149
0000
07FD
0009
000C
001C
0018
0024
0030
60A0
2F80
ENDCHAR
STARTCHAR jcircumflex
ENCODING 309
SWIDTH 600 0
DWIDTH 8 0
BBX 8 13 0 -3
BITMAP
006C
0086
0000
0FF0
0030
0060
00A0
0090
00C0
00C0
0180
4740
BD00
ENDCHAR
STARTCHAR uni0136
ENCODING 310
SWIDTH 600 0
DWIDTH 8 0
BBX 9 12 0 -3
BITMAP
090740
0D1D00
0C6000
19C000
1AD000
286000
343000
302800
601C00
000000
028000
0B4000
ENDCHAR
STARTCHAR uni0137
ENCODING 311
SWIDTH 600 0
DWIDTH 8 0
BBX 8 13 0 -3
BITMAP
0600
0900
0900
0C0A
1C28
18D0
2BD0
2C60
3024
701C
0000
0340
0E40
ENDCHAR
STARTCHAR kgreenlandic
ENCODING 312
SWIDTH 600 0
DWIDTH 8 0
BBX 8 7 0 0
BITMAP
0C0A
1824
19D0
2B90
2870
3024
701C
ENDCHAR
STARTCHAR Lacute
ENCODING 313
SWIDTH 600 0
DWIDTH 8 0
BBX 6 12 1 0
BITMAP
0180
0600
0000
0D00
0C00
1800
1800
2400
3400
3000
6000
BFF0
ENDCHAR
STARTCHAR lacute
ENCODING 314
SWIDTH 600 0
DWIDTH 8 0
BBX 5 13 2 0
BITMAP
0180
0600
0000
FD00
0C00
0C00
1800
2800
2400
3000
3000
7000
2F40
ENDCHAR
STARTCHAR uni013B
ENCODING 315
SWIDTH 600 0
DWIDTH 8 0
BBX 6 12 1 -3
BITMAP
0D00
0C00
1800
1800
2400
3400
3000
6000
BFF0
0000
0A00
1E00
ENDCHAR
STARTCHAR uni013C
ENCODING 316
SWIDTH 600 0
DWIDTH 8 0
BBX 5 13 2 -3
BITMAP
FD00
0C00
0C00
1800
2800
2400
3000
3000
7000
2F40
0000
1C00
7800
ENDCHAR
STARTCHAR Lcaron
ENCODING 317
SWIDTH 600 0
DWIDTH 8 0
BBX 7 12 1 0
BITMAP
0018
0024
0020
0D20
0C00
1800
1800
2400
3400
3000
6000
BFF0
ENDCHAR
STARTCHAR lcaron
ENCODING 318
SWIDTH 600 0
DWIDTH 8 0
BBX 6 12 2 0
BITMAP
0030
0060
FD50
0C90
0C00
1800
2800
2400
3000
3000
7000
2F40
ENDCHAR
STARTCHAR Ldot
ENCODING 319
SWIDTH 600 0
DWIDTH 8 0
BBX 7 9 1 0
BITMAP
0D00
0C00
1800
1828
2428
3400
3000
6000
BFF0
ENDCHAR
STARTCHAR ldot
ENCODING 320
SWIDTH 600 0
DWIDTH 8 0
BBX 8 10 1 0
BITMAP
7F00
0600
0900
0900
0C0D
180D
1800
2400
2840
1F80
ENDCHAR
STARTCHAR Lslash
ENCODING 321
SWIDTH 600 0
DWIDTH 8 0
BBX 7 9 0 0
BITMAP
0340
0300
0600
0A64
0B80
6D00
0C00
1800
2FFC
ENDCHAR
STARTCHAR lslash
ENCODING 322
SWIDTH 600 0
DWIDTH 8 0
BBX 6 10 1 0
BITMAP
3F40
0300
0310
07A0
0A00
6D00
0C00
0C00
1C00
0BD0
ENDCHAR
STARTCHAR Nacute
ENCODING 323
SWIDTH 600 0
DWIDTH 8 0
BBX 8 12 0 0
BITMAP
0008
0064
0000
0D03
0E03
1B06
2649
2589
30CC
309C
6078
9034
ENDCHAR
STARTCHAR nacute
ENCODING 324
SWIDTH 600 0
DWIDTH 8 0
BBX 8 11 0 0
BITMAP
0008
0028
0050
0000
19B8
1E0D
2809
240C
300C
7018
6028
ENDCHAR
STARTCHAR uni0145
ENCODING 325
SWIDTH 600 0
DWIDTH 8 0
BBX 8 12 0 -3
BITMAP
0D03
0E03
1B06
2649
2589
30CC
309C
6078
9034
0000
0700
1E00
ENDCHAR
STARTCHAR uni0146
ENCODING 326
SWIDTH 600 0
DWIDTH 8 0
BBX 8 10 0 -3
BITMAP
19B8
1E0D
2809
240C
300C
7018
6028
0000
0740
1E00
ENDCHAR
STARTCHAR Ncaron
ENCODING 327
SWIDTH 600 0
DWIDTH 8 0
BBX 8 12 0 0
BITMAP
0185
00B8
0000
0D03
0E03
1B06
2649
2589
30CC
309C
6078
9034
ENDCHAR
STARTCHAR ncaron
ENCODING 328
SWIDTH 600 0
DWIDTH 8 0
BBX 8 10 0 0
BITMAP
0145
00A4
0000
19B8
1E0D
2809
240C
300C
7018
6028
ENDCHAR
STARTCHAR napostrophe
ENCODING 329
SWIDTH 600 0
DWIDTH 8 0
BBX 9 10 0 0
BITMAP
380000
3C0000
180000
766F00
939240
030240
060240
0A0300
090700
0C0600
ENDCHAR
STARTCHAR Eng
ENCODING 330
SWIDTH 600 0
DWIDTH 8 0
BBX 8 9 0 0
BITMAP
0DB8
1E0A
1806
2406
2406
3009
700C
6028
91E0
ENDCHAR
STARTCHAR eng
ENCODING 331
SWIDTH 600 0
DWIDTH 8 0
BBX 8 10 0 -3
BITMAP
19B8
1E0D
2809
240D
300C
7018
6018
0024
0030
02E0
ENDCHAR
STARTCHAR Omacron
ENCODING 332
SWIDTH 600 0
DWIDTH 8 0
BBX 8 11 0 0
BITMAP
01FD
0000
02F8
0E09
2806
3007
6007
600A
600D
3478
1BD0
ENDCHAR
STARTCHAR omacron
ENCODING 333
SWIDTH 600 0
DWIDTH 8 0
BBX 8 9 0 0
BITMAP
02FC
0000
06E4
1D1C
3409
6009
600C
3474
1BD0
ENDCHAR
STARTCHAR Obreve
ENCODING 334
SWIDTH 600 0
DWIDTH 8 0
BBX 8 12 0 0
BITMAP
0145
00B8
0000
02F8
0E09
2806
3007
6007
600A
600D
3478
1BD0
ENDCHAR
STARTCHAR obreve
ENCODING 335
SWIDTH 600 0
DWIDTH 8 0
BBX 8 10 0 0
BITMAP
0249
01F4
0000
06E4
1D1C
3409
6009
600C
3474
1BD0
ENDCHAR
STARTCHAR Ohungarumlaut
ENCODING 336
SWIDTH 600 0
DWIDTH 8 0
BBX 9 12 0 0
BITMAP
002240
009500
000000
02F800
0E0900
280600
300700
600700
600A00
600D00
347800
1BD000
ENDCHAR
STARTCHAR ohungarumlaut
ENCODING 337
SWIDTH 600 0
DWIDTH 8 0
BBX 8 11 0 0
BITMAP
0022
0099
0088
0000
06E4
1D1C
3409
6009
600C
3474
1BD0
ENDCHAR
STARTCHAR OE
ENCODING 338
SWIDTH 600 0
DWIDTH 8 0
BBX 9 9 0 0
BITMAP
02FFC0
1D3000
343000
706000
A0BE00
A09000
A0C000
758000
1BFE00
ENDCHAR
STARTCHAR oe
ENCODING 339
SWIDTH 600 0
DWIDTH 8 0
BBX 9 7 0 0
BITMAP
1F5E00
71E240
90C240
C0FF40
C18000
D78100
7DB900
ENDCHAR
STARTCHAR Racute
ENCODING 340
SWIDTH 600 0
DWIDTH 8 0
BBX 8 12 0 0
BITMAP
0008
0064
0000
0BF8
0C0A
1C06
181D
2FE4
24D0
30A0
7030
6024
ENDCHAR
STARTCHAR racute
ENCODING 341
SWIDTH 600 0
DWIDTH 8 0
BBX 7 11 1 0
BITMAP
0024
00A0
0180
0000
19B8
2A40
2800
3000
3000
6000
A000
ENDCHAR
STARTCHAR uni0156
ENCODING 342
SWIDTH 600 0
DWIDTH 8 0
BBX 8 12 0 -3
BITMAP
0BF8
0C0A
1C06
181D
2FE4
24D0
30A0
7030
6024
0000
0740
0E00
ENDCHAR
STARTCHAR uni0157
ENCODING 343
SWIDTH 600 0
DWIDTH 8 0
BBX 8 10 0 -3
BITMAP
066E
0A90
0A00
0C00
0C00
1800
2800
0000
3400
A400
ENDCHAR
STARTCHAR Rcaron
ENCODING 344
SWIDTH 600 0
DWIDTH 8 0
BBX 8 12 0 0
BITMAP
0185
00B8
0000
0BF8
0C0A
1C06
181D
2FE4
24D0
30A0
7030
6024
ENDCHAR
STARTCHAR rcaron
ENCODING 345
SWIDTH 600 0
DWIDTH 8 0
BBX 7 10 1 0
BITMAP
0218
01E0
0000
19B8
2A40
2800
3000
3000
6000
A000
ENDCHAR
STARTCHAR Sacute
ENCODING 346
SWIDTH 600 0
DWIDTH 8 0
BBX 8 12 0 0
BITMAP
0018
0060
0000
02F4
0A09
0C00
0A40
01E0
0028
0018
7464
1BD0
ENDCHAR
STARTCHAR sacute
ENCODING 347
SWIDTH 600 0
DWIDTH 8 0
BBX 6 11 1 0
BITMAP
0020
00D0
0240
0000
1F90
3060
3400
1B80
00A0
90A0
6F80
ENDCHAR
STARTCHAR Scircumflex
ENCODING 348
SWIDTH 600 0
DWIDTH 8 0
BBX 8 12 0 0
BITMAP
00B4
0248
0000
02F4
0A09
0C00
0A40
01E0
0028
0018
7464
1BD0
ENDCHAR
STARTCHAR scircumflex
ENCODING 349
SWIDTH 600 0
DWIDTH 8 0
BBX 6 10 1 0
BITMAP
02D0
0920
0000
1F90
3060
3400
1B80
00A0
90A0
6F80
ENDCHAR
STARTCHAR uni015E
ENCODING 350
SWIDTH 600 0
DWIDTH 8 0
BBX 8 13 0 -4
BITMAP
02F4
0A09
0C00
0A40
01E0
0028
0018
7464
1BD0
0200
0700
0240
1D00
ENDCHAR
STARTCHAR uni015F
ENCODING 351
SWIDTH 600 0
DWIDTH 8 0
BBX 6 11 1 -4
BITMAP
1F90
3060
3400
1B80
00A0
90A0
6F80
0800
1C00
0900
7400
ENDCHAR
STARTCHAR Scaron
ENCODING 352
SWIDTH 600 0
DWIDTH 8 0
BBX 8 12 0 0
BITMAP
0149
00B4
0000
02F4
0A09
0C00
0A40
01E0
0028
0018
7464
1BD0
ENDCHAR
STARTCHAR scaron
ENCODING 353
SWIDTH 600 0
DWIDTH 8 0
BBX 7 10 1 0
BITMAP
0924
0390
0000
1F90
3060
3400
1B80
00A0
90A0
6F80
ENDCHAR
STARTCHAR uni0162
ENCODING 354
SWIDTH 600 0
DWIDTH 8 0
BBX 8 13 1 -4
BITMAP
BFFE
0240
0340
0300
0600
0A00
0900
0C00
0C00
1400
2800
1C00
A400
ENDCHAR
STARTCHAR uni0163
ENCODING 355
SWIDTH 600 0
DWIDTH 8 0
BBX 7 13 1 -4
BITMAP
0600
0900
FFF8
0C00
1800
2800
2400
2810
1F90
0500
0A00
0700
2900
ENDCHAR
STARTCHAR Tcaron
ENCODING 356
SWIDTH 600 0
DWIDTH 8 0
BBX 8 12 1 0
BITMAP
0614
02E0
0000
BFFE
0240
0340
0300
0600
0A00
0900
0C00
0C00
ENDCHAR
STARTCHAR tcaron
ENCODING 357
SWIDTH 600 0
DWIDTH 8 0
BBX 7 12 1 0
BITMAP
0018
0024
0020
0620
0900
FFF8
0C00
1800
2800
2400
2810
1F90
ENDCHAR
STARTCHAR Tbar
ENCODING 358
SWIDTH 600 0
DWIDTH 8 0
BBX 8 9 1 0
BITMAP
BFFE
0240
0340
0300
3FE0
0600
0900
0D00
0C00
ENDCHAR
STARTCHAR tbar
ENCODING 359
SWIDTH 600 0
DWIDTH 8 0
BBX 8 9 0 0
BITMAP
0180
0240
3FFE
0300
0600
7FF8
0900
0A04
07E4
ENDCHAR
STARTCHAR Utilde
ENCODING 360
SWIDTH 600 0
DWIDTH 8 0
BBX 7 12 1 0
BITMAP
0788
08B4
0000
300C
700C
6018
9028
D024
C030
C060
E1D0
6F40
ENDCHAR
STARTCHAR utilde
ENCODING 361
SWIDTH 600 0
DWIDTH 8 0
BBX 8 10 0 0
BITMAP
0296
062C
0000
1806
2809
240D
300C
3018
70A8
2E54
ENDCHAR
STARTCHAR Umacron
ENCODING 362
SWIDTH 600 0
DWIDTH 8 0
BBX 7 11 1 0
BITMAP
07F4
0000
300C
700C
6018
9028
D024
C030
C060
E1D0
6F40
ENDCHAR
STARTCHAR umacron
ENCODING 363
SWIDTH 600 0
DWIDTH 8 0
BBX 8 9 0 0
BITMAP
02FC
0000
1806
2809
240D
300C
3018
70A8
2E54
ENDCHAR
STARTCHAR Ubreve
ENCODING 364
SWIDTH 600 0
DWIDTH 8 0
BBX 7 12 1 0
BITMAP
0514
02E0
0000
300C
700C
6018
9028
D024
C030
C060
E1D0
6F40
ENDCHAR
STARTCHAR ubreve
ENCODING 365
SWIDTH 600 0
DWIDTH 8 0
BBX 8 10 0 0
BITMAP
0209
01F4
0000
1806
2809
240D
300C
3018
70A8
2E54
ENDCHAR
STARTCHAR Uring
ENCODING 366
SWIDTH 600 0
DWIDTH 8 0
BBX 7 13 1 0
BITMAP
01E0
0220
01D0
0000
300C
700C
6018
9028
D024
C030
C060
E1D0
6F40
ENDCHAR
STARTCHAR uring
ENCODING 367
SWIDTH 600 0
DWIDTH 8 0
BBX 8 12 0 0
BITMAP
00B4
0198
0198
00E0
0000
1806
2809
240D
300C
3018
70A8
2E54
ENDCHAR
STARTCHAR Uhungarumlaut
ENCODING 368
SWIDTH 600 0
DWIDTH 8 0
BBX 8 12 1 0
BITMAP
0089
0254
0000
300C
700C
6018
9028
D024
C030
C060
E1D0
6F40
ENDCHAR
STARTCHAR uhungarumlaut
ENCODING 369
SWIDTH 600 0
DWIDTH 8 0
BBX 8 11 0 0
BITMAP
0022
0099
0088
0000
1806
2809
240D
300C
3018
70A8
2E54
ENDCHAR
STARTCHAR Uogonek
ENCODING 370
SWIDTH 600 0
DWIDTH 8 0
BBX 7 12 1 -3
BITMAP
300C
700C
6018
9028
D024
C030
C060
D090
6A40
2400
6000
3C00
ENDCHAR
STARTCHAR uogonek
ENCODING 371
SWIDTH 600 0
DWIDTH 8 0
BBX 8 10 0 -3
BITMAP
1806
2809
240D
300C
3018
70A8
2E54
0050
0080
00F0
ENDCHAR
STARTCHAR Wcircumflex
ENCODING 372
SWIDTH 600 0
DWIDTH 8 0
BBX 9 12 0 0
BITMAP
00B800
014900
000000
240180
240280
304240
31D300
329600
365900
395C00
286800
747400
ENDCHAR
STARTCHAR wcircumflex
ENCODING 373
SWIDTH 600 0
DWIDTH 8 0
BBX 9 10 0 0
BITMAP
00B400
020800
000000
608280
61D300
629600
669900
699C00
68A400
747000
ENDCHAR
STARTCHAR Ycircumflex
ENCODING 374
SWIDTH 600 0
DWIDTH 8 0
BBX 8 12 1 0
BITMAP
02D0
0920
0000
6009
3018
2470
1890
0E80
0B00
0900
0D00
0C00
ENDCHAR
STARTCHAR ycircumflex
ENCODING 375
SWIDTH 600 0
DWIDTH 8 0
BBX 9 13 -1 -3
BITMAP
002D00
008200
000000
0901C0
060240
060600
030C00
026400
01A000
01D000
018000
070000
790000
ENDCHAR
STARTCHAR Ydieresis
ENCODING 376
SWIDTH 600 0
DWIDTH 8 0
BBX 8 11 1 0
BITMAP
0520
0000
6009
3018
2470
1890
0E80
0B00
0900
0D00
0C00
ENDCHAR
STARTCHAR Zacute
ENCODING 377
SWIDTH 600 0
DWIDTH 8 0
BBX 8 12 0 0
BITMAP
0018
0060
0000
0FFF
0009
0028
00A0
0180
0700
1D00
3400
BFFC
ENDCHAR
STARTCHAR zacute
ENCODING 378
SWIDTH 600 0
DWIDTH 8 0
BBX 8 11 0 0
BITMAP
0018
0074
0090
0000
1FFD
0028
00A0
0280
0A00
2800
7FF8
ENDCHAR
STARTCHAR Zdotaccent
ENCODING 379
SWIDTH 600 0
DWIDTH 8 0
BBX 8 11 0 0
BITMAP
0060
0000
0FFF
0009
0028
00A0
0180
0700
1D00
3400
BFFC
ENDCHAR
STARTCHAR zdotaccent
ENCODING 380
SWIDTH 600 0
DWIDTH 8 0
BBX 8 10 0 0
BITMAP
00A0
00A0
0000
1FFD
0028
00A0
0280
0A00
2800
7FF8
ENDCHAR
STARTCHAR Zcaron
ENCODING 381
SWIDTH 600 0
DWIDTH 8 0
BBX 8 12 0 0
BITMAP
0149
00B4
0000
0FFF
0009
0028
00A0
0180
0700
1D00
3400
BFFC
ENDCHAR
STARTCHAR zcaron
ENCODING 382
SWIDTH 600 0
DWIDTH 8 0
BBX 8 10 0 0
BITMAP
0248
00E4
0000
1FFD
0028
00A0
0280
0A00
2800
7FF8
ENDCHAR
STARTCHAR longs
ENCODING 383
SWIDTH 600 0
DWIDTH 8 0
BBX 8 10 1 0
BITMAP
00BD
0281
0300
7E00
0A00
0900
0C00
0C00
1800
2800
ENDCHAR
STARTCHAR uni0180
ENCODING 384
SWIDTH 600 0
DWIDTH 8 0
BBX 8 10 0 0
BITMAP
0900
2FF4
0C00
19F8
1D1D
2409
2409
300C
7468
6BD0
ENDCHAR
STARTCHAR uni018A
ENCODING 394
SWIDTH 600 0
DWIDTH 8 0
BBX 8 9 0 0
BITMAP
07F8
2A8A
2243
6343
6303
2607
0609
0968
0F90
ENDCHAR
STARTCHAR uni018F
ENCODING 399
SWIDTH 600 0
DWIDTH 8 0
BBX 8 9 0 0
BITMAP
02F8
050A
0006
0007
3FFE
700A
300C
3474
1F90
ENDCHAR
STARTCHAR uni0192
ENCODING 402
SWIDTH 600 0
DWIDTH 8 0
BBX 10 10 -1 -1
BITMAP
0007D0
001C00
002400
02FF00
006000
009000
00C000
018000
034000
7D0000
ENDCHAR
STARTCHAR uni0193
ENCODING 403
SWIDTH 600 0
DWIDTH 8 0
BBX 8 11 1 0
BITMAP
000B
0018
06F8
2D18
7000
9000
C1F8
C024
D030
A070
2F90
ENDCHAR
STARTCHAR Ohorn
ENCODING 416
SWIDTH 600 0
DWIDTH 8 0
BBX 9 11 0 0
BITMAP
000080
000080
02FA40
0E0900
280600
300700
600700
600A00
600D00
347800
1BD000
ENDCHAR
STARTCHAR ohorn
ENCODING 417
SWIDTH 600 0
DWIDTH 8 0
BBX 9 9 0 0
BITMAP
000240
000240
06F900
1D1C00
340900
600900
600C00
347400
1BD000
ENDCHAR
STARTCHAR Uhorn
ENCODING 431
SWIDTH 600 0
DWIDTH 8 0
BBX 9 11 1 0
BITMAP
000080
0001C0
300E40
700C00
601800
902800
D02400
C03400
C07000
E1D000
6F4000
ENDCHAR
STARTCHAR uhorn
ENCODING 432
SWIDTH 600 0
DWIDTH 8 0
BBX 9 9 0 0
BITMAP
000080
0001C0
180740
280900
240D00
300C00
301C00
70A800
2E5400
ENDCHAR
STARTCHAR uni01C2
ENCODING 450
SWIDTH 600 0
DWIDTH 8 0
BBX 7 13 1 -3
BITMAP
01C0
0180
0240
0240
0300
BFF4
0600
0600
FFE0
0C00
0C00
1800
2400
ENDCHAR
STARTCHAR uni01CD
ENCODING 461
SWIDTH 600 0
DWIDTH 8 0
BBX 8 12 0 0
BITMAP
0185
00B8
0000
00B0
01A0
0264
0624
0814
1FF8
3018
A01C
C00C
ENDCHAR
STARTCHAR uni01CE
ENCODING 462
SWIDTH 600 0
DWIDTH 8 0
BBX 8 10 0 0
BITMAP
0145
00A4
0000
06E6
1D1D
2409
300C
701C
3478
1F94
ENDCHAR
STARTCHAR uni01CF
ENCODING 463
SWIDTH 600 0
DWIDTH 8 0
BBX 8 12 0 0
BITMAP
0185
00B8
0000
0BFF
0090
00D0
00C0
0180
0280
0240
0300
7FF4
ENDCHAR
STARTCHAR uni01D0
ENCODING 464
SWIDTH 600 0
DWIDTH 8 0
BBX 6 10 1 0
BITMAP
0820
0780
0000
7F00
0300
0600
0900
0D00
0D00
07D0
ENDCHAR
STARTCHAR uni01D1
ENCODING 465
SWIDTH 600 0
DWIDTH 8 0
BBX 8 12 0 0
BITMAP
0185
00B8
0000
02F8
0E09
2806
3007
6007
600A
600D
3478
1BD0
ENDCHAR
STARTCHAR uni01D2
ENCODING 466
SWIDTH 600 0
DWIDTH 8 0
BBX 8 10 0 0
BITMAP
0249
00E4
0000
06E4
1D1C
3409
6009
600C
3474
1BD0
ENDCHAR
STARTCHAR uni01D3
ENCODING 467
SWIDTH 600 0
DWIDTH 8 0
BBX 7 12 1 0
BITMAP
0614
02E0
0000
300C
700C
6018
9028
D024
C030
C060
E1D0
6F40
ENDCHAR
STARTCHAR uni01D4
ENCODING 468
SWIDTH 600 0
DWIDTH 8 0
BBX 8 10 0 0
BITMAP
0249
00E4
0000
1806
2809
240D
300C
3018
70A8
2E54
ENDCHAR
STARTCHAR uni01D5
ENCODING 469
SWIDTH 600 0
DWIDTH 8 0
BBX 7 13 1 0
BITMAP
03F8
0000
0620
0000
300C
700C
6018
9028
D024
C030
C060
E1D0
6F40
ENDCHAR
STARTCHAR uni01D6
ENCODING 470
SWIDTH 600 0
DWIDTH 8 0
BBX 8 11 0 0
BITMAP
01FD
0000
0248
0000
1806
2809
240D
300C
3018
70A8
2E54
ENDCHAR
STARTCHAR uni01D7
ENCODING 471
SWIDTH 600 0
DWIDTH 8 0
BBX 7 14 1 0
BITMAP
0020
0090
0000
0620
0000
300C
700C
6018
9028
D024
C030
C060
E1D0
6F40
ENDCHAR
STARTCHAR uni01D8
ENCODING 472
SWIDTH 600 0
DWIDTH 8 0
BBX 8 12 0 0
BITMAP
0008
0020
0000
0248
0000
1806
2809
240D
300C
3018
70A8
2E54
ENDCHAR
STARTCHAR uni01D9
ENCODING 473
SWIDTH 600 0
DWIDTH 8 0
BBX 7 14 1 0
BITMAP
0214
01E0
0000
0620
0000
300C
700C
6018
9028
D024
C030
C060
E1D0
6F40
ENDCHAR
STARTCHAR uni01DA
ENCODING 474
SWIDTH 600 0
DWIDTH 8 0
BBX 8 12 0 0
BITMAP
0089
00B4
0000
0248
0000
1806
2809
240D
300C
3018
70A8
2E54
ENDCHAR
STARTCHAR uni01DB
ENCODING 475
SWIDTH 600 0
DWIDTH 8 0
BBX 7 14 1 0
BITMAP
0140
0080
0000
0620
0000
300C
700C
6018
9028
D024
C030
C060
E1D0
6F40
ENDCHAR
STARTCHAR uni01DC
ENCODING 476
SWIDTH 600 0
DWIDTH 8 0
BBX 8 12 0 0
BITMAP
0050
0020
0000
0248
0000
1806
2809
240D
300C
3018
70A8
2E54
ENDCHAR
STARTCHAR uni01E2
ENCODING 482
SWIDTH 600 0
DWIDTH 8 0
BBX 10 11 -1 0
BITMAP
000BE0
000000
002FF0
006C00
009C00
015800
022F80
0BF400
183000
303000
A07F40
ENDCHAR
STARTCHAR uni01E3
ENCODING 483
SWIDTH 600 0
DWIDTH 8 0
BBX 10 9 -1 0
BITMAP
00BF00
000000
0BDB80
047490
006590
1BFA80
349000
61E100
2E2E40
ENDCHAR
STARTCHAR Gcaron
ENCODING 486
SWIDTH 600 0
DWIDTH 8 0
BBX 7 12 1 0
BITMAP
0218
01E0
0000
06E4
2D18
7000
9000
C1F8
C024
D030
A070
2F90
ENDCHAR
STARTCHAR gcaron
ENCODING 487
SWIDTH 600 0
DWIDTH 8 0
BBX 8 13 0 -3
BITMAP
0145
00A4
0000
06E6
1D1D
2409
300C
701C
3478
1BA4
0024
50A0
6F80
ENDCHAR
STARTCHAR uni01EA
ENCODING 490
SWIDTH 600 0
DWIDTH 8 0
BBX 8 12 0 -3
BITMAP
02F8
0D09
2806
3007
6006
600A
600D
3478
1BD0
0500
1800
0F00
ENDCHAR
STARTCHAR uni01EB
ENCODING 491
SWIDTH 600 0
DWIDTH 8 0
BBX 8 10 0 -3
BITMAP
06E4
1D1C
3409
6009
600C
3478
1FD0
0500
1800
0F00
ENDCHAR
STARTCHAR uni01F4
ENCODING 500
SWIDTH 600 0
DWIDTH 8 0
BBX 7 12 1 0
BITMAP
0024
0090
0000
06E4
2D18
7000
9000
C1F8
C024
D030
A070
2F90
ENDCHAR
STARTCHAR uni01F5
ENCODING 501
SWIDTH 600 0
DWIDTH 8 0
BBX 8 14 0 -3
BITMAP
0008
0028
0050
0000
06E6
1D1D
2409
300C
701C
3478
1BA4
0024
50A0
6F80
ENDCHAR
STARTCHAR uni01F8
ENCODING 504
SWIDTH 600 0
DWIDTH 8 0
BBX 8 12 0 0
BITMAP
0080
0060
0000
0D03
0E03
1B06
2649
2589
30CC
309C
6078
9034
ENDCHAR
STARTCHAR uni01F9
ENCODING 505
SWIDTH 600 0
DWIDTH 8 0
BBX 8 11 0 0
BITMAP
0080
00A0
0020
0000
19B8
1E0D
2809
240C
300C
7018
6028
ENDCHAR
STARTCHAR Aringacute
ENCODING 506
SWIDTH 600 0
DWIDTH 8 0
BBX 7 14 0 0
BITMAP
0004
0018
0088
00B4
0000
00B0
01A0
0264
0624
0814
1FF8
3018
A01C
C00C
ENDCHAR
STARTCHAR aringacute
ENCODING 507
SWIDTH 600 0
DWIDTH 8 0
BBX 8 12 0 0
BITMAP
0018
00B8
0088
00B4
0000
06E6
1D1D
2409
300C
701C
3478
1F94
ENDCHAR
STARTCHAR AEacute
ENCODING 508
SWIDTH 600 0
DWIDTH 8 0
BBX 10 12 -1 0
BITMAP
000060
000280
000000
002FF0
006C00
009C00
015800
022F80
0BF400
183000
303000
A07F40
ENDCHAR
STARTCHAR aeacute
ENCODING 509
SWIDTH 600 0
DWIDTH 8 0
BBX 10 11 -1 0
BITMAP
000200
000D00
002400
000000
0BDB80
047490
006590
1BFA80
349000
61E100
2E2E40
ENDCHAR
STARTCHAR Oslashacute
ENCODING 510
SWIDTH 600 0
DWIDTH 8 0
BBX 9 12 0 0
BITMAP
000800
006400
000000
02FA40
0D0E00
281A00
306700
618700
660A00
7C0D00
747800
9BD000
ENDCHAR
STARTCHAR oslashacute
ENCODING 511
SWIDTH 600 0
DWIDTH 8 0
BBX 8 11 0 0
BITMAP
0008
0034
0090
0000
06EA
1D2C
34A9
6289
6A0C
3874
ABD0
ENDCHAR
STARTCHAR uni0218
ENCODING 536
SWIDTH 600 0
DWIDTH 8 0
BBX 8 12 0 -3
BITMAP
02F4
0A09
0C00
0A40
01E0
0028
0018
7464
1BD0
0000
0740
0E00
ENDCHAR
STARTCHAR uni0219
ENCODING 537
SWIDTH 600 0
DWIDTH 8 0
BBX 6 10 1 -3
BITMAP
1F90
3060
3400
1B80
00A0
90A0
6F80
0000
1D00
3800
ENDCHAR
STARTCHAR uni021A
ENCODING 538
SWIDTH 600 0
DWIDTH 8 0
BBX 8 12 1 -3
BITMAP
BFFE
0240
0340
0300
0600
0A00
0900
0C00
0C00
0000
2800
7800
ENDCHAR
STARTCHAR uni021B
ENCODING 539
SWIDTH 600 0
DWIDTH 8 0
BBX 7 12 1 -3
BITMAP
0600
0900
FFF8
0C00
1800
2800
2400
2810
1F90
0000
0A00
1E00
ENDCHAR
STARTCHAR uni0237
ENCODING 567
SWIDTH 600 0
DWIDTH 8 0
BBX 6 10 0 -3
BITMAP
0FF0
0030
0060
00A0
0090
00C0
00C0
0180
4740
BD00
ENDCHAR
STARTCHAR uni0243
ENCODING 579
SWIDTH 600 0
DWIDTH 8 0
BBX 8 9 0 0
BITMAP
0BF8
0D0A
0C0A
1C1C
1FF4
241C
FF4D
301C
7FE0
ENDCHAR
STARTCHAR uni0250
ENCODING 592
SWIDTH 600 0
DWIDTH 8 0
BBX 7 7 1 0
BITMAP
66E0
7824
9170
FE40
C000
D190
7E40
ENDCHAR
STARTCHAR uni0251
ENCODING 593
SWIDTH 600 0
DWIDTH 8 0
BBX 8 7 0 0
BITMAP
06E6
1D1D
2409
300C
701C
3478
1F94
ENDCHAR
STARTCHAR uni0252
ENCODING 594
SWIDTH 600 0
DWIDTH 8 0
BBX 8 7 0 0
BITMAP
19F8
1D1D
2409
2409
300C
7468
6BD0
ENDCHAR
STARTCHAR uni0253
ENCODING 595
SWIDTH 600 0
DWIDTH 8 0
BBX 8 10 0 0
BITMAP
02F0
0A00
0C00
19F8
1D1D
2409
2409
300C
7468
6BD0
ENDCHAR
STARTCHAR uni0254
ENCODING 596
SWIDTH 600 0
DWIDTH 8 0
BBX 7 7 0 0
BITMAP
0BE0
1428
000C
000C
001C
6074
2F90
ENDCHAR
STARTCHAR uni0255
ENCODING 597
SWIDTH 600 0
DWIDTH 8 0
BBX 8 8 0 -1
BITMAP
02F8
0D09
2400
3000
31F8
2E58
2BE4
6000
ENDCHAR
STARTCHAR uni0256
ENCODING 598
SWIDTH 600 0
DWIDTH 8 0
BBX 9 13 0 -3
BITMAP
000240
000300
000700
06EA00
1D1E00
240900
300C00
701C00
347800
1FA800
002400
003400
002D00
ENDCHAR
STARTCHAR uni0257
ENCODING 599
SWIDTH 600 0
DWIDTH 8 0
BBX 10 10 0 0
BITMAP
0001E0
000340
000300
06E600
1D1E00
240900
300C00
701C00
347800
1F9400
ENDCHAR
STARTCHAR uni0258
ENCODING 600
SWIDTH 600 0
DWIDTH 8 0
BBX 7 7 1 0
BITMAP
1B90
7470
9024
FFF4
0030
9190
7F40
ENDCHAR
STARTCHAR uni0259
ENCODING 601
SWIDTH 600 0
DWIDTH 8 0
BBX 8 7 0 0
BITMAP
06F4
081D
0009
3FFD
600C
3464
1FD0
ENDCHAR
STARTCHAR uni025A
ENCODING 602
SWIDTH 600 0
DWIDTH 8 0
BBX 9 7 0 0
BITMAP
1B8000
10A500
01BA00
1AA380
D09000
D1C000
7E0000
ENDCHAR
STARTCHAR uni025B
ENCODING 603
SWIDTH 600 0
DWIDTH 8 0
BBX 8 7 0 0
BITMAP
06F4
0D09
0C00
0BD0
3400
7414
1FE0
ENDCHAR
STARTCHAR uni025C
ENCODING 604
SWIDTH 600 0
DWIDTH 8 0
BBX 6 7 1 0
BITMAP
2FD0
1070
0070
0FC0
00A0
90A0
6F80
ENDCHAR
STARTCHAR uni025E
ENCODING 606
SWIDTH 600 0
DWIDTH 8 0
BBX 8 7 0 0
BITMAP
06F8
1D1D
341C
71F4
701C
3828
1BE0
ENDCHAR
STARTCHAR uni025F
ENCODING 607
SWIDTH 600 0
DWIDTH 8 0
BBX 8 10 0 -3
BITMAP
0FF0
0030
0060
1FFE
0090
00C0
00C0
0180
4740
BD00
ENDCHAR
STARTCHAR uni0260
ENCODING 608
SWIDTH 600 0
DWIDTH 8 0
BBX 10 12 0 -3
BITMAP
0001D0
000300
06E600
1D1D00
240900
300C00
701C00
347800
1FA400
002400
50A000
6F8000
ENDCHAR
STARTCHAR uni0261
ENCODING 609
SWIDTH 600 0
DWIDTH 8 0
BBX 8 10 0 -3
BITMAP
06E6
1D1D
2409
300C
701C
3478
1BA4
0024
50A0
6F80
ENDCHAR
STARTCHAR uni0262
ENCODING 610
SWIDTH 600 0
DWIDTH 8 0
BBX 7 7 1 0
BITMAP
0BE0
7424
9000
C2F0
C030
A060
2F90
ENDCHAR
STARTCHAR uni0263
ENCODING 611
SWIDTH 600 0
DWIDTH 8 0
BBX 7 10 1 -3
BITMAP
9018
6034
30A0
30C0
2640
1E00
1D00
2600
6600
7800
ENDCHAR
STARTCHAR uni0264
ENCODING 612
SWIDTH 600 0
DWIDTH 8 0
BBX 7 7 1 0
BITMAP
78B8
0B80
1E80
30C0
60C0
A1C0
7E00
ENDCHAR
STARTCHAR uni0265
ENCODING 613
SWIDTH 600 0
DWIDTH 8 0
BBX 8 10 0 -3
BITMAP
1806
2809
240D
300C
3018
70B8
2E64
0034
0030
0070
ENDCHAR
STARTCHAR uni0266
ENCODING 614
SWIDTH 600 0
DWIDTH 8 0
BBX 8 10 0 0
BITMAP
02F0
0A00
0C00
1DB8
1E0D
2809
240C
300C
7018
6028
ENDCHAR
STARTCHAR uni0267
ENCODING 615
SWIDTH 600 0
DWIDTH 8 0
BBX 8 13 0 -3
BITMAP
02F0
0A00
0C00
1DB8
1E0D
2809
240D
300C
7018
6018
0024
0030
02E0
ENDCHAR
STARTCHAR uni0268
ENCODING 616
SWIDTH 600 0
DWIDTH 8 0
BBX 6 10 1 0
BITMAP
0280
0280
0000
7F00
0300
0600
BFE0
0900
0D00
07D0
ENDCHAR
STARTCHAR uni026A
ENCODING 618
SWIDTH 600 0
DWIDTH 8 0
BBX 8 7 0 0
BITMAP
1FFD
00C0
0180
0280
0240
0340
7FF4
ENDCHAR
STARTCHAR uni026B
ENCODING 619
SWIDTH 600 0
DWIDTH 8 0
BBX 6 10 1 0
BITMAP
3F40
0300
0300
1610
7F60
9BC0
0C00
0C00
1C00
0BD0
ENDCHAR
STARTCHAR uni026C
ENCODING 620
SWIDTH 600 0
DWIDTH 8 0
BBX 6 10 1 0
BITMAP
3F40
0300
0300
BA00
9A00
7FD0
0C00
0C00
1C00
0BD0
ENDCHAR
STARTCHAR uni026D
ENCODING 621
SWIDTH 600 0
DWIDTH 8 0
BBX 4 13 2 -3
BITMAP
FD
0C
0C
18
18
24
30
30
60
A0
90
A1
7E
ENDCHAR
STARTCHAR uni026E
ENCODING 622
SWIDTH 600 0
DWIDTH 8 0
BBX 8 13 0 -3
BITMAP
0900
0C00
1C00
1FFF
2409
2424
3090
72F4
601C
900C
001C
1464
0BD0
ENDCHAR
STARTCHAR uni026F
ENCODING 623
SWIDTH 600 0
DWIDTH 8 0
BBX 8 7 0 0
BITMAP
34C3
30C7
6186
6249
9249
975C
B6DC
ENDCHAR
STARTCHAR uni0270
ENCODING 624
SWIDTH 600 0
DWIDTH 8 0
BBX 8 10 0 -3
BITMAP
34C3
30C6
6186
6249
924D
975C
B6D8
0018
0024
0024
ENDCHAR
STARTCHAR uni0271
ENCODING 625
SWIDTH 600 0
DWIDTH 8 0
BBX 8 10 0 -3
BITMAP
279E
38D7
30C6
6186
A249
924D
C30C
0018
0028
00B0
ENDCHAR
STARTCHAR uni0272
ENCODING 626
SWIDTH 600 0
DWIDTH 8 0
BBX 9 10 -1 -3
BITMAP
066E00
078340
0A0240
090300
0C0300
1C0600
180A00
280000
340000
E00000
ENDCHAR
STARTCHAR uni0273
ENCODING 627
SWIDTH 600 0
DWIDTH 8 0
BBX 8 10 0 -3
BITMAP
19B8
1E0D
2809
240D
300C
7018
6018
0024
0024
002D
ENDCHAR
STARTCHAR uni0274
ENCODING 628
SWIDTH 600 0
DWIDTH 8 0
BBX 8 7 0 0
BITMAP
0D09
1E0C
1B1C
2698
24E4
30B4
7070
ENDCHAR
STARTCHAR uni0275
ENCODING 629
SWIDTH 600 0
DWIDTH 8 0
BBX 8 7 0 0
BITMAP
06E4
1D1C
3009
7FFD
600C
3464
1BD0
ENDCHAR
STARTCHAR uni0276
ENCODING 630
SWIDTH 600 0
DWIDTH 8 0
BBX 9 7 0 0
BITMAP
0BFF80
346000
A09000
D0BE00
D0C000
A18000
2FFE00
ENDCHAR
STARTCHAR uni0278
ENCODING 632
SWIDTH 600 0
DWIDTH 8 0
BBX 8 13 0 -3
BITMAP
0070
0060
0090
06F4
29DD
61C6
9286
A249
776C
1FE0
0600
0A00
0900
ENDCHAR
STARTCHAR uni0279
ENCODING 633
SWIDTH 600 0
DWIDTH 8 0
BBX 7 7 0 0
BITMAP
0018
0018
0024
0024
0070
02A0
7D60
ENDCHAR
STARTCHAR uni027A
ENCODING 634
SWIDTH 600 0
DWIDTH 8 0
BBX 8 10 0 0
BITMAP
000A
0009
000C
001C
0018
0024
0024
0070
02B0
7D60
ENDCHAR
STARTCHAR uni027B
ENCODING 635
SWIDTH 600 0
DWIDTH 8 0
BBX 6 10 0 -3
BITMAP
0060
0060
0090
00D0
00C0
02C0
7980
0140
0240
01E0
ENDCHAR
STARTCHAR uni027D
ENCODING 637
SWIDTH 600 0
DWIDTH 8 0
BBX 7 10 1 -3
BITMAP
19B8
2A40
2800
3000
3000
6000
A000
9000
A100
7E00
ENDCHAR
STARTCHAR uni027E
ENCODING 638
SWIDTH 600 0
DWIDTH 8 0
BBX 7 7 1 0
BITMAP
06F4
1D00
2400
3000
3000
6000
A000
ENDCHAR
STARTCHAR uni0280
ENCODING 640
SWIDTH 600 0
DWIDTH 8 0
BBX 6 7 1 0
BITMAP
2FE0
3070
3070
7F90
A240
91C0
C0D0
ENDCHAR
STARTCHAR uni0281
ENCODING 641
SWIDTH 600 0
DWIDTH 8 0
BBX 6 7 1 0
BITMAP
3030
2470
1860
2FD0
9090
D0C0
BFC0
ENDCHAR
STARTCHAR uni0282
ENCODING 642
SWIDTH 600 0
DWIDTH 8 0
BBX 7 10 0 -3
BITMAP
07E4
0C18
0D00
06E0
0028
2428
6BE0
9000
9000
7800
ENDCHAR
STARTCHAR uni0283
ENCODING 643
SWIDTH 600 0
DWIDTH 8 0
BBX 9 13 0 -3
BITMAP
002F40
007040
00A000
009000
00C000
01C000
018000
028000
024000
030000
070000
4A0000
B80000
ENDCHAR
STARTCHAR uni0284
ENCODING 644
SWIDTH 600 0
DWIDTH 8 0
BBX 9 13 0 -3
BITMAP
002F40
007040
00A000
009000
00C000
01C000
2FFC00
028000
024000
030000
070000
4A0000
B80000
ENDCHAR
STARTCHAR uni0287
ENCODING 647
SWIDTH 600 0
DWIDTH 8 0
BBX 7 9 0 -2
BITMAP
1BD0
0460
0060
0060
0090
00D0
7FFC
0180
0140
ENDCHAR
STARTCHAR uni0288
ENCODING 648
SWIDTH 600 0
DWIDTH 8 0
BBX 7 12 1 -3
BITMAP
0600
0900
FFF8
0C00
1800
1800
2400
3400
3000
7000
3440
2F80
ENDCHAR
STARTCHAR uni0289
ENCODING 649
SWIDTH 600 0
DWIDTH 8 0
BBX 8 7 0 0
BITMAP
0C0D
180C
BFFF
2428
2424
24B4
1E70
ENDCHAR
STARTCHAR uni028A
ENCODING 650
SWIDTH 600 0
DWIDTH 8 0
BBX 7 7 1 0
BITMAP
BCB8
2460
9030
C030
C060
D1D0
7E40
ENDCHAR
STARTCHAR uni028B
ENCODING 651
SWIDTH 600 0
DWIDTH 8 0
BBX 7 7 1 0
BITMAP
60E0
A034
9024
C034
C060
D1D0
7E40
ENDCHAR
STARTCHAR uni028C
ENCODING 652
SWIDTH 600 0
DWIDTH 8 0
BBX 7 7 0 0
BITMAP
01D0
0260
0630
0C30
2824
3018
9018
ENDCHAR
STARTCHAR uni028D
ENCODING 653
SWIDTH 600 0
DWIDTH 8 0
BBX 9 7 -1 0
BITMAP
038740
068A40
098A40
18A640
24A240
30E240
608240
ENDCHAR
STARTCHAR uni028E
ENCODING 654
SWIDTH 600 0
DWIDTH 8 0
BBX 9 10 0 0
BITMAP
000B80
002800
006000
00D000
02A000
066000
093000
182400
301800
901800
ENDCHAR
STARTCHAR uni028F
ENCODING 655
SWIDTH 600 0
DWIDTH 8 0
BBX 7 7 1 0
BITMAP
7024
3460
29C0
0E40
0900
0D00
0C00
ENDCHAR
STARTCHAR uni0290
ENCODING 656
SWIDTH 600 0
DWIDTH 8 0
BBX 8 10 0 -3
BITMAP
1FFD
0028
00A0
0280
0A00
2800
7FF8
0024
0024
001D
ENDCHAR
STARTCHAR uni0291
ENCODING 657
SWIDTH 600 0
DWIDTH 8 0
BBX 8 9 0 -2
BITMAP
1FFD
0028
00A0
0280
091E
2866
7FF9
0140
0200
ENDCHAR
STARTCHAR uni0292
ENCODING 658
SWIDTH 600 0
DWIDTH 8 0
BBX 8 10 0 -3
BITMAP
0FFD
0024
0090
0640
0FE0
0074
0024
0034
90A0
6F40
ENDCHAR
STARTCHAR uni0294
ENCODING 660
SWIDTH 600 0
DWIDTH 8 0
BBX 6 10 2 0
BITMAP
6F80
9090
00A0
0090
0280
1900
3400
3000
6000
6000
ENDCHAR
STARTCHAR uni0295
ENCODING 661
SWIDTH 600 0
DWIDTH 8 0
BBX 6 10 2 0
BITMAP
1F80
A460
D000
D000
A000
2800
1C00
1800
2400
2400
ENDCHAR
STARTCHAR uni0298
ENCODING 664
SWIDTH 600 0
DWIDTH 8 0
BBX 7 10 1 0
BITMAP
07E0
2824
7018
A018
D718
C724
C034
C060
A1D0
2E40
ENDCHAR
STARTCHAR uni0299
ENCODING 665
SWIDTH 600 0
DWIDTH 8 0
BBX 6 7 1 0
BITMAP
3FE0
3030
7070
7FD0
A060
90A0
FF80
ENDCHAR
STARTCHAR uni029C
ENCODING 668
SWIDTH 600 0
DWIDTH 8 0
BBX 8 7 0 0
BITMAP
1809
1809
240C
3FFC
3018
7028
6024
ENDCHAR
STARTCHAR uni029D
ENCODING 669
SWIDTH 600 0
DWIDTH 8 0
BBX 7 14 0 -4
BITMAP
0028
0028
0000
0FF0
0030
0060
00A0
0090
00C0
00C0
7E80
D780
BDC0
0090
ENDCHAR
STARTCHAR uni029E
ENCODING 670
SWIDTH 600 0
DWIDTH 8 0
BBX 8 10 0 -3
BITMAP
2409
1C0C
091C
07A8
0768
1C24
6034
0030
0060
0060
ENDCHAR
STARTCHAR uni029F
ENCODING 671
SWIDTH 600 0
DWIDTH 8 0
BBX 6 7 1 0
BITMAP
1800
1800
2400
3400
3000
6000
7FE0
ENDCHAR
STARTCHAR uni02A1
ENCODING 673
SWIDTH 600 0
DWIDTH 8 0
BBX 7 10 1 0
BITMAP
1BE0
2434
0028
0024
0060
0280
BFF0
0C00
1C00
1800
ENDCHAR
STARTCHAR uni02A2
ENCODING 674
SWIDTH 600 0
DWIDTH 8 0
BBX 7 10 1 0
BITMAP
07E0
1918
3400
3400
2800
0900
BFF0
0600
0A00
0900
ENDCHAR
STARTCHAR uni02A4
ENCODING 676
SWIDTH 600 0
DWIDTH 8 0
BBX 10 13 -1 -3
BITMAP
001800
001800
002400
07AFF0
1C7090
346180
306600
709F80
31C1C0
2EC0C0
0001C0
005240
007D00
ENDCHAR
STARTCHAR uni02A6
ENCODING 678
SWIDTH 600 0
DWIDTH 8 0
BBX 8 9 0 0
BITMAP
0900
0C00
7FFE
18A1
2460
242C
3009
341D
1FE4
ENDCHAR
STARTCHAR uni02A7
ENCODING 679
SWIDTH 600 0
DWIDTH 8 0
BBX 9 13 1 -3
BITMAP
000B40
081800
182400
BFF400
343000
306000
60A000
A09000
A0D000
7CC000
018000
028000
1E0000
ENDCHAR
STARTCHAR h.sups
ENCODING 688
SWIDTH 600 0
DWIDTH 8 0
BBX 6 7 2 5
BITMAP
0800
1800
2BC0
2490
3080
2080
5080
ENDCHAR
STARTCHAR j.sups
ENCODING 690
SWIDTH 600 0
DWIDTH 8 0
BBX 5 9 2 3
BITMAP
0180
0000
2F00
0200
0200
0600
0500
4800
B400
ENDCHAR
STARTCHAR r.sups
ENCODING 691
SWIDTH 600 0
DWIDTH 8 0
BBX 5 5 3 5
BITMAP
2B40
3400
6000
5000
9000
ENDCHAR
STARTCHAR w.sups
ENCODING 695
SWIDTH 600 0
DWIDTH 8 0
BBX 6 5 2 5
BITMAP
8620
8A20
9A50
A280
A240
ENDCHAR
STARTCHAR y.sups
ENCODING 696
SWIDTH 600 0
DWIDTH 8 0
BBX 6 7 2 3
BITMAP
2090
2580
1640
1A00
0C00
1800
E000
ENDCHAR
STARTCHAR uni02B9
ENCODING 697
SWIDTH 600 0
DWIDTH 8 0
BBX 2 4 4 6
BITMAP
30
60
90
80
ENDCHAR
STARTCHAR uni02BB
ENCODING 699
SWIDTH 600 0
DWIDTH 8 0
BBX 4 5 3 5
BITMAP
06
28
70
78
78
ENDCHAR
STARTCHAR uni02BC
ENCODING 700
SWIDTH 600 0
DWIDTH 8 0
BBX 4 5 3 5
BITMAP
2C
2D
0C
64
90
ENDCHAR
STARTCHAR uni02BE
ENCODING 702
SWIDTH 600 0
DWIDTH 8 0
BBX 3 5 4 7
BITMAP
A0
24
24
60
40
ENDCHAR
STARTCHAR uni02BF
ENCODING 703
SWIDTH 600 0
DWIDTH 8 0
BBX 3 5 4 7
BITMAP
04
64
C0
D0
74
ENDCHAR
STARTCHAR uni02C1
ENCODING 705
SWIDTH 600 0
DWIDTH 8 0
BBX 5 6 3 6
BITMAP
2E00
6140
9000
6000
1400
1400
ENDCHAR
STARTCHAR circumflex
ENCODING 710
SWIDTH 600 0
DWIDTH 8 0
BBX 4 2 3 8
BITMAP
2D
92
ENDCHAR
STARTCHAR caron
ENCODING 711
SWIDTH 600 0
DWIDTH 8 0
BBX 5 2 3 8
BITMAP
9240
3900
ENDCHAR
STARTCHAR uni02C8
ENCODING 712
SWIDTH 600 0
DWIDTH 8 0
BBX 2 5 4 5
BITMAP
70
A0
90
80
40
ENDCHAR
STARTCHAR uni02C9
ENCODING 713
SWIDTH 600 0
DWIDTH 8 0
BBX 4 1 3 8
BITMAP
BF
ENDCHAR
STARTCHAR uni02CA
ENCODING 714
SWIDTH 600 0
DWIDTH 8 0
BBX 3 3 4 8
BITMAP
08
34
90
ENDCHAR
STARTCHAR uni02CB
ENCODING 715
SWIDTH 600 0
DWIDTH 8 0
BBX 2 3 4 8
BITMAP
80
90
20
ENDCHAR
STARTCHAR uni02CC
ENCODING 716
SWIDTH 600 0
DWIDTH 8 0
BBX 2 4 2 -3
BITMAP
20
60
A0
D0
ENDCHAR
STARTCHAR uni02D0
ENCODING 720
SWIDTH 600 0
DWIDTH 8 0
BBX 4 7 2 0
BITMAP
1D
08
00
00
00
20
74
ENDCHAR
STARTCHAR uni02D1
ENCODING 721
SWIDTH 600 0
DWIDTH 8 0
BBX 3 2 3 5
BITMAP
74
20
ENDCHAR
STARTCHAR breve
ENCODING 728
SWIDTH 600 0
DWIDTH 8 0
BBX 5 2 3 8
BITMAP
9240
7D00
ENDCHAR
STARTCHAR dotaccent
ENCODING 729
SWIDTH 600 0
DWIDTH 8 0
BBX 2 2 4 8
BITMAP
B0
A0
ENDCHAR
STARTCHAR ring
ENCODING 730
SWIDTH 600 0
DWIDTH 8 0
BBX 4 4 3 8
BITMAP
2D
66
66
38
ENDCHAR
STARTCHAR ogonek
ENCODING 731
SWIDTH 600 0
DWIDTH 8 0
BBX 2 3 2 -3
BITMAP
50
80
F0
ENDCHAR
STARTCHAR tilde
ENCODING 732
SWIDTH 600 0
DWIDTH 8 0
BBX 6 2 2 8
BITMAP
2960
62C0
ENDCHAR
STARTCHAR hungarumlaut
ENCODING 733
SWIDTH 600 0
DWIDTH 8 0
BBX 4 3 4 8
BITMAP
22
99
88
ENDCHAR
STARTCHAR uni02DE
ENCODING 734
SWIDTH 600 0
DWIDTH 8 0
BBX 3 3 3 3
BITMAP
20
A4
1C
ENDCHAR
STARTCHAR uni02E0
ENCODING 736
SWIDTH 600 0
DWIDTH 8 0
BBX 5 7 3 3
BITMAP
8140
8200
5900
3800
2400
9400
B000
ENDCHAR
STARTCHAR l.sups
ENCODING 737
SWIDTH 600 0
DWIDTH 8 0
BBX 3 7 4 5
BITMAP
B0
20
20
50
90
80
B4
ENDCHAR
STARTCHAR s.sups
ENCODING 738
SWIDTH 600 0
DWIDTH 8 0
BBX 4 5 3 5
BITMAP
7D
91
14
49
B8
ENDCHAR
STARTCHAR x.sups
ENCODING 739
SWIDTH 600 0
DWIDTH 8 0
BBX 5 5 2 5
BITMAP
1480
0A00
0A00
2600
5140
ENDCHAR
STARTCHAR uni02E4
ENCODING 740
SWIDTH 600 0
DWIDTH 8 0
BBX 5 7 3 5
BITMAP
2E00
6140
9000
6000
1400
2400
2000
ENDCHAR
STARTCHAR uni0300
ENCODING 768
SWIDTH 600 0
DWIDTH 8 0
BBX 2 3 4 8
BITMAP
80
90
20
ENDCHAR
STARTCHAR uni0301
ENCODING 769
SWIDTH 600 0
DWIDTH 8 0
BBX 3 3 4 8
BITMAP
08
34
90
ENDCHAR
STARTCHAR uni0302
ENCODING 770
SWIDTH 600 0
DWIDTH 8 0
BBX 4 2 3 8
BITMAP
2D
92
ENDCHAR
STARTCHAR uni0303
ENCODING 771
SWIDTH 600 0
DWIDTH 8 0
BBX 6 2 2 8
BITMAP
2960
62C0
ENDCHAR
STARTCHAR uni0304
ENCODING 772
SWIDTH 600 0
DWIDTH 8 0
BBX 4 1 3 8
BITMAP
BF
ENDCHAR
STARTCHAR uni0305
ENCODING 773
SWIDTH 600 0
DWIDTH 8 0
BBX 4 1 3 8
BITMAP
BF
ENDCHAR
STARTCHAR uni0306
ENCODING 774
SWIDTH 600 0
DWIDTH 8 0
BBX 5 2 3 8
BITMAP
9240
7D00
ENDCHAR
STARTCHAR uni0307
ENCODING 775
SWIDTH 600 0
DWIDTH 8 0
BBX 2 2 4 8
BITMAP
B0
A0
ENDCHAR
STARTCHAR uni0308
ENCODING 776
SWIDTH 600 0
DWIDTH 8 0
BBX 4 1 3 8
BITMAP
93
ENDCHAR
STARTCHAR uni0309
ENCODING 777
SWIDTH 600 0
DWIDTH 8 0
BBX 3 3 4 8
BITMAP
A0
24
60
ENDCHAR
STARTCHAR uni030A
ENCODING 778
SWIDTH 600 0
DWIDTH 8 0
BBX 4 4 3 8
BITMAP
2D
66
66
38
ENDCHAR
STARTCHAR uni030B
ENCODING 779
SWIDTH 600 0
DWIDTH 8 0
BBX 4 3 4 8
BITMAP
22
99
88
ENDCHAR
STARTCHAR uni030C
ENCODING 780
SWIDTH 600 0
DWIDTH 8 0
BBX 5 2 3 8
BITMAP
9240
3900
ENDCHAR
STARTCHAR uni030F
ENCODING 783
SWIDTH 600 0
DWIDTH 8 0
BBX 4 3 2 8
BITMAP
56
22
22
ENDCHAR
STARTCHAR uni0310
ENCODING 784
SWIDTH 600 0
DWIDTH 8 0
BBX 5 4 3 8
BITMAP
0800
1C00
8640
7E00
ENDCHAR
STARTCHAR uni0311
ENCODING 785
SWIDTH 600 0
DWIDTH 8 0
BBX 4 2 3 8
BITMAP
6E
82
ENDCHAR
STARTCHAR uni0312
ENCODING 786
SWIDTH 600 0
DWIDTH 8 0
BBX 2 2 4 8
BITMAP
50
90
ENDCHAR
STARTCHAR uni0313
ENCODING 787
SWIDTH 600 0
DWIDTH 8 0
BBX 2 2 4 8
BITMAP
70
50
ENDCHAR
STARTCHAR uni0318
ENCODING 792
SWIDTH 600 0
DWIDTH 8 0
BBX 3 3 2 -4
BITMAP
14
F0
20
ENDCHAR
STARTCHAR uni0319
ENCODING 793
SWIDTH 600 0
DWIDTH 8 0
BBX 3 3 1 -4
BITMAP
20
7C
50
ENDCHAR
STARTCHAR uni031A
ENCODING 794
SWIDTH 600 0
DWIDTH 8 0
BBX 3 3 4 7
BITMAP
7C
08
04
ENDCHAR
STARTCHAR uni031B
ENCODING 795
SWIDTH 600 0
DWIDTH 8 0
BBX 3 3 4 6
BITMAP
08
18
64
ENDCHAR
STARTCHAR uni031C
ENCODING 796
SWIDTH 600 0
DWIDTH 8 0
BBX 2 3 2 -4
BITMAP
A0
80
90
ENDCHAR
STARTCHAR uni031D
ENCODING 797
SWIDTH 600 0
DWIDTH 8 0
BBX 3 2 1 -3
BITMAP
14
BC
ENDCHAR
STARTCHAR uni031E
ENCODING 798
SWIDTH 600 0
DWIDTH 8 0
BBX 4 2 1 -3
BITMAP
7D
20
ENDCHAR
STARTCHAR uni031F
ENCODING 799
SWIDTH 600 0
DWIDTH 8 0
BBX 4 3 1 -4
BITMAP
14
7D
20
ENDCHAR
STARTCHAR uni0320
ENCODING 800
SWIDTH 600 0
DWIDTH 8 0
BBX 4 1 1 -3
BITMAP
7D
ENDCHAR
STARTCHAR uni0323
ENCODING 803
SWIDTH 600 0
DWIDTH 8 0
BBX 2 2 2 -4
BITMAP
A0
A0
ENDCHAR
STARTCHAR uni0324
ENCODING 804
SWIDTH 600 0
DWIDTH 8 0
BBX 4 1 1 -3
BITMAP
86
ENDCHAR
STARTCHAR uni0325
ENCODING 805
SWIDTH 600 0
DWIDTH 8 0
BBX 4 4 1 -3
BITMAP
2C
55
99
78
ENDCHAR
STARTCHAR uni0326
ENCODING 806
SWIDTH 600 0
DWIDTH 8 0
BBX 3 2 1 -3
BITMAP
28
78
ENDCHAR
STARTCHAR uni0327
ENCODING 807
SWIDTH 600 0
DWIDTH 8 0
BBX 3 4 1 -4
BITMAP
14
28
1C
A4
ENDCHAR
STARTCHAR uni0328
ENCODING 808
SWIDTH 600 0
DWIDTH 8 0
BBX 2 3 2 -3
BITMAP
50
80
F0
ENDCHAR
STARTCHAR uni0329
ENCODING 809
SWIDTH 600 0
DWIDTH 8 0
BBX 2 3 2 -4
BITMAP
50
90
80
ENDCHAR
STARTCHAR uni032A
ENCODING 810
SWIDTH 600 0
DWIDTH 8 0
BBX 4 3 1 -4
BITMAP
BE
82
40
ENDCHAR
STARTCHAR uni032C
ENCODING 812
SWIDTH 600 0
DWIDTH 8 0
BBX 4 2 1 -3
BITMAP
82
78
ENDCHAR
STARTCHAR uni032E
ENCODING 814
SWIDTH 600 0
DWIDTH 8 0
BBX 4 2 1 -3
BITMAP
C2
BD
ENDCHAR
STARTCHAR uni032F
ENCODING 815
SWIDTH 600 0
DWIDTH 8 0
BBX 5 2 0 -3
BITMAP
1F40
6080
ENDCHAR
STARTCHAR uni0330
ENCODING 816
SWIDTH 600 0
DWIDTH 8 0
BBX 6 2 0 -3
BITMAP
2950
5280
ENDCHAR
STARTCHAR uni0331
ENCODING 817
SWIDTH 600 0
DWIDTH 8 0
BBX 4 1 1 -3
BITMAP
FE
ENDCHAR
STARTCHAR uni0334
ENCODING 820
SWIDTH 600 0
DWIDTH 8 0
BBX 6 3 1 2
BITMAP
1410
7D60
92C0
ENDCHAR
STARTCHAR uni0339
ENCODING 825
SWIDTH 600 0
DWIDTH 8 0
BBX 2 3 2 -4
BITMAP
A0
20
D0
ENDCHAR
STARTCHAR uni033A
ENCODING 826
SWIDTH 600 0
DWIDTH 8 0
BBX 4 3 1 -3
BITMAP
41
82
FD
ENDCHAR
STARTCHAR uni033B
ENCODING 827
SWIDTH 600 0
DWIDTH 8 0
BBX 4 3 1 -4
BITMAP
BE
82
FD
ENDCHAR
STARTCHAR uni033C
ENCODING 828
SWIDTH 600 0
DWIDTH 8 0
BBX 5 2 0 -3
BITMAP
2AC0
5980
ENDCHAR
STARTCHAR uni033D
ENCODING 829
SWIDTH 600 0
DWIDTH 8 0
BBX 3 2 4 8
BITMAP
A4
A0
ENDCHAR
STARTCHAR uni0342
ENCODING 834
SWIDTH 600 0
DWIDTH 8 0
BBX 6 2 2 8
BITMAP
2960
62C0
ENDCHAR
STARTCHAR uni0345
ENCODING 837
SWIDTH 600 0
DWIDTH 8 0
BBX 2 2 2 -3
BITMAP
50
70
ENDCHAR
STARTCHAR uni035F
ENCODING 863
SWIDTH 600 0
DWIDTH 8 0
BBX 14 1 -4 -2
BITMAP
FFFFFFE0
ENDCHAR
STARTCHAR uni0361
ENCODING 865
SWIDTH 600 0
DWIDTH 8 0
BBX 13 3 -1 8
BITMAP
06BF9000
29406D00
90000240
ENDCHAR
STARTCHAR pi
ENCODING 960
SWIDTH 600 0
DWIDTH 8 0
BBX 8 7 1 0
BITMAP
FFFD
2060
3060
6090
A0C0
90C0
C0E0
ENDCHAR
STARTCHAR a.sups
ENCODING 7491
SWIDTH 600 0
DWIDTH 8 0
BBX 5 5 2 5
BITMAP
1F80
34C0
5080
6240
3D40
ENDCHAR
STARTCHAR b.sups
ENCODING 7495
SWIDTH 600 0
DWIDTH 8 0
BBX 5 7 2 5
BITMAP
0400
1400
2B80
2480
2080
6180
6E00
ENDCHAR
STARTCHAR d.sups
ENCODING 7496
SWIDTH 600 0
DWIDTH 8 0
BBX 6 7 2 5
BITMAP
0050
0090
1E80
70C0
5080
6240
3D40
ENDCHAR
STARTCHAR e.sups
ENCODING 7497
SWIDTH 600 0
DWIDTH 8 0
BBX 5 5 2 5
BITMAP
1B40
2480
7FC0
6140
2E00
ENDCHAR
STARTCHAR g.sups
ENCODING 7501
SWIDTH 600 0
DWIDTH 8 0
BBX 5 7 2 3
BITMAP
1F80
34C0
5080
6280
3E40
4300
7D00
ENDCHAR
STARTCHAR k.sups
ENCODING 7503
SWIDTH 600 0
DWIDTH 8 0
BBX 5 7 3 5
BITMAP
2000
6000
5240
9800
A800
C600
4100
ENDCHAR
STARTCHAR m.sups
ENCODING 7504
SWIDTH 600 0
DWIDTH 8 0
BBX 7 5 1 5
BITMAP
2B68
3588
6248
5208
9214
ENDCHAR
STARTCHAR o.sups
ENCODING 7506
SWIDTH 600 0
DWIDTH 8 0
BBX 5 5 2 5
BITMAP
1B40
34C0
50C0
6180
2E00
ENDCHAR
STARTCHAR p.sups
ENCODING 7510
SWIDTH 600 0
DWIDTH 8 0
BBX 6 7 2 3
BITMAP
2B80
2490
3090
61C0
6E40
9000
4000
ENDCHAR
STARTCHAR t.sups
ENCODING 7511
SWIDTH 600 0
DWIDTH 8 0
BBX 5 7 3 5
BITMAP
0400
1400
FF40
2000
2000
6000
3D00
ENDCHAR
STARTCHAR u.sups
ENCODING 7512
SWIDTH 600 0
DWIDTH 8 0
BBX 5 5 2 5
BITMAP
2080
20C0
2080
6280
3E40
ENDCHAR
STARTCHAR v.sups
ENCODING 7515
SWIDTH 600 0
DWIDTH 8 0
BBX 4 5 3 5
BITMAP
82
86
98
68
70
ENDCHAR
STARTCHAR c.sups
ENCODING 7580
SWIDTH 600 0
DWIDTH 8 0
BBX 4 5 3 5
BITMAP
2E
91
80
C4
78
ENDCHAR
STARTCHAR f.sups
ENCODING 7584
SWIDTH 600 0
DWIDTH 8 0
BBX 5 7 3 5
BITMAP
0B80
1800
7F40
2400
2000
2000
2000
ENDCHAR
STARTCHAR z.sups
ENCODING 7611
SWIDTH 600 0
DWIDTH 8 0
BBX 5 5 2 5
BITMAP
2FC0
0240
0500
1400
7F40
ENDCHAR
STARTCHAR uni1E06
ENCODING 7686
SWIDTH 600 0
DWIDTH 8 0
BBX 8 12 0 -3
BITMAP
0BF8
0D0A
0C0A
1D68
2EB4
240C
300D
302C
7FE0
0000
0000
2FC0
ENDCHAR
STARTCHAR uni1E07
ENCODING 7687
SWIDTH 600 0
DWIDTH 8 0
BBX 8 13 0 -3
BITMAP
0900
0900
0C00
19F8
1D1D
2409
2409
300C
7468
6BD0
0000
0000
2FC0
ENDCHAR
STARTCHAR uni1E0C
ENCODING 7692
SWIDTH 600 0
DWIDTH 8 0
BBX 8 13 0 -4
BITMAP
0FE4
0C1D
180A
2806
2406
300A
701C
6074
BF90
0000
0000
0D00
0D00
ENDCHAR
STARTCHAR uni1E0D
ENCODING 7693
SWIDTH 600 0
DWIDTH 8 0
BBX 9 14 0 -4
BITMAP
000240
000300
000700
06E600
1D1D00
240900
300C00
701C00
347800
1F9400
000000
000000
0A0000
0A0000
ENDCHAR
STARTCHAR uni1E0E
ENCODING 7694
SWIDTH 600 0
DWIDTH 8 0
BBX 8 12 0 -3
BITMAP
0FE4
0C1D
180A
2806
2406
300A
701C
6074
BF90
0000
0000
3F80
ENDCHAR
STARTCHAR uni1E0F
ENCODING 7695
SWIDTH 600 0
DWIDTH 8 0
BBX 9 13 0 -3
BITMAP
000240
000300
000700
06E600
1D1D00
240900
300C00
701C00
347800
1F9400
000000
000000
2FC000
ENDCHAR
STARTCHAR uni1E10
ENCODING 7696
SWIDTH 600 0
DWIDTH 8 0
BBX 8 13 0 -4
BITMAP
0FE4
0C1D
180A
2806
2406
300A
701C
6074
BF90
0500
0E00
0600
2800
ENDCHAR
STARTCHAR uni1E11
ENCODING 7697
SWIDTH 600 0
DWIDTH 8 0
BBX 9 14 0 -4
BITMAP
000240
000300
000700
06E600
1D1D00
240900
300C00
701C00
347800
1F9400
050000
0A0000
070000
290000
ENDCHAR
STARTCHAR uni1E16
ENCODING 7702
SWIDTH 600 0
DWIDTH 8 0
BBX 8 14 1 0
BITMAP
0018
0020
0000
03F8
0000
1FFD
2400
2400
3000
7FE0
6000
9000
D000
FFE0
ENDCHAR
STARTCHAR uni1E17
ENCODING 7703
SWIDTH 600 0
DWIDTH 8 0
BBX 7 12 1 0
BITMAP
0020
0080
0000
0BF0
0000
1BD0
7470
9024
FFF4
C000
A050
2F80
ENDCHAR
STARTCHAR uni1E20
ENCODING 7712
SWIDTH 600 0
DWIDTH 8 0
BBX 7 11 1 0
BITMAP
03F8
0000
06E4
2D18
7000
9000
C1F8
C024
D030
A070
2F90
ENDCHAR
STARTCHAR uni1E21
ENCODING 7713
SWIDTH 600 0
DWIDTH 8 0
BBX 8 12 0 -3
BITMAP
01FC
0000
06E6
1D1D
2409
300C
701C
3478
1BA4
0024
50A0
6F80
ENDCHAR
STARTCHAR uni1E24
ENCODING 7716
SWIDTH 600 0
DWIDTH 8 0
BBX 8 13 0 -4
BITMAP
0C03
1C03
1806
240A
2FFD
300C
700C
6018
9024
0000
0000
0A00
0A00
ENDCHAR
STARTCHAR uni1E25
ENCODING 7717
SWIDTH 600 0
DWIDTH 8 0
BBX 8 14 0 -4
BITMAP
0900
0900
0C00
1DB8
1E0D
2809
240C
300C
7018
6028
0000
0000
0700
0A00
ENDCHAR
STARTCHAR uni1E26
ENCODING 7718
SWIDTH 600 0
DWIDTH 8 0
BBX 8 11 0 0
BITMAP
0189
0000
0C03
1C03
1806
240A
2FFD
300C
700C
6018
9024
ENDCHAR
STARTCHAR uni1E27
ENCODING 7719
SWIDTH 600 0
DWIDTH 8 0
BBX 8 12 0 0
BITMAP
1480
0000
0900
0900
0C00
1DB8
1E0D
2809
240C
300C
7018
6028
ENDCHAR
STARTCHAR uni1E28
ENCODING 7720
SWIDTH 600 0
DWIDTH 8 0
BBX 9 13 -1 -4
BITMAP
0300C0
0700C0
060180
090280
0BFF40
0C0300
1C0300
180600
240900
200000
340000
240000
E00000
ENDCHAR
STARTCHAR uni1E29
ENCODING 7721
SWIDTH 600 0
DWIDTH 8 0
BBX 9 14 -1 -4
BITMAP
024000
024000
030000
076E00
078340
0A0240
090300
0C0300
1C0600
180A00
140000
340000
180000
A00000
ENDCHAR
STARTCHAR uni1E2A
ENCODING 7722
SWIDTH 600 0
DWIDTH 8 0
BBX 8 12 0 -3
BITMAP
0C03
1C03
1806
240A
2FFD
300C
700C
6018
9024
0000
3080
2F40
ENDCHAR
STARTCHAR uni1E2B
ENCODING 7723
SWIDTH 600 0
DWIDTH 8 0
BBX 8 13 0 -3
BITMAP
0900
0900
0C00
1DB8
1E0D
2809
240C
300C
7018
6028
0000
2490
1F80
ENDCHAR
STARTCHAR uni1E32
ENCODING 7730
SWIDTH 600 0
DWIDTH 8 0
BBX 9 13 0 -4
BITMAP
090740
0D1D00
0C6000
19C000
1AD000
286000
343000
302800
601C00
000000
000000
034000
034000
ENDCHAR
STARTCHAR uni1E33
ENCODING 7731
SWIDTH 600 0
DWIDTH 8 0
BBX 8 14 0 -4
BITMAP
0600
0900
0900
0C0A
1C28
18D0
2BD0
2C60
3024
701C
0000
0000
0740
0740
ENDCHAR
STARTCHAR uni1E34
ENCODING 7732
SWIDTH 600 0
DWIDTH 8 0
BBX 9 12 0 -3
BITMAP
090740
0D1D00
0C6000
19C000
1AD000
286000
343000
302800
601C00
000000
000000
0FD000
ENDCHAR
STARTCHAR uni1E35
ENCODING 7733
SWIDTH 600 0
DWIDTH 8 0
BBX 8 13 0 -3
BITMAP
0600
0900
0900
0C0A
1C28
18D0
2BD0
2C60
3024
701C
0000
0000
1FD0
ENDCHAR
STARTCHAR uni1E36
ENCODING 7734
SWIDTH 600 0
DWIDTH 8 0
BBX 6 13 1 -4
BITMAP
0D00
0C00
1800
1800
2400
3400
3000
6000
BFF0
0000
0000
0A00
0A00
ENDCHAR
STARTCHAR uni1E37
ENCODING 7735
SWIDTH 600 0
DWIDTH 8 0
BBX 5 14 2 -4
BITMAP
FD00
0C00
0C00
1800
2800
2400
3000
3000
7000
2F40
0000
0000
2800
2800
ENDCHAR
STARTCHAR uni1E38
ENCODING 7736
SWIDTH 600 0
DWIDTH 8 0
BBX 6 15 1 -4
BITMAP
2FC0
0000
0D00
0C00
1800
1800
2400
3400
3000
6000
BFF0
0000
0000
0A00
0A00
ENDCHAR
STARTCHAR uni1E39
ENCODING 7737
SWIDTH 600 0
DWIDTH 8 0
BBX 5 16 2 -4
BITMAP
2FC0
0000
FD00
0C00
0C00
1800
2800
2400
3000
3000
7000
2F40
0000
0000
2800
2800
ENDCHAR
STARTCHAR uni1E3A
ENCODING 7738
SWIDTH 600 0
DWIDTH 8 0
BBX 6 12 1 -3
BITMAP
0D00
0C00
1800
1800
2400
3400
3000
6000
BFF0
0000
0000
3F80
ENDCHAR
STARTCHAR uni1E3B
ENCODING 7739
SWIDTH 600 0
DWIDTH 8 0
BBX 5 13 2 -3
BITMAP
FD00
0C00
0C00
1800
2800
2400
3000
3000
7000
2F40
0000
0000
BF00
ENDCHAR
STARTCHAR uni1E3E
ENCODING 7742
SWIDTH 600 0
DWIDTH 8 0
BBX 8 12 0 0
BITMAP
0008
0064
0000
0D07
1E0B
1A1A
2626
3299
328C
614C
6018
9018
ENDCHAR
STARTCHAR uni1E3F
ENCODING 7743
SWIDTH 600 0
DWIDTH 8 0
BBX 8 11 0 0
BITMAP
0008
0028
0050
0000
279E
38D7
30C6
6186
A249
924C
C30C
ENDCHAR
STARTCHAR uni1E40
ENCODING 7744
SWIDTH 600 0
DWIDTH 8 0
BBX 8 11 0 0
BITMAP
0030
0000
0D07
1E0B
1A1A
2626
3299
328C
614C
6018
9018
ENDCHAR
STARTCHAR uni1E41
ENCODING 7745
SWIDTH 600 0
DWIDTH 8 0
BBX 8 10 0 0
BITMAP
0070
0070
0000
279E
38D7
30C6
6186
A249
924C
C30C
ENDCHAR
STARTCHAR uni1E42
ENCODING 7746
SWIDTH 600 0
DWIDTH 8 0
BBX 8 13 0 -4
BITMAP
0D07
1E0B
1A1A
2626
3299
328C
614C
6018
9018
0000
0000
0A00
0A00
ENDCHAR
STARTCHAR uni1E43
ENCODING 7747
SWIDTH 600 0
DWIDTH 8 0
BBX 8 11 0 -4
BITMAP
279E
38D7
30C6
6186
A249
924C
C30C
0000
0000
0A00
0A00
ENDCHAR
STARTCHAR uni1E44
ENCODING 7748
SWIDTH 600 0
DWIDTH 8 0
BBX 8 11 0 0
BITMAP
0030
0000
0D03
0E03
1B06
2649
2589
30CC
309C
6078
9034
ENDCHAR
STARTCHAR uni1E45
ENCODING 7749
SWIDTH 600 0
DWIDTH 8 0
BBX 8 10 0 0
BITMAP
0070
0070
0000
19B8
1E0D
2809
240C
300C
7018
6028
ENDCHAR
STARTCHAR uni1E46
ENCODING 7750
SWIDTH 600 0
DWIDTH 8 0
BBX 8 13 0 -4
BITMAP
0D03
0E03
1B06
2649
2589
30CC
309C
6078
9034
0000
0000
0A00
0A00
ENDCHAR
STARTCHAR uni1E47
ENCODING 7751
SWIDTH 600 0
DWIDTH 8 0
BBX 8 11 0 -4
BITMAP
19B8
1E0D
2809
240C
300C
7018
6028
0000
0000
0700
0A00
ENDCHAR
STARTCHAR uni1E48
ENCODING 7752
SWIDTH 600 0
DWIDTH 8 0
BBX 8 12 0 -3
BITMAP
0D03
0E03
1B06
2649
2589
30CC
309C
6078
9034
0000
0000
2FC0
ENDCHAR
STARTCHAR uni1E49
ENCODING 7753
SWIDTH 600 0
DWIDTH 8 0
BBX 8 10 0 -3
BITMAP
19B8
1E0D
2809
240C
300C
7018
6028
0000
0000
2FC0
ENDCHAR
STARTCHAR uni1E52
ENCODING 7762
SWIDTH 600 0
DWIDTH 8 0
BBX 8 14 0 0
BITMAP
0009
0014
0000
01FD
0000
02F8
0E09
2806
3007
6007
600A
600D
3478
1BD0
ENDCHAR
STARTCHAR uni1E53
ENCODING 7763
SWIDTH 600 0
DWIDTH 8 0
BBX 8 12 0 0
BITMAP
0018
0020
0000
02FC
0000
06E4
1D1C
3409
6009
600C
3474
1BD0
ENDCHAR
STARTCHAR uni1E58
ENCODING 7768
SWIDTH 600 0
DWIDTH 8 0
BBX 8 11 0 0
BITMAP
0030
0000
0BF8
0C0A
1C06
181D
2FE4
24D0
30A0
7030
6024
ENDCHAR
STARTCHAR uni1E59
ENCODING 7769
SWIDTH 600 0
DWIDTH 8 0
BBX 7 10 1 0
BITMAP
00D0
00D0
0000
19B8
2A40
2800
3000
3000
6000
A000
ENDCHAR
STARTCHAR uni1E5A
ENCODING 7770
SWIDTH 600 0
DWIDTH 8 0
BBX 8 13 0 -4
BITMAP
0BF8
0C0A
1C06
181D
2FE4
24D0
30A0
7030
6024
0000
0000
0700
0700
ENDCHAR
STARTCHAR uni1E5B
ENCODING 7771
SWIDTH 600 0
DWIDTH 8 0
BBX 8 11 0 -4
BITMAP
066E
0A90
0A00
0C00
0C00
1800
2800
0000
0000
3400
7400
ENDCHAR
STARTCHAR uni1E5C
ENCODING 7772
SWIDTH 600 0
DWIDTH 8 0
BBX 8 15 0 -4
BITMAP
01FD
0000
0BF8
0C0A
1C06
181D
2FE4
24D0
30A0
7030
6024
0000
0000
0700
0700
ENDCHAR
STARTCHAR uni1E5D
ENCODING 7773
SWIDTH 600 0
DWIDTH 8 0
BBX 8 13 0 -4
BITMAP
01FD
0000
066E
0A90
0A00
0C00
0C00
1800
2800
0000
0000
3400
7400
ENDCHAR
STARTCHAR uni1E5E
ENCODING 7774
SWIDTH 600 0
DWIDTH 8 0
BBX 8 12 0 -3
BITMAP
0BF8
0C0A
1C06
181D
2FE4
24D0
30A0
7030
6024
0000
0000
2FC0
ENDCHAR
STARTCHAR uni1E5F
ENCODING 7775
SWIDTH 600 0
DWIDTH 8 0
BBX 9 10 -1 -3
BITMAP
019B80
02A400
028000
030000
030000
060000
0A0000
000000
000000
7F4000
ENDCHAR
STARTCHAR uni1E60
ENCODING 7776
SWIDTH 600 0
DWIDTH 8 0
BBX 8 11 0 0
BITMAP
0060
0000
02F4
0A09
0C00
0A40
01E0
0028
0018
7464
1BD0
ENDCHAR
STARTCHAR uni1E61
ENCODING 7777
SWIDTH 600 0
DWIDTH 8 0
BBX 6 10 1 0
BITMAP
02C0
0280
0000
1F90
3060
3400
1B80
00A0
90A0
6F80
ENDCHAR
STARTCHAR uni1E62
ENCODING 7778
SWIDTH 600 0
DWIDTH 8 0
BBX 8 13 0 -4
BITMAP
02F4
0A09
0C00
0A40
01E0
0028
0018
7464
1BD0
0000
0000
0700
0700
ENDCHAR
STARTCHAR uni1E63
ENCODING 7779
SWIDTH 600 0
DWIDTH 8 0
BBX 6 11 1 -4
BITMAP
1F90
3060
3400
1B80
00A0
90A0
6F80
0000
0000
1C00
1C00
ENDCHAR
STARTCHAR uni1E6C
ENCODING 7788
SWIDTH 600 0
DWIDTH 8 0
BBX 8 13 1 -4
BITMAP
BFFE
0240
0340
0300
0600
0A00
0900
0C00
0C00
0000
0000
2800
2800
ENDCHAR
STARTCHAR uni1E6D
ENCODING 7789
SWIDTH 600 0
DWIDTH 8 0
BBX 7 13 1 -4
BITMAP
0600
0900
FFF8
0C00
1800
2800
2400
2810
1F90
0000
0000
0A00
0A00
ENDCHAR
STARTCHAR uni1E6E
ENCODING 7790
SWIDTH 600 0
DWIDTH 8 0
BBX 8 12 1 -3
BITMAP
BFFE
0240
0340
0300
0600
0A00
0900
0C00
0C00
0000
0000
FE00
ENDCHAR
STARTCHAR uni1E6F
ENCODING 7791
SWIDTH 600 0
DWIDTH 8 0
BBX 7 12 1 -3
BITMAP
0600
0900
FFF8
0C00
1800
2800
2400
2810
1F90
0000
0000
3F80
ENDCHAR
STARTCHAR uni1E7E
ENCODING 7806
SWIDTH 600 0
DWIDTH 8 0
BBX 8 13 1 -4
BITMAP
700A
300C
3024
3070
3490
2580
2640
2A00
1D00
0000
0000
2800
2800
ENDCHAR
STARTCHAR uni1E7F
ENCODING 7807
SWIDTH 600 0
DWIDTH 8 0
BBX 7 11 1 -4
BITMAP
9018
6024
6060
30C0
2640
2B00
1D00
0000
0000
2800
2800
ENDCHAR
STARTCHAR Wgrave
ENCODING 7808
SWIDTH 600 0
DWIDTH 8 0
BBX 9 12 0 0
BITMAP
008000
006000
000000
240180
240280
304240
31D300
329600
365900
395C00
286800
747400
ENDCHAR
STARTCHAR wgrave
ENCODING 7809
SWIDTH 600 0
DWIDTH 8 0
BBX 9 11 0 0
BITMAP
018000
009000
002000
000000
608280
61D300
629600
669900
699C00
68A400
747000
ENDCHAR
STARTCHAR Wacute
ENCODING 7810
SWIDTH 600 0
DWIDTH 8 0
BBX 9 12 0 0
BITMAP
001800
006400
000000
240180
240280
304240
31D300
329600
365900
395C00
286800
747400
ENDCHAR
STARTCHAR wacute
ENCODING 7811
SWIDTH 600 0
DWIDTH 8 0
BBX 9 11 0 0
BITMAP
001800
007400
009000
000000
608280
61D300
629600
669900
699C00
68A400
747000
ENDCHAR
STARTCHAR Wdieresis
ENCODING 7812
SWIDTH 600 0
DWIDTH 8 0
BBX 9 11 0 0
BITMAP
018900
000000
240180
240280
304240
31D300
329600
365900
395C00
286800
747400
ENDCHAR
STARTCHAR wdieresis
ENCODING 7813
SWIDTH 600 0
DWIDTH 8 0
BBX 9 9 0 0
BITMAP
025800
000000
608280
61D300
629600
669900
699C00
68A400
747000
ENDCHAR
STARTCHAR uni1E8E
ENCODING 7822
SWIDTH 600 0
DWIDTH 8 0
BBX 8 11 1 0
BITMAP
0180
0000
6009
3018
2470
1890
0E80
0B00
0900
0D00
0C00
ENDCHAR
STARTCHAR uni1E8F
ENCODING 7823
SWIDTH 600 0
DWIDTH 8 0
BBX 9 13 -1 -3
BITMAP
002800
002800
000000
0901C0
060240
060600
030C00
026400
01A000
01D000
018000
070000
790000
ENDCHAR
STARTCHAR uni1E90
ENCODING 7824
SWIDTH 600 0
DWIDTH 8 0
BBX 8 12 0 0
BITMAP
00B4
0248
0000
0FFF
0009
0028
00A0
0180
0700
1D00
3400
BFFC
ENDCHAR
STARTCHAR uni1E91
ENCODING 7825
SWIDTH 600 0
DWIDTH 8 0
BBX 8 10 0 0
BITMAP
00B4
0208
0000
1FFD
0028
00A0
0280
0A00
2800
7FF8
ENDCHAR
STARTCHAR uni1E92
ENCODING 7826
SWIDTH 600 0
DWIDTH 8 0
BBX 8 13 0 -4
BITMAP
0FFF
0009
0028
00A0
0180
0700
1D00
3400
BFFC
0000
0000
0700
0700
ENDCHAR
STARTCHAR uni1E93
ENCODING 7827
SWIDTH 600 0
DWIDTH 8 0
BBX 8 11 0 -4
BITMAP
1FFD
0028
00A0
0280
0A00
2800
7FF8
0000
0000
0700
0700
ENDCHAR
STARTCHAR uni1E94
ENCODING 7828
SWIDTH 600 0
DWIDTH 8 0
BBX 8 12 0 -3
BITMAP
0FFF
0009
0028
00A0
0180
0700
1D00
3400
BFFC
0000
0000
1FC0
ENDCHAR
STARTCHAR uni1E95
ENCODING 7829
SWIDTH 600 0
DWIDTH 8 0
BBX 8 10 0 -3
BITMAP
1FFD
0028
00A0
0280
0A00
2800
7FF8
0000
0000
2FC0
ENDCHAR
STARTCHAR uni1E96
ENCODING 7830
SWIDTH 600 0
DWIDTH 8 0
BBX 8 13 0 -3
BITMAP
0900
0900
0C00
1DB8
1E0D
2809
240C
300C
7018
6028
0000
0000
2FC0
ENDCHAR
STARTCHAR uni1E97
ENCODING 7831
SWIDTH 600 0
DWIDTH 8 0
BBX 7 11 1 0
BITMAP
1890
0000
0600
0900
FFF8
0C00
1800
2800
2400
2810
1F90
ENDCHAR
STARTCHAR uni1E9E
ENCODING 7838
SWIDTH 600 0
DWIDTH 8 0
BBX 8 9 0 0
BITMAP
02F8
0A0A
1C09
2824
24B4
301D
700A
651D
92F4
ENDCHAR
STARTCHAR uni1EA0
ENCODING 7840
SWIDTH 600 0
DWIDTH 8 0
BBX 7 13 0 -4
BITMAP
00B0
01A0
0264
0624
0814
1FF8
3018
A01C
C00C
0000
0000
0A00
0A00
ENDCHAR
STARTCHAR uni1EA1
ENCODING 7841
SWIDTH 600 0
DWIDTH 8 0
BBX 8 11 0 -4
BITMAP
06E6
1D1D
2409
300C
701C
3478
1F94
0000
0000
0A00
0A00
ENDCHAR
STARTCHAR uni1EA2
ENCODING 7842
SWIDTH 600 0
DWIDTH 8 0
BBX 7 13 0 0
BITMAP
0070
0024
0060
0000
00B0
01A0
0264
0624
0814
1FF8
3018
A01C
C00C
ENDCHAR
STARTCHAR uni1EA3
ENCODING 7843
SWIDTH 600 0
DWIDTH 8 0
BBX 8 11 0 0
BITMAP
0074
0024
0060
0000
06E6
1D1D
2409
300C
701C
3478
1F94
ENDCHAR
STARTCHAR uni1EA4
ENCODING 7844
SWIDTH 600 0
DWIDTH 8 0
BBX 9 13 0 0
BITMAP
000140
007A00
018800
000000
00B000
01A000
026400
062400
081400
1FF800
301800
A01C00
C00C00
ENDCHAR
STARTCHAR uni1EA5
ENCODING 7845
SWIDTH 600 0
DWIDTH 8 0
BBX 9 11 0 0
BITMAP
000140
00B600
014800
000000
06E600
1D1D00
240900
300C00
701C00
347800
1F9400
ENDCHAR
STARTCHAR uni1EA6
ENCODING 7846
SWIDTH 600 0
DWIDTH 8 0
BBX 7 13 0 0
BITMAP
0200
02B4
0188
0000
00B0
01A0
0264
0624
0814
1FF8
3018
A01C
C00C
ENDCHAR
STARTCHAR uni1EA7
ENCODING 7847
SWIDTH 600 0
DWIDTH 8 0
BBX 8 11 0 0
BITMAP
0900
02B4
0148
0000
06E6
1D1D
2409
300C
701C
3478
1F94
ENDCHAR
STARTCHAR uni1EA8
ENCODING 7848
SWIDTH 600 0
DWIDTH 8 0
BBX 9 13 0 0
BITMAP
000340
007640
018B00
000000
00B000
01A000
026400
062400
081400
1FF800
301800
A01C00
C00C00
ENDCHAR
STARTCHAR uni1EA9
ENCODING 7849
SWIDTH 600 0
DWIDTH 8 0
BBX 9 12 0 0
BITMAP
000740
000240
00B600
014800
000000
06E600
1D1D00
240900
300C00
701C00
347800
1F9400
ENDCHAR
STARTCHAR uni1EAA
ENCODING 7850
SWIDTH 600 0
DWIDTH 8 0
BBX 8 14 0 0
BITMAP
00A2
015D
0074
0188
0000
00B0
01A0
0264
0624
0814
1FF8
3018
A01C
C00C
ENDCHAR
STARTCHAR uni1EAB
ENCODING 7851
SWIDTH 600 0
DWIDTH 8 0
BBX 8 12 0 0
BITMAP
00A1
016D
00B4
0148
0000
06E6
1D1D
2409
300C
701C
3478
1F94
ENDCHAR
STARTCHAR uni1EAC
ENCODING 7852
SWIDTH 600 0
DWIDTH 8 0
BBX 8 16 0 -4
BITMAP
00B8
0149
0000
00B0
01A0
0264
0624
0814
1FF8
3018
A01C
C00C
0000
0000
0A00
0A00
ENDCHAR
STARTCHAR uni1EAD
ENCODING 7853
SWIDTH 600 0
DWIDTH 8 0
BBX 8 14 0 -4
BITMAP
00B4
0248
0000
06E6
1D1D
2409
300C
701C
3478
1F94
0000
0000
0A00
0A00
ENDCHAR
STARTCHAR uni1EAE
ENCODING 7854
SWIDTH 600 0
DWIDTH 8 0
BBX 8 14 0 0
BITMAP
0008
0024
0145
00B8
0000
00B0
01A0
0264
0624
0814
1FF8
3018
A01C
C00C
ENDCHAR
STARTCHAR uni1EAF
ENCODING 7855
SWIDTH 600 0
DWIDTH 8 0
BBX 8 12 0 0
BITMAP
0008
0024
0246
01F8
0000
06E6
1D1D
2409
300C
701C
3478
1F94
ENDCHAR
STARTCHAR uni1EB0
ENCODING 7856
SWIDTH 600 0
DWIDTH 8 0
BBX 8 14 0 0
BITMAP
0060
0020
0145
00B8
0000
00B0
01A0
0264
0624
0814
1FF8
3018
A01C
C00C
ENDCHAR
STARTCHAR uni1EB1
ENCODING 7857
SWIDTH 600 0
DWIDTH 8 0
BBX 8 12 0 0
BITMAP
0050
0020
0246
01F8
0000
06E6
1D1D
2409
300C
701C
3478
1F94
ENDCHAR
STARTCHAR uni1EB2
ENCODING 7858
SWIDTH 600 0
DWIDTH 8 0
BBX 8 15 0 0
BITMAP
0024
0018
0024
0145
00B8
0000
00B0
01A0
0264
0624
0814
1FF8
3018
A01C
C00C
ENDCHAR
STARTCHAR uni1EB3
ENCODING 7859
SWIDTH 600 0
DWIDTH 8 0
BBX 8 13 0 0
BITMAP
0034
0018
0024
0246
01F8
0000
06E6
1D1D
2409
300C
701C
3478
1F94
ENDCHAR
STARTCHAR uni1EB4
ENCODING 7860
SWIDTH 600 0
DWIDTH 8 0
BBX 8 14 0 0
BITMAP
00A2
015D
0149
00B8
0000
00B0
01A0
0264
0624
0814
1FF8
3018
A01C
C00C
ENDCHAR
STARTCHAR uni1EB5
ENCODING 7861
SWIDTH 600 0
DWIDTH 8 0
BBX 8 12 0 0
BITMAP
00A6
016D
0249
00F4
0000
06E6
1D1D
2409
300C
701C
3478
1F94
ENDCHAR
STARTCHAR uni1EB6
ENCODING 7862
SWIDTH 600 0
DWIDTH 8 0
BBX 8 16 0 -4
BITMAP
0145
00B8
0000
00B0
01A0
0264
0624
0814
1FF8
3018
A01C
C00C
0000
0000
0A00
0A00
ENDCHAR
STARTCHAR uni1EB7
ENCODING 7863
SWIDTH 600 0
DWIDTH 8 0
BBX 8 14 0 -4
BITMAP
0246
01F8
0000
06E6
1D1D
2409
300C
701C
3478
1F94
0000
0000
0A00
0A00
ENDCHAR
STARTCHAR uni1EB8
ENCODING 7864
SWIDTH 600 0
DWIDTH 8 0
BBX 8 13 1 -4
BITMAP
1FFD
2400
2400
3000
7FE0
6000
9000
D000
FFE0
0000
0000
1D00
1D00
ENDCHAR
STARTCHAR uni1EB9
ENCODING 7865
SWIDTH 600 0
DWIDTH 8 0
BBX 7 11 1 -4
BITMAP
1BD0
7470
9024
FFF4
C000
A050
2F80
0000
0000
1C00
1C00
ENDCHAR
STARTCHAR uni1EBA
ENCODING 7866
SWIDTH 600 0
DWIDTH 8 0
BBX 8 13 1 0
BITMAP
00E0
0060
0090
0000
1FFD
2400
2400
3000
7FE0
6000
9000
D000
FFE0
ENDCHAR
STARTCHAR uni1EBB
ENCODING 7867
SWIDTH 600 0
DWIDTH 8 0
BBX 7 11 1 0
BITMAP
01C0
0090
0180
0000
1BD0
7470
9024
FFF4
C000
A050
2F80
ENDCHAR
STARTCHAR uni1EBC
ENCODING 7868
SWIDTH 600 0
DWIDTH 8 0
BBX 8 12 1 0
BITMAP
03D5
0578
0000
1FFD
2400
2400
3000
7FE0
6000
9000
D000
FFE0
ENDCHAR
STARTCHAR uni1EBD
ENCODING 7869
SWIDTH 600 0
DWIDTH 8 0
BBX 7 10 1 0
BITMAP
0A98
08B4
0000
1BD0
7470
9024
FFF4
C000
A050
2F80
ENDCHAR
STARTCHAR uni1EBE
ENCODING 7870
SWIDTH 600 0
DWIDTH 8 0
BBX 8 13 1 0
BITMAP
0002
00B9
0254
0000
1FFD
2400
2400
3000
7FE0
6000
9000
D000
FFE0
ENDCHAR
STARTCHAR uni1EBF
ENCODING 7871
SWIDTH 600 0
DWIDTH 8 0
BBX 8 11 1 0
BITMAP
0005
02D8
0520
0000
1BD0
7470
9024
FFF4
C000
A050
2F80
ENDCHAR
STARTCHAR uni1EC0
ENCODING 7872
SWIDTH 600 0
DWIDTH 8 0
BBX 8 13 1 0
BITMAP
0800
02B0
0254
0000
1FFD
2400
2400
3000
7FE0
6000
9000
D000
FFE0
ENDCHAR
STARTCHAR uni1EC1
ENCODING 7873
SWIDTH 600 0
DWIDTH 8 0
BBX 7 11 1 0
BITMAP
2000
1AD0
0520
0000
1BD0
7470
9024
FFF4
C000
A050
2F80
ENDCHAR
STARTCHAR uni1EC2
ENCODING 7874
SWIDTH 600 0
DWIDTH 8 0
BBX 8 13 1 0
BITMAP
000A
00B3
025D
0000
1FFD
2400
2400
3000
7FE0
6000
9000
D000
FFE0
ENDCHAR
STARTCHAR uni1EC3
ENCODING 7875
SWIDTH 600 0
DWIDTH 8 0
BBX 8 12 1 0
BITMAP
001C
0009
02D8
0520
0000
1BD0
7470
9024
FFF4
C000
A050
2F80
ENDCHAR
STARTCHAR uni1EC4
ENCODING 7876
SWIDTH 600 0
DWIDTH 8 0
BBX 8 14 1 0
BITMAP
01D5
0228
00B0
0254
0000
1FFD
2400
2400
3000
7FE0
6000
9000
D000
FFE0
ENDCHAR
STARTCHAR uni1EC5
ENCODING 7877
SWIDTH 600 0
DWIDTH 8 0
BBX 7 12 1 0
BITMAP
0294
05B0
02D0
0520
0000
1BD0
7470
9024
FFF4
C000
A050
2F80
ENDCHAR
STARTCHAR uni1EC6
ENCODING 7878
SWIDTH 600 0
DWIDTH 8 0
BBX 8 16 1 -4
BITMAP
01B0
0218
0000
1FFD
2400
2400
3000
7FE0
6000
9000
D000
FFE0
0000
0000
1D00
1D00
ENDCHAR
STARTCHAR uni1EC7
ENCODING 7879
SWIDTH 600 0
DWIDTH 8 0
BBX 7 14 1 -4
BITMAP
02D0
0920
0000
1BD0
7470
9024
FFF4
C000
A050
2F80
0000
0000
1C00
1C00
ENDCHAR
STARTCHAR uni1EC8
ENCODING 7880
SWIDTH 600 0
DWIDTH 8 0
BBX 8 13 0 0
BITMAP
0070
0024
0060
0000
0BFF
0090
00D0
00C0
0180
0280
0240
0300
7FF4
ENDCHAR
STARTCHAR uni1EC9
ENCODING 7881
SWIDTH 600 0
DWIDTH 8 0
BBX 6 11 1 0
BITMAP
0280
00C0
0240
0000
7F00
0300
0600
0900
0D00
0D00
07D0
ENDCHAR
STARTCHAR uni1ECA
ENCODING 7882
SWIDTH 600 0
DWIDTH 8 0
BBX 8 13 0 -4
BITMAP
0BFF
0090
00D0
00C0
0180
0280
0240
0300
7FF4
0000
0000
0A00
0A00
ENDCHAR
STARTCHAR uni1ECB
ENCODING 7883
SWIDTH 600 0
DWIDTH 8 0
BBX 6 14 1 -4
BITMAP
0280
0280
0000
7F00
0300
0600
0900
0D00
0D00
07D0
0000
0000
0700
0700
ENDCHAR
STARTCHAR uni1ECC
ENCODING 7884
SWIDTH 600 0
DWIDTH 8 0
BBX 8 13 0 -4
BITMAP
02F8
0E09
2806
3007
6007
600A
600D
3478
1BD0
0000
0000
0A00
0A00
ENDCHAR
STARTCHAR uni1ECD
ENCODING 7885
SWIDTH 600 0
DWIDTH 8 0
BBX 8 11 0 -4
BITMAP
06E4
1D1C
3409
6009
600C
3474
1BD0
0000
0000
0A00
0A00
ENDCHAR
STARTCHAR uni1ECE
ENCODING 7886
SWIDTH 600 0
DWIDTH 8 0
BBX 8 13 0 0
BITMAP
0070
0024
0060
0000
02F8
0E09
2806
3007
6007
600A
600D
3478
1BD0
ENDCHAR
STARTCHAR uni1ECF
ENCODING 7887
SWIDTH 600 0
DWIDTH 8 0
BBX 8 11 0 0
BITMAP
00A0
0024
0060
0000
06E4
1D1C
3409
6009
600C
3474
1BD0
ENDCHAR
STARTCHAR uni1ED0
ENCODING 7888
SWIDTH 600 0
DWIDTH 8 0
BBX 9 13 0 0
BITMAP
000140
007A00
018800
000000
02F800
0E0900
280600
300700
600700
600A00
600D00
347800
1BD000
ENDCHAR
STARTCHAR uni1ED1
ENCODING 7889
SWIDTH 600 0
DWIDTH 8 0
BBX 9 11 0 0
BITMAP
000240
00B500
025800
000000
06E400
1D1C00
340900
600900
600C00
347400
1BD000
ENDCHAR
STARTCHAR uni1ED2
ENCODING 7890
SWIDTH 600 0
DWIDTH 8 0
BBX 8 13 0 0
BITMAP
0200
02B4
0188
0000
02F8
0E09
2806
3007
6007
600A
600D
3478
1BD0
ENDCHAR
STARTCHAR uni1ED3
ENCODING 7891
SWIDTH 600 0
DWIDTH 8 0
BBX 8 11 0 0
BITMAP
0800
06B0
0258
0000
06E4
1D1C
3409
6009
600C
3474
1BD0
ENDCHAR
STARTCHAR uni1ED4
ENCODING 7892
SWIDTH 600 0
DWIDTH 8 0
BBX 9 13 0 0
BITMAP
000340
007640
018B00
000000
02F800
0E0900
280600
300700
600700
600A00
600D00
347800
1BD000
ENDCHAR
STARTCHAR uni1ED5
ENCODING 7893
SWIDTH 600 0
DWIDTH 8 0
BBX 8 12 0 0
BITMAP
0006
0002
00B6
0258
0000
06E4
1D1C
3409
6009
600C
3474
1BD0
ENDCHAR
STARTCHAR uni1ED6
ENCODING 7894
SWIDTH 600 0
DWIDTH 8 0
BBX 8 14 0 0
BITMAP
00A2
015D
0074
0188
0000
02F8
0E09
2806
3007
6007
600A
600D
3478
1BD0
ENDCHAR
STARTCHAR uni1ED7
ENCODING 7895
SWIDTH 600 0
DWIDTH 8 0
BBX 8 12 0 0
BITMAP
0095
016C
00B4
0248
0000
06E4
1D1C
3409
6009
600C
3474
1BD0
ENDCHAR
STARTCHAR uni1ED8
ENCODING 7896
SWIDTH 600 0
DWIDTH 8 0
BBX 8 16 0 -4
BITMAP
00B8
0149
0000
02F8
0E09
2806
3007
6007
600A
600D
3478
1BD0
0000
0000
0A00
0A00
ENDCHAR
STARTCHAR uni1ED9
ENCODING 7897
SWIDTH 600 0
DWIDTH 8 0
BBX 8 14 0 -4
BITMAP
00B4
0248
0000
06E4
1D1C
3409
6009
600C
3474
1BD0
0000
0000
0A00
0A00
ENDCHAR
STARTCHAR uni1EDA
ENCODING 7898
SWIDTH 600 0
DWIDTH 8 0
BBX 9 12 0 0
BITMAP
000800
006480
000080
02FA40
0E0900
280600
300700
600700
600A00
600D00
347800
1BD000
ENDCHAR
STARTCHAR uni1EDB
ENCODING 7899
SWIDTH 600 0
DWIDTH 8 0
BBX 9 11 0 0
BITMAP
000800
003400
009240
000240
06F900
1D1C00
340900
600900
600C00
347400
1BD000
ENDCHAR
STARTCHAR uni1EDC
ENCODING 7900
SWIDTH 600 0
DWIDTH 8 0
BBX 9 12 0 0
BITMAP
008000
006080
000080
02FA40
0E0900
280600
300700
600700
600A00
600D00
347800
1BD000
ENDCHAR
STARTCHAR uni1EDD
ENCODING 7901
SWIDTH 600 0
DWIDTH 8 0
BBX 9 11 0 0
BITMAP
008000
009000
002240
000240
06F900
1D1C00
340900
600900
600C00
347400
1BD000
ENDCHAR
STARTCHAR uni1EDE
ENCODING 7902
SWIDTH 600 0
DWIDTH 8 0
BBX 9 13 0 0
BITMAP
007000
002400
006080
000080
02FA40
0E0900
280600
300700
600700
600A00
600D00
347800
1BD000
ENDCHAR
STARTCHAR uni1EDF
ENCODING 7903
SWIDTH 600 0
DWIDTH 8 0
BBX 9 11 0 0
BITMAP
00A000
002400
006240
000240
06F900
1D1C00
340900
600900
600C00
347400
1BD000
ENDCHAR
STARTCHAR uni1EE0
ENCODING 7904
SWIDTH 600 0
DWIDTH 8 0
BBX 9 12 0 0
BITMAP
03D500
053880
000080
02FA40
0E0900
280600
300700
600700
600A00
600D00
347800
1BD000
ENDCHAR
STARTCHAR uni1EE1
ENCODING 7905
SWIDTH 600 0
DWIDTH 8 0
BBX 9 10 0 0
BITMAP
068800
087A40
000240
06F900
1D1C00
340900
600900
600C00
347400
1BD000
ENDCHAR
STARTCHAR uni1EE2
ENCODING 7906
SWIDTH 600 0
DWIDTH 8 0
BBX 9 15 0 -4
BITMAP
000080
000080
02FA40
0E0900
280600
300700
600700
600A00
600D00
347800
1BD000
000000
000000
0A0000
0A0000
ENDCHAR
STARTCHAR uni1EE3
ENCODING 7907
SWIDTH 600 0
DWIDTH 8 0
BBX 9 13 0 -4
BITMAP
000240
000240
06F900
1D1C00
340900
600900
600C00
347400
1BD000
000000
000000
0A0000
0A0000
ENDCHAR
STARTCHAR uni1EE4
ENCODING 7908
SWIDTH 600 0
DWIDTH 8 0
BBX 7 13 1 -4
BITMAP
300C
700C
6018
9028
D024
C030
C060
E1D0
6F40
0000
0000
2800
2800
ENDCHAR
STARTCHAR uni1EE5
ENCODING 7909
SWIDTH 600 0
DWIDTH 8 0
BBX 8 11 0 -4
BITMAP
1806
2809
240D
300C
3018
70A8
2E54
0000
0000
0A00
0A00
ENDCHAR
STARTCHAR uni1EE6
ENCODING 7910
SWIDTH 600 0
DWIDTH 8 0
BBX 7 13 1 0
BITMAP
01C0
0090
0180
0000
300C
700C
6018
9028
D024
C030
C060
E1D0
6F40
ENDCHAR
STARTCHAR uni1EE7
ENCODING 7911
SWIDTH 600 0
DWIDTH 8 0
BBX 8 11 0 0
BITMAP
00A0
0024
0060
0000
1806
2809
240D
300C
3018
70A8
2E54
ENDCHAR
STARTCHAR uni1EE8
ENCODING 7912
SWIDTH 600 0
DWIDTH 8 0
BBX 9 12 1 0
BITMAP
002000
019080
0001C0
300E40
700C00
601800
902800
D02400
C03400
C07000
E1D000
6F4000
ENDCHAR
STARTCHAR uni1EE9
ENCODING 7913
SWIDTH 600 0
DWIDTH 8 0
BBX 9 11 0 0
BITMAP
000800
007400
009080
0001C0
180740
280900
240D00
300C00
301C00
70A800
2E5400
ENDCHAR
STARTCHAR uni1EEA
ENCODING 7914
SWIDTH 600 0
DWIDTH 8 0
BBX 9 12 1 0
BITMAP
020000
018080
0001C0
300E40
700C00
601800
902800
D02400
C03400
C07000
E1D000
6F4000
ENDCHAR
STARTCHAR uni1EEB
ENCODING 7915
SWIDTH 600 0
DWIDTH 8 0
BBX 9 11 0 0
BITMAP
008000
009000
002080
0001C0
180740
280900
240D00
300C00
301C00
70A800
2E5400
ENDCHAR
STARTCHAR uni1EEC
ENCODING 7916
SWIDTH 600 0
DWIDTH 8 0
BBX 9 13 1 0
BITMAP
01C000
009000
018080
0001C0
300E40
700C00
601800
902800
D02400
C03400
C07000
E1D000
6F4000
ENDCHAR
STARTCHAR uni1EED
ENCODING 7917
SWIDTH 600 0
DWIDTH 8 0
BBX 9 11 0 0
BITMAP
00A000
002400
006080
0001C0
180740
280900
240D00
300C00
301C00
70A800
2E5400
ENDCHAR
STARTCHAR uni1EEE
ENCODING 7918
SWIDTH 600 0
DWIDTH 8 0
BBX 9 12 1 0
BITMAP
078800
08B480
0001C0
300E40
700C00
601800
902800
D02400
C03400
C07000
E1D000
6F4000
ENDCHAR
STARTCHAR uni1EEF
ENCODING 7919
SWIDTH 600 0
DWIDTH 8 0
BBX 9 10 0 0
BITMAP
029500
052880
0001C0
180740
280900
240D00
300C00
301C00
70A800
2E5400
ENDCHAR
STARTCHAR uni1EF0
ENCODING 7920
SWIDTH 600 0
DWIDTH 8 0
BBX 9 15 1 -4
BITMAP
000080
0001C0
300E40
700C00
601800
902800
D02400
C03400
C07000
E1D000
6F4000
000000
000000
280000
280000
ENDCHAR
STARTCHAR uni1EF1
ENCODING 7921
SWIDTH 600 0
DWIDTH 8 0
BBX 9 13 0 -4
BITMAP
000080
0001C0
180740
280900
240D00
300C00
301C00
70A800
2E5400
000000
000000
0A0000
0A0000
ENDCHAR
STARTCHAR Ygrave
ENCODING 7922
SWIDTH 600 0
DWIDTH 8 0
BBX 8 12 1 0
BITMAP
0200
0180
0000
6009
3018
2470
1890
0E80
0B00
0900
0D00
0C00
ENDCHAR
STARTCHAR ygrave
ENCODING 7923
SWIDTH 600 0
DWIDTH 8 0
BBX 9 14 -1 -3
BITMAP
006000
002400
000800
000000
0901C0
060240
060600
030C00
026400
01A000
01D000
018000
070000
790000
ENDCHAR
STARTCHAR uni1EF4
ENCODING 7924
SWIDTH 600 0
DWIDTH 8 0
BBX 8 13 1 -4
BITMAP
6009
3018
2470
1890
0E80
0B00
0900
0D00
0C00
0000
0000
2800
2800
ENDCHAR
STARTCHAR uni1EF5
ENCODING 7925
SWIDTH 600 0
DWIDTH 8 0
BBX 9 10 -1 -3
BITMAP
0901C0
060240
060600
030C00
026400
01A000
01D000
018000
071C00
791C00
ENDCHAR
STARTCHAR uni1EF6
ENCODING 7926
SWIDTH 600 0
DWIDTH 8 0
BBX 8 13 1 0
BITMAP
0280
00C0
0280
0000
6009
3018
2470
1890
0E80
0B00
0900
0D00
0C00
ENDCHAR
STARTCHAR uni1EF7
ENCODING 7927
SWIDTH 600 0
DWIDTH 8 0
BBX 9 14 -1 -3
BITMAP
002800
000C00
002400
000000
0901C0
060240
060600
030C00
026400
01A000
01D000
018000
070000
790000
ENDCHAR
STARTCHAR uni1EF8
ENCODING 7928
SWIDTH 600 0
DWIDTH 8 0
BBX 8 12 1 0
BITMAP
0B88
08B4
0000
6009
3018
2470
1890
0E80
0B00
0900
0D00
0C00
ENDCHAR
STARTCHAR uni1EF9
ENCODING 7929
SWIDTH 600 0
DWIDTH 8 0
BBX 9 13 -1 -3
BITMAP
00A540
014A00
000000
0901C0
060240
060600
030C00
026400
01A000
01D000
018000
070000
790000
ENDCHAR
STARTCHAR uni2007
ENCODING 8199
SWIDTH 600 0
DWIDTH 8 0
BBX 1 1 0 0
BITMAP
00
ENDCHAR
STARTCHAR uni2010
ENCODING 8208
SWIDTH 600 0
DWIDTH 8 0
BBX 7 1 1 4
BITMAP
BFF4
ENDCHAR
STARTCHAR figuredash
ENCODING 8210
SWIDTH 600 0
DWIDTH 8 0
BBX 6 1 1 3
BITMAP
FFF0
ENDCHAR
STARTCHAR endash
ENCODING 8211
SWIDTH 600 0
DWIDTH 8 0
BBX 6 1 1 3
BITMAP
FFF0
ENDCHAR
STARTCHAR emdash
ENCODING 8212
SWIDTH 600 0
DWIDTH 8 0
BBX 9 1 0 3
BITMAP
FFFF40
ENDCHAR
STARTCHAR uni2015
ENCODING 8213
SWIDTH 600 0
DWIDTH 8 0
BBX 9 1 0 3
BITMAP
FFFF40
ENDCHAR
STARTCHAR uni2016
ENCODING 8214
SWIDTH 600 0
DWIDTH 8 0
BBX 5 14 2 -4
BITMAP
9240
9240
9240
9240
9240
9240
9240
9240
9240
9240
9240
9240
9240
9240
ENDCHAR
STARTCHAR underscoredbl
ENCODING 8215
SWIDTH 600 0
DWIDTH 8 0
BBX 8 3 -1 -4
BITMAP
7FFD
0000
BFFC
ENDCHAR
STARTCHAR quoteleft
ENCODING 8216
SWIDTH 600 0
DWIDTH 8 0
BBX 4 5 3 5
BITMAP
06
28
70
78
78
ENDCHAR
STARTCHAR quoteright
ENCODING 8217
SWIDTH 600 0
DWIDTH 8 0
BBX 4 5 3 5
BITMAP
2C
2D
0C
64
90
ENDCHAR
STARTCHAR quotesinglbase
ENCODING 8218
SWIDTH 600 0
DWIDTH 8 0
BBX 4 5 2 -3
BITMAP
2C
2D
0C
64
90
ENDCHAR
STARTCHAR quotereversed
ENCODING 8219
SWIDTH 600 0
DWIDTH 8 0
BBX 3 5 3 5
BITMAP
78
B4
90
60
14
ENDCHAR
STARTCHAR quotedblleft
ENCODING 8220
SWIDTH 600 0
DWIDTH 8 0
BBX 7 5 2 5
BITMAP
1824
74D0
9280
F2D0
B2D0
ENDCHAR
STARTCHAR quotedblright
ENCODING 8221
SWIDTH 600 0
DWIDTH 8 0
BBX 7 5 1 5
BITMAP
1D38
1E78
0918
2870
6180
ENDCHAR
STARTCHAR quotedblbase
ENCODING 8222
SWIDTH 600 0
DWIDTH 8 0
BBX 7 5 1 -3
BITMAP
1D38
1E78
0918
2870
6180
ENDCHAR
STARTCHAR dagger
ENCODING 8224
SWIDTH 600 0
DWIDTH 8 0
BBX 5 11 2 -1
BITMAP
0600
0500
BFC0
0800
0800
1800
1400
2400
2000
3000
6000
ENDCHAR
STARTCHAR daggerdbl
ENCODING 8225
SWIDTH 600 0
DWIDTH 8 0
BBX 6 11 1 -1
BITMAP
0180
0140
1FF0
0200
0300
0600
0500
0900
BFC0
0800
1800
ENDCHAR
STARTCHAR bullet
ENCODING 8226
SWIDTH 600 0
DWIDTH 8 0
BBX 4 4 2 2
BITMAP
6E
BF
FF
7D
ENDCHAR
STARTCHAR ellipsis
ENCODING 8230
SWIDTH 600 0
DWIDTH 8 0
BBX 7 2 0 0
BITMAP
A35C
D75C
ENDCHAR
STARTCHAR uni202F
ENCODING 8239
SWIDTH 600 0
DWIDTH 8 0
BBX 1 1 0 0
BITMAP
00
ENDCHAR
STARTCHAR perthousand
ENCODING 8240
SWIDTH 600 0
DWIDTH 8 0
BBX 9 9 0 0
BITMAP
0B4000
254000
214640
1EA400
190000
7C7800
958800
898800
B8B400
ENDCHAR
STARTCHAR uni2032
ENCODING 8242
SWIDTH 600 0
DWIDTH 8 0
BBX 2 4 4 6
BITMAP
30
60
90
80
ENDCHAR
STARTCHAR uni2033
ENCODING 8243
SWIDTH 600 0
DWIDTH 8 0
BBX 5 4 3 6
BITMAP
6240
9300
8600
8800
ENDCHAR
STARTCHAR uni2035
ENCODING 8245
SWIDTH 600 0
DWIDTH 8 0
BBX 2 4 4 6
BITMAP
C0
90
60
20
ENDCHAR
STARTCHAR guilsinglleft
ENCODING 8249
SWIDTH 600 0
DWIDTH 8 0
BBX 4 6 2 1
BITMAP
05
18
70
70
24
08
ENDCHAR
STARTCHAR guilsinglright
ENCODING 8250
SWIDTH 600 0
DWIDTH 8 0
BBX 4 6 2 1
BITMAP
20
18
0D
1C
34
80
ENDCHAR
STARTCHAR exclamdbl
ENCODING 8252
SWIDTH 600 0
DWIDTH 8 0
BBX 7 9 1 0
BITMAP
1C24
1834
2430
2460
3060
2090
0000
E1D0
D1C0
ENDCHAR
STARTCHAR uni203D
ENCODING 8253
SWIDTH 600 0
DWIDTH 8 0
BBX 6 9 2 0
BITMAP
2F80
50D0
0CC0
1A40
1D00
2400
0000
7400
7000
ENDCHAR
STARTCHAR uni203E
ENCODING 8254
SWIDTH 600 0
DWIDTH 8 0
BBX 8 1 1 8
BITMAP
7FFD
ENDCHAR
STARTCHAR uni203F
ENCODING 8255
SWIDTH 600 0
DWIDTH 8 0
BBX 12 3 -3 -3
BITMAP
400001
690069
06FE90
ENDCHAR
STARTCHAR fraction
ENCODING 8260
SWIDTH 600 0
DWIDTH 8 0
BBX 9 8 0 1
BITMAP
000140
000600
001400
000000
000000
180000
600000
800000
ENDCHAR
STARTCHAR uni2047
ENCODING 8263
SWIDTH 600 0
DWIDTH 8 0
BBX 9 9 0 0
BITMAP
1F5F40
129280
024240
060600
181800
242000
000000
707000
70B000
ENDCHAR
STARTCHAR uni2048
ENCODING 8264
SWIDTH 600 0
DWIDTH 8 0
BBX 8 9 0 0
BITMAP
1F46
1289
0249
060C
1808
2414
0000
7074
7074
ENDCHAR
STARTCHAR uni2049
ENCODING 8265
SWIDTH 600 0
DWIDTH 8 0
BBX 9 9 0 0
BITMAP
061F40
0A1280
090240
0C0600
081800
182000
000000
347000
74B000
ENDCHAR
STARTCHAR zero.sups
ENCODING 8304
SWIDTH 600 0
DWIDTH 8 0
BBX 5 6 2 5
BITMAP
0F40
2580
6080
5080
6240
2E00
ENDCHAR
STARTCHAR i.sups
ENCODING 8305
SWIDTH 600 0
DWIDTH 8 0
BBX 4 7 3 5
BITMAP
18
00
F4
24
20
30
2D
ENDCHAR
STARTCHAR four.sups
ENCODING 8308
SWIDTH 600 0
DWIDTH 8 0
BBX 5 5 2 6
BITMAP
0200
0900
2200
7F80
0200
ENDCHAR
STARTCHAR five.sups
ENCODING 8309
SWIDTH 600 0
DWIDTH 8 0
BBX 5 6 2 5
BITMAP
0FC0
1400
2F00
1140
5240
2E00
ENDCHAR
STARTCHAR six.sups
ENCODING 8310
SWIDTH 600 0
DWIDTH 8 0
BBX 4 6 3 5
BITMAP
2E
91
ED
C6
C5
78
ENDCHAR
STARTCHAR seven.sups
ENCODING 8311
SWIDTH 600 0
DWIDTH 8 0
BBX 5 5 3 6
BITMAP
7F40
0500
1800
2000
6000
ENDCHAR
STARTCHAR eight.sups
ENCODING 8312
SWIDTH 600 0
DWIDTH 8 0
BBX 5 6 2 5
BITMAP
0B40
1980
1F40
2240
6240
2E00
ENDCHAR
STARTCHAR nine.sups
ENCODING 8313
SWIDTH 600 0
DWIDTH 8 0
BBX 4 6 3 5
BITMAP
7D
96
C6
7A
09
F4
ENDCHAR
STARTCHAR parenleft.sups
ENCODING 8317
SWIDTH 600 0
DWIDTH 8 0
BBX 3 8 4 4
BITMAP
14
20
90
80
80
80
80
80
ENDCHAR
STARTCHAR parenright.sups
ENCODING 8318
SWIDTH 600 0
DWIDTH 8 0
BBX 3 8 3 4
BITMAP
14
18
08
08
18
24
20
80
ENDCHAR
STARTCHAR n.sups
ENCODING 8319
SWIDTH 600 0
DWIDTH 8 0
BBX 5 5 2 5
BITMAP
2B80
2480
3080
2080
5180
ENDCHAR
STARTCHAR zero.subs
ENCODING 8320
SWIDTH 600 0
DWIDTH 8 0
BBX 5 6 1 -3
BITMAP
1F40
3580
6080
5180
6240
2D00
ENDCHAR
STARTCHAR one.subs
ENCODING 8321
SWIDTH 600 0
DWIDTH 8 0
BBX 5 6 1 -3
BITMAP
1B00
0600
0500
0900
0800
BF80
ENDCHAR
STARTCHAR two.subs
ENCODING 8322
SWIDTH 600 0
DWIDTH 8 0
BBX 5 6 1 -3
BITMAP
1F40
1180
0140
0600
1400
7F00
ENDCHAR
STARTCHAR three.subs
ENCODING 8323
SWIDTH 600 0
DWIDTH 8 0
BBX 5 6 1 -3
BITMAP
1F40
0240
0E00
0200
5240
2E00
ENDCHAR
STARTCHAR four.subs
ENCODING 8324
SWIDTH 600 0
DWIDTH 8 0
BBX 5 5 1 -2
BITMAP
0500
0900
2200
7F80
0200
ENDCHAR
STARTCHAR five.subs
ENCODING 8325
SWIDTH 600 0
DWIDTH 8 0
BBX 5 6 1 -3
BITMAP
0F80
1400
2E00
1240
5240
2E00
ENDCHAR
STARTCHAR six.subs
ENCODING 8326
SWIDTH 600 0
DWIDTH 8 0
BBX 5 6 1 -3
BITMAP
0B80
2400
3F00
6240
2240
2E00
ENDCHAR
STARTCHAR seven.subs
ENCODING 8327
SWIDTH 600 0
DWIDTH 8 0
BBX 4 5 2 -2
BITMAP
BF
05
14
20
50
ENDCHAR
STARTCHAR eight.subs
ENCODING 8328
SWIDTH 600 0
DWIDTH 8 0
BBX 5 6 1 -3
BITMAP
1F40
2580
1F00
6200
6240
2E00
ENDCHAR
STARTCHAR nine.subs
ENCODING 8329
SWIDTH 600 0
DWIDTH 8 0
BBX 5 6 1 -3
BITMAP
1E00
2180
3180
2E40
0200
7D00
ENDCHAR
STARTCHAR parenleft.subs
ENCODING 8333
SWIDTH 600 0
DWIDTH 8 0
BBX 3 8 3 -4
BITMAP
14
20
90
80
80
80
80
80
ENDCHAR
STARTCHAR parenright.subs
ENCODING 8334
SWIDTH 600 0
DWIDTH 8 0
BBX 3 8 2 -4
BITMAP
10
14
18
18
14
20
60
80
ENDCHAR
STARTCHAR uni0259.sups
ENCODING 8340
SWIDTH 600 0
DWIDTH 8 0
BBX 5 5 2 5
BITMAP
1F40
1180
7FC0
6180
2E00
ENDCHAR
STARTCHAR colonmonetary
ENCODING 8353
SWIDTH 600 0
DWIDTH 8 0
BBX 7 13 1 -2
BITMAP
0004
0054
06F4
1E68
3550
6240
9180
9540
9500
7660
2F80
1400
1400
ENDCHAR
STARTCHAR franc
ENCODING 8355
SWIDTH 600 0
DWIDTH 8 0
BBX 9 9 0 0
BITMAP
03FF40
060000
0A0000
090000
0FF800
0C0000
1C0000
BFC000
240000
ENDCHAR
STARTCHAR lira
ENCODING 8356
SWIDTH 600 0
DWIDTH 8 0
BBX 8 9 0 0
BITMAP
01F8
0346
0600
2FF4
0600
3FF0
0600
1800
7FF8
ENDCHAR
STARTCHAR uni20A6
ENCODING 8358
SWIDTH 600 0
DWIDTH 8 0
BBX 8 9 0 0
BITMAP
0705
0A09
0948
3FFF
1888
7FFE
2494
20A0
2070
ENDCHAR
STARTCHAR peseta
ENCODING 8359
SWIDTH 600 0
DWIDTH 8 0
BBX 8 9 1 0
BITMAP
1FE0
2824
BFFD
3024
30A0
7F80
6000
9000
C000
ENDCHAR
STARTCHAR uni20A9
ENCODING 8361
SWIDTH 600 0
DWIDTH 8 0
BBX 9 9 0 0
BITMAP
0C5240
08A300
189600
195900
7FFF00
165800
196400
28A000
28A000
ENDCHAR
STARTCHAR dong
ENCODING 8363
SWIDTH 600 0
DWIDTH 8 0
BBX 9 10 0 0
BITMAP
000900
00FF40
000C00
06E800
1D2800
242400
287400
0FB000
000000
7FF000
ENDCHAR
STARTCHAR Euro
ENCODING 8364
SWIDTH 600 0
DWIDTH 8 0
BBX 9 9 0 0
BITMAP
01BD00
074240
0D0000
3FF800
180000
7FF000
180000
0D1800
07E400
ENDCHAR
STARTCHAR uni20AE
ENCODING 8366
SWIDTH 600 0
DWIDTH 8 0
BBX 7 9 1 0
BITMAP
3FFC
0240
0350
0790
2A50
0B40
6900
0D00
0C00
ENDCHAR
STARTCHAR uni20B1
ENCODING 8369
SWIDTH 600 0
DWIDTH 8 0
BBX 8 9 1 0
BITMAP
1FD0
2874
BFFD
2424
FFFC
31A0
7E40
9000
C000
ENDCHAR
STARTCHAR uni20B2
ENCODING 8370
SWIDTH 600 0
DWIDTH 8 0
BBX 7 11 1 -1
BITMAP
0090
06F4
2918
7000
A000
D1F4
C030
D030
A0A0
2F80
0800
ENDCHAR
STARTCHAR uni20B4
ENCODING 8372
SWIDTH 600 0
DWIDTH 8 0
BBX 7 9 1 0
BITMAP
0BE0
1834
0070
BFF8
0A00
FFF4
6000
A090
2F40
ENDCHAR
STARTCHAR uni20B5
ENCODING 8373
SWIDTH 600 0
DWIDTH 8 0
BBX 7 12 1 -2
BITMAP
0050
06F4
1D88
3480
6180
9140
9200
9200
7660
1F80
0500
0400
ENDCHAR
STARTCHAR uni20B8
ENCODING 8376
SWIDTH 600 0
DWIDTH 8 0
BBX 7 9 1 0
BITMAP
3FFC
0000
7FF8
0300
0700
0600
0900
0D00
0C00
ENDCHAR
STARTCHAR uni20B9
ENCODING 8377
SWIDTH 600 0
DWIDTH 8 0
BBX 7 9 1 0
BITMAP
2FFC
0090
3FF8
0190
BE40
1C00
0A00
0300
0280
ENDCHAR
STARTCHAR uni20BA
ENCODING 8378
SWIDTH 600 0
DWIDTH 8 0
BBX 7 9 1 0
BITMAP
0D00
0C50
1E00
A980
7800
7424
3030
6190
7E40
ENDCHAR
STARTCHAR uni20BD
ENCODING 8381
SWIDTH 600 0
DWIDTH 8 0
BBX 9 9 0 0
BITMAP
02FE00
024340
030240
060700
7FF800
090000
BFFC00
0C0000
1C0000
ENDCHAR
STARTCHAR uni2105
ENCODING 8453
SWIDTH 600 0
DWIDTH 8 0
BBX 9 9 0 0
BITMAP
2D0140
910600
C01800
B81000
007D00
049600
258600
918900
40B800
ENDCHAR
STARTCHAR uni2113
ENCODING 8467
SWIDTH 600 0
DWIDTH 8 0
BBX 7 10 1 0
BITMAP
01F0
0364
0624
0920
0D80
0E40
1C00
7800
1840
0B80
ENDCHAR
STARTCHAR uni2116
ENCODING 8470
SWIDTH 600 0
DWIDTH 8 0
BBX 10 9 -1 0
BITMAP
0A19E0
0E2620
1A3520
163660
266380
225000
329B80
62C000
918000
ENDCHAR
STARTCHAR uni2117
ENCODING 8471
SWIDTH 600 0
DWIDTH 8 0
BBX 8 9 0 0
BITMAP
02F8
1906
2002
52F5
8226
83E2
5509
2968
1F90
ENDCHAR
STARTCHAR uni2120
ENCODING 8480
SWIDTH 600 0
DWIDTH 8 0
BBX 8 5 1 5
BITMAP
78C6
85CA
61A9
5A65
B608
ENDCHAR
STARTCHAR trademark
ENCODING 8482
SWIDTH 600 0
DWIDTH 8 0
BBX 8 5 1 5
BITMAP
FDD3
209A
21AA
2176
5205
ENDCHAR
STARTCHAR uni2126
ENCODING 8486
SWIDTH 600 0
DWIDTH 8 0
BBX 9 9 -1 0
BITMAP
00BE00
038280
0A01C0
0C00C0
1801C0
180280
180200
090900
7E2F40
ENDCHAR
STARTCHAR estimated
ENCODING 8494
SWIDTH 600 0
DWIDTH 8 0
BBX 8 9 0 0
BITMAP
07E0
2818
7409
B40B
BFFF
B400
7404
2814
07D0
ENDCHAR
STARTCHAR uni2150
ENCODING 8528
SWIDTH 600 0
DWIDTH 8 0
BBX 9 9 0 0
BITMAP
280140
180600
141400
240000
000000
18BF00
600800
802400
002000
ENDCHAR
STARTCHAR uni2151
ENCODING 8529
SWIDTH 600 0
DWIDTH 8 0
BBX 9 9 0 0
BITMAP
280140
180600
141400
240000
007800
188500
60C900
80BD00
00B400
ENDCHAR
STARTCHAR uni2152
ENCODING 8530
SWIDTH 600 0
DWIDTH 8 0
BBX 9 9 0 0
BITMAP
0F0000
020000
060640
016400
190000
007800
788800
188800
14B400
ENDCHAR
STARTCHAR onethird
ENCODING 8531
SWIDTH 600 0
DWIDTH 8 0
BBX 9 9 0 0
BITMAP
280140
180600
141400
240000
002D00
180900
602800
804900
00B800
ENDCHAR
STARTCHAR twothirds
ENCODING 8532
SWIDTH 600 0
DWIDTH 8 0
BBX 9 10 0 0
BITMAP
3C0000
490140
080600
601400
FD0000
002D00
180900
602800
804900
00B800
ENDCHAR
STARTCHAR uni2155
ENCODING 8533
SWIDTH 600 0
DWIDTH 8 0
BBX 9 9 0 0
BITMAP
280140
180600
141400
240000
000000
187E00
60BC00
808900
00B800
ENDCHAR
STARTCHAR uni2156
ENCODING 8534
SWIDTH 600 0
DWIDTH 8 0
BBX 9 10 0 0
BITMAP
3C0000
490140
080600
601400
FD0000
000000
187E00
60BC00
808900
00B800
ENDCHAR
STARTCHAR uni2157
ENCODING 8535
SWIDTH 600 0
DWIDTH 8 0
BBX 9 10 0 0
BITMAP
2D0000
190140
280600
491400
780000
000000
187E00
60BC00
808900
00B800
ENDCHAR
STARTCHAR uni2158
ENCODING 8536
SWIDTH 600 0
DWIDTH 8 0
BBX 9 9 0 0
BITMAP
140140
580600
FE1400
080000
000000
187E00
60BC00
808900
00B800
ENDCHAR
STARTCHAR uni2159
ENCODING 8537
SWIDTH 600 0
DWIDTH 8 0
BBX 9 9 0 0
BITMAP
280140
180600
141400
240000
002D00
189000
60FD00
80C900
007800
ENDCHAR
STARTCHAR uni215A
ENCODING 8538
SWIDTH 600 0
DWIDTH 8 0
BBX 9 9 0 0
BITMAP
3E0140
7D0600
891400
B80000
002D00
189000
60FD00
80C900
007800
ENDCHAR
STARTCHAR oneeighth
ENCODING 8539
SWIDTH 600 0
DWIDTH 8 0
BBX 9 9 0 0
BITMAP
280140
180600
141400
240000
007D00
185500
607C00
808900
00B800
ENDCHAR
STARTCHAR threeeighths
ENCODING 8540
SWIDTH 600 0
DWIDTH 8 0
BBX 9 10 0 0
BITMAP
2D0000
190140
280600
491400
780000
007D00
185500
607C00
808900
00B800
ENDCHAR
STARTCHAR fiveeighths
ENCODING 8541
SWIDTH 600 0
DWIDTH 8 0
BBX 9 9 0 0
BITMAP
3E0140
7D0600
891400
B80000
007D00
185500
607C00
808900
00B800
ENDCHAR
STARTCHAR seveneighths
ENCODING 8542
SWIDTH 600 0
DWIDTH 8 0
BBX 9 9 0 0
BITMAP
7F0140
090600
241400
200000
007D00
185500
607C00
808900
00B800
ENDCHAR
STARTCHAR uni2189
ENCODING 8585
SWIDTH 600 0
DWIDTH 8 0
BBX 9 10 0 0
BITMAP
2D0000
930140
820600
C61400
B80000
002D00
180900
602800
804900
00B800
ENDCHAR
STARTCHAR uni2190
ENCODING 8592
SWIDTH 600 0
DWIDTH 8 0
BBX 8 7 0 0
BITMAP
0240
0900
2400
BFFF
2400
0900
0240
ENDCHAR
STARTCHAR arrowup
ENCODING 8593
SWIDTH 600 0
DWIDTH 8 0
BBX 8 8 0 0
BITMAP
0180
07E0
1998
618A
0180
0180
0180
0180
ENDCHAR
STARTCHAR uni2192
ENCODING 8594
SWIDTH 600 0
DWIDTH 8 0
BBX 8 7 0 0
BITMAP
0090
0024
0009
BFFF
0009
0024
0090
ENDCHAR
STARTCHAR arrowdown
ENCODING 8595
SWIDTH 600 0
DWIDTH 8 0
BBX 8 8 0 0
BITMAP
0180
0180
0180
0181
618A
1998
07E0
0180
ENDCHAR
STARTCHAR arrowboth
ENCODING 8596
SWIDTH 600 0
DWIDTH 8 0
BBX 9 7 0 0
BITMAP
040000
240800
600600
FFFF40
600600
240800
040000
ENDCHAR
STARTCHAR arrowupdn
ENCODING 8597
SWIDTH 600 0
DWIDTH 8 0
BBX 6 9 1 -1
BITMAP
0600
2A80
9660
0600
0600
0600
9660
2A80
0600
ENDCHAR
STARTCHAR uni2196
ENCODING 8598
SWIDTH 600 0
DWIDTH 8 0
BBX 6 7 1 0
BITMAP
5540
BA90
A800
8A00
9280
90A0
0010
ENDCHAR
STARTCHAR uni2197
ENCODING 8599
SWIDTH 600 0
DWIDTH 8 0
BBX 6 7 1 0
BITMAP
1550
6AF0
01A0
0620
1820
6020
4000
ENDCHAR
STARTCHAR uni2198
ENCODING 8600
SWIDTH 600 0
DWIDTH 8 0
BBX 6 7 1 0
BITMAP
4000
6020
1820
0620
01A0
6AB0
1550
ENDCHAR
STARTCHAR uni2199
ENCODING 8601
SWIDTH 600 0
DWIDTH 8 0
BBX 6 7 1 0
BITMAP
0010
5060
9180
9600
A800
BA90
1540
ENDCHAR
STARTCHAR arrowupdnbse
ENCODING 8616
SWIDTH 600 0
DWIDTH 8 0
BBX 7 10 1 -2
BITMAP
0600
1B80
6660
0600
0600
0600
6660
1F80
0600
FFF8
ENDCHAR
STARTCHAR uni21D0
ENCODING 8656
SWIDTH 600 0
DWIDTH 8 0
BBX 8 7 0 0
BITMAP
0240
0A00
2FFF
A000
2FFF
0A00
0240
ENDCHAR
STARTCHAR uni21D1
ENCODING 8657
SWIDTH 600 0
DWIDTH 8 0
BBX 8 8 0 0
BITMAP
0180
07A0
1D38
692A
0521
0520
0520
0520
ENDCHAR
STARTCHAR uni21D2
ENCODING 8658
SWIDTH 600 0
DWIDTH 8 0
BBX 8 7 0 0
BITMAP
0080
0060
BFFD
0007
BFFD
0060
0080
ENDCHAR
STARTCHAR uni21D3
ENCODING 8659
SWIDTH 600 0
DWIDTH 8 0
BBX 8 8 0 0
BITMAP
0520
0520
0520
0521
692A
1D38
07A0
0180
ENDCHAR
STARTCHAR uni2200
ENCODING 8704
SWIDTH 600 0
DWIDTH 8 0
BBX 8 9 1 0
BITMAP
A009
601C
6574
7AA0
3090
3180
2200
2A00
2C00
ENDCHAR
STARTCHAR partialdiff
ENCODING 8706
SWIDTH 600 0
DWIDTH 8 0
BBX 8 9 0 0
BITMAP
01F8
010D
0006
0006
0BE9
281D
7018
7060
2F80
ENDCHAR
STARTCHAR uni2203
ENCODING 8707
SWIDTH 600 0
DWIDTH 8 0
BBX 8 9 0 0
BITMAP
1FFD
0009
000C
001C
1FF8
0024
0034
0030
FFE0
ENDCHAR
STARTCHAR uni2206
ENCODING 8710
SWIDTH 600 0
DWIDTH 8 0
BBX 8 9 -1 0
BITMAP
002C
006C
0089
0189
0306
0906
0C07
2403
7FFF
ENDCHAR
STARTCHAR product
ENCODING 8719
SWIDTH 600 0
DWIDTH 8 0
BBX 8 10 0 -1
BITMAP
7FFE
6006
6006
6006
6006
6006
6006
6006
6006
6006
ENDCHAR
STARTCHAR summation
ENCODING 8721
SWIDTH 600 0
DWIDTH 8 0
BBX 7 11 1 -2
BITMAP
FFF0
6000
2400
0C00
0600
0340
0600
1C00
3400
A000
FFF8
ENDCHAR
STARTCHAR minus
ENCODING 8722
SWIDTH 600 0
DWIDTH 8 0
BBX 7 1 1 4
BITMAP
BFF4
ENDCHAR
STARTCHAR uni2215
ENCODING 8725
SWIDTH 600 0
DWIDTH 8 0
BBX 9 8 0 1
BITMAP
000140
000600
001400
000000
000000
180000
600000
800000
ENDCHAR
STARTCHAR uni2219
ENCODING 8729
SWIDTH 600 0
DWIDTH 8 0
BBX 3 2 2 4
BITMAP
74
74
ENDCHAR
STARTCHAR radical
ENCODING 8730
SWIDTH 600 0
DWIDTH 8 0
BBX 7 13 1 -1
BITMAP
0004
0008
0008
0014
0020
0020
6020
6050
1490
0880
0980
0640
0340
ENDCHAR
STARTCHAR infinity
ENCODING 8734
SWIDTH 600 0
DWIDTH 8 0
BBX 9 5 0 2
BITMAP
7C2E00
969240
C28140
D69240
786E00
ENDCHAR
STARTCHAR orthogonal
ENCODING 8735
SWIDTH 600 0
DWIDTH 8 0
BBX 7 7 1 1
BITMAP
4000
8000
8000
8000
8000
8000
BFF4
ENDCHAR
STARTCHAR intersection
ENCODING 8745
SWIDTH 600 0
DWIDTH 8 0
BBX 6 7 1 1
BITMAP
1F80
74A0
9030
9030
9030
9030
9030
ENDCHAR
STARTCHAR integral
ENCODING 8747
SWIDTH 600 0
DWIDTH 8 0
BBX 4 13 2 -2
BITMAP
0B
1C
18
18
18
18
0C
0C
0C
08
0C
0C
74
ENDCHAR
STARTCHAR uni2237
ENCODING 8759
SWIDTH 600 0
DWIDTH 8 0
BBX 7 7 1 1
BITMAP
3838
3874
0000
0000
0000
E0E0
E1D0
ENDCHAR
STARTCHAR approxequal
ENCODING 8776
SWIDTH 600 0
DWIDTH 8 0
BBX 6 5 1 3
BITMAP
7D20
96E0
0000
7D20
96E0
ENDCHAR
STARTCHAR notequal
ENCODING 8800
SWIDTH 600 0
DWIDTH 8 0
BBX 7 8 1 1
BITMAP
0060
0080
BFF4
0200
0900
BFF4
2400
2000
ENDCHAR
STARTCHAR equivalence
ENCODING 8801
SWIDTH 600 0
DWIDTH 8 0
BBX 7 7 1 1
BITMAP
BFF4
0000
0000
BFF4
0000
0000
BFF4
ENDCHAR
STARTCHAR lessequal
ENCODING 8804
SWIDTH 600 0
DWIDTH 8 0
BBX 7 7 1 0
BITMAP
01B0
1A40
A400
1A40
01B0
0000
BFF4
ENDCHAR
STARTCHAR greaterequal
ENCODING 8805
SWIDTH 600 0
DWIDTH 8 0
BBX 7 7 1 0
BITMAP
A400
1B90
00B4
1B90
A400
0000
BFF4
ENDCHAR
STARTCHAR house
ENCODING 8962
SWIDTH 600 0
DWIDTH 8 0
BBX 8 9 0 0
BITMAP
02C0
0660
0C28
240D
6006
6006
6006
6006
7FFE
ENDCHAR
STARTCHAR revlogicalnot
ENCODING 8976
SWIDTH 600 0
DWIDTH 8 0
BBX 7 4 1 1
BITMAP
BFF4
8000
8000
8000
ENDCHAR
STARTCHAR uni231C
ENCODING 8988
SWIDTH 600 0
DWIDTH 8 0
BBX 6 11 2 -1
BITMAP
0FF0
0800
1800
1400
2400
3000
2000
6000
5000
9000
4000
ENDCHAR
STARTCHAR uni231D
ENCODING 8989
SWIDTH 600 0
DWIDTH 8 0
BBX 5 10 2 0
BITMAP
7F40
0200
0200
0200
0600
0500
0800
0800
0800
1800
ENDCHAR
STARTCHAR uni231E
ENCODING 8990
SWIDTH 600 0
DWIDTH 8 0
BBX 4 10 2 -1
BITMAP
08
18
24
20
20
20
60
50
80
FF
ENDCHAR
STARTCHAR uni231F
ENCODING 8991
SWIDTH 600 0
DWIDTH 8 0
BBX 6 10 0 -1
BITMAP
0020
0030
0020
0060
0090
0080
00C0
0080
0180
7F40
ENDCHAR
STARTCHAR integraltp
ENCODING 8992
SWIDTH 600 0
DWIDTH 8 0
BBX 4 17 3 -6
BITMAP
1D
30
60
60
60
60
60
60
60
60
60
60
60
60
60
60
60
ENDCHAR
STARTCHAR integralbt
ENCODING 8993
SWIDTH 600 0
DWIDTH 8 0
BBX 3 17 2 -2
BITMAP
04
18
18
18
18
18
18
18
18
18
18
18
18
18
18
24
A0
ENDCHAR
STARTCHAR uni2500
ENCODING 9472
SWIDTH 600 0
DWIDTH 8 0
BBX 10 1 -1 4
BITMAP
BFFFF0
ENDCHAR
STARTCHAR uni2501
ENCODING 9473
SWIDTH 600 0
DWIDTH 8 0
BBX 10 2 -1 3
BITMAP
BFFFF0
BFFFF0
ENDCHAR
STARTCHAR uni2502
ENCODING 9474
SWIDTH 600 0
DWIDTH 8 0
BBX 2 20 3 -6
BITMAP
60
60
60
60
60
60
60
60
60
60
60
60
60
60
60
60
60
60
60
60
ENDCHAR
STARTCHAR uni2503
ENCODING 9475
SWIDTH 600 0
DWIDTH 8 0
BBX 3 20 3 -6
BITMAP
F4
F4
F4
F4
F4
F4
F4
F4
F4
F4
F4
F4
F4
F4
F4
F4
F4
F4
F4
F4
ENDCHAR
STARTCHAR uni2504
ENCODING 9476
SWIDTH 600 0
DWIDTH 8 0
BBX 8 1 0 4
BITMAP
B6CF
ENDCHAR
STARTCHAR uni2505
ENCODING 9477
SWIDTH 600 0
DWIDTH 8 0
BBX 8 2 0 3
BITMAP
B6CF
B6CF
ENDCHAR
STARTCHAR uni2506
ENCODING 9478
SWIDTH 600 0
DWIDTH 8 0
BBX 2 16 3 -4
BITMAP
60
60
60
60
00
00
60
60
60
50
00
10
60
60
60
10
ENDCHAR
STARTCHAR uni2507
ENCODING 9479
SWIDTH 600 0
DWIDTH 8 0
BBX 3 15 3 -3
BITMAP
F4
F4
F4
F4
00
00
F4
F4
F4
F4
00
F4
F4
F4
F4
ENDCHAR
STARTCHAR uni2508
ENCODING 9480
SWIDTH 600 0
DWIDTH 8 0
BBX 8 1 0 4
BITMAP
ABB7
ENDCHAR
STARTCHAR uni2509
ENCODING 9481
SWIDTH 600 0
DWIDTH 8 0
BBX 8 2 0 3
BITMAP
ABB7
ABB7
ENDCHAR
STARTCHAR uni250A
ENCODING 9482
SWIDTH 600 0
DWIDTH 8 0
BBX 2 16 3 -4
BITMAP
60
60
60
00
60
60
60
00
60
60
60
00
00
60
60
60
ENDCHAR
STARTCHAR uni250B
ENCODING 9483
SWIDTH 600 0
DWIDTH 8 0
BBX 3 16 3 -4
BITMAP
F4
F4
F4
00
F4
F4
F4
00
F4
F4
F4
00
00
F4
F4
F4
ENDCHAR
STARTCHAR uni250C
ENCODING 9484
SWIDTH 600 0
DWIDTH 8 0
BBX 6 11 3 -6
BITMAP
7FF0
6000
6000
6000
6000
6000
6000
6000
6000
6000
1000
ENDCHAR
STARTCHAR uni250D
ENCODING 9485
SWIDTH 600 0
DWIDTH 8 0
BBX 6 11 3 -6
BITMAP
7FF0
7FF0
6000
6000
6000
6000
6000
6000
6000
6000
6000
ENDCHAR
STARTCHAR uni250E
ENCODING 9486
SWIDTH 600 0
DWIDTH 8 0
BBX 6 11 3 -6
BITMAP
FFF0
F400
F400
F400
F400
F400
F400
F400
F400
F400
5000
ENDCHAR
STARTCHAR uni250F
ENCODING 9487
SWIDTH 600 0
DWIDTH 8 0
BBX 6 11 3 -6
BITMAP
FFF0
FFF0
F400
F400
F400
F400
F400
F400
F400
F400
A400
ENDCHAR
STARTCHAR uni2510
ENCODING 9488
SWIDTH 600 0
DWIDTH 8 0
BBX 6 11 -1 -6
BITMAP
BFE0
0060
0060
0060
0060
0060
0060
0060
0060
0060
0010
ENDCHAR
STARTCHAR uni2511
ENCODING 9489
SWIDTH 600 0
DWIDTH 8 0
BBX 6 11 -1 -6
BITMAP
BFE0
BFE0
0060
0060
0060
0060
0060
0060
0060
0060
0060
ENDCHAR
STARTCHAR uni2512
ENCODING 9490
SWIDTH 600 0
DWIDTH 8 0
BBX 7 11 -1 -6
BITMAP
BFF4
00F4
00F4
00F4
00F4
00F4
00F4
00F4
00F4
00F4
0050
ENDCHAR
STARTCHAR uni2513
ENCODING 9491
SWIDTH 600 0
DWIDTH 8 0
BBX 7 11 -1 -6
BITMAP
BFF4
BFF4
00F4
00F4
00F4
00F4
00F4
00F4
00F4
00F4
00A4
ENDCHAR
STARTCHAR uni2514
ENCODING 9492
SWIDTH 600 0
DWIDTH 8 0
BBX 6 11 3 4
BITMAP
1000
6000
6000
6000
6000
6000
6000
6000
6000
6000
7FF0
ENDCHAR
STARTCHAR uni2515
ENCODING 9493
SWIDTH 600 0
DWIDTH 8 0
BBX 6 11 3 3
BITMAP
6000
6000
6000
6000
6000
6000
6000
6000
6000
7FF0
7FF0
ENDCHAR
STARTCHAR uni2516
ENCODING 9494
SWIDTH 600 0
DWIDTH 8 0
BBX 6 11 3 4
BITMAP
5000
F400
F400
F400
F400
F400
F400
F400
F400
F400
FFF0
ENDCHAR
STARTCHAR uni2517
ENCODING 9495
SWIDTH 600 0
DWIDTH 8 0
BBX 6 11 3 3
BITMAP
A400
F400
F400
F400
F400
F400
F400
F400
F400
FFF0
FFF0
ENDCHAR
STARTCHAR uni2518
ENCODING 9496
SWIDTH 600 0
DWIDTH 8 0
BBX 6 11 -1 4
BITMAP
0010
0060
0060
0060
0060
0060
0060
0060
0060
0060
BFE0
ENDCHAR
STARTCHAR uni2519
ENCODING 9497
SWIDTH 600 0
DWIDTH 8 0
BBX 6 11 -1 3
BITMAP
0060
0060
0060
0060
0060
0060
0060
0060
0060
BFE0
BFE0
ENDCHAR
STARTCHAR uni251A
ENCODING 9498
SWIDTH 600 0
DWIDTH 8 0
BBX 7 11 -1 4
BITMAP
0050
00F4
00F4
00F4
00F4
00F4
00F4
00F4
00F4
00F4
BFF4
ENDCHAR
STARTCHAR uni251B
ENCODING 9499
SWIDTH 600 0
DWIDTH 8 0
BBX 7 11 -1 3
BITMAP
00A4
00F4
00F4
00F4
00F4
00F4
00F4
00F4
00F4
BFF4
BFF4
ENDCHAR
STARTCHAR uni251C
ENCODING 9500
SWIDTH 600 0
DWIDTH 8 0
BBX 6 21 3 -6
BITMAP
1000
6000
6000
6000
6000
6000
6000
6000
6000
6000
7FF0
6000
6000
6000
6000
6000
6000
6000
6000
6000
1000
ENDCHAR
STARTCHAR uni251D
ENCODING 9501
SWIDTH 600 0
DWIDTH 8 0
BBX 6 20 3 -6
BITMAP
6000
6000
6000
6000
6000
6000
6000
6000
6000
7FF0
7FF0
6000
6000
6000
6000
6000
6000
6000
6000
6000
ENDCHAR
STARTCHAR uni251E
ENCODING 9502
SWIDTH 600 0
DWIDTH 8 0
BBX 6 21 3 -6
BITMAP
5000
F400
F400
F400
F400
F400
F400
F400
F400
F400
FFF0
6000
6000
6000
6000
6000
6000
6000
6000
6000
1000
ENDCHAR
STARTCHAR uni251F
ENCODING 9503
SWIDTH 600 0
DWIDTH 8 0
BBX 6 21 3 -6
BITMAP
1000
6000
6000
6000
6000
6000
6000
6000
6000
6000
FFF0
F400
F400
F400
F400
F400
F400
F400
F400
F400
5000
ENDCHAR
STARTCHAR uni2520
ENCODING 9504
SWIDTH 600 0
DWIDTH 8 0
BBX 6 21 3 -6
BITMAP
5000
F400
F400
F400
F400
F400
F400
F400
F400
F400
FFF0
F400
F400
F400
F400
F400
F400
F400
F400
F400
5000
ENDCHAR
STARTCHAR uni2521
ENCODING 9505
SWIDTH 600 0
DWIDTH 8 0
BBX 6 20 3 -6
BITMAP
A400
F400
F400
F400
F400
F400
F400
F400
F400
FFF0
FFF0
6000
6000
6000
6000
6000
6000
6000
6000
6000
ENDCHAR
STARTCHAR uni2522
ENCODING 9506
SWIDTH 600 0
DWIDTH 8 0
BBX 6 20 3 -6
BITMAP
6000
6000
6000
6000
6000
6000
6000
6000
6000
FFF0
FFF0
F400
F400
F400
F400
F400
F400
F400
F400
A400
ENDCHAR
STARTCHAR uni2523
ENCODING 9507
SWIDTH 600 0
DWIDTH 8 0
BBX 6 20 3 -6
BITMAP
A400
F400
F400
F400
F400
F400
F400
F400
F400
FFF0
FFF0
F400
F400
F400
F400
F400
F400
F400
F400
A400
ENDCHAR
STARTCHAR uni2524
ENCODING 9508
SWIDTH 600 0
DWIDTH 8 0
BBX 6 21 -1 -6
BITMAP
0010
0060
0060
0060
0060
0060
0060
0060
0060
0060
BFE0
0060
0060
0060
0060
0060
0060
0060
0060
0060
0010
ENDCHAR
STARTCHAR uni2525
ENCODING 9509
SWIDTH 600 0
DWIDTH 8 0
BBX 6 20 -1 -6
BITMAP
0060
0060
0060
0060
0060
0060
0060
0060
0060
BFE0
BFE0
0060
0060
0060
0060
0060
0060
0060
0060
0060
ENDCHAR
STARTCHAR uni2526
ENCODING 9510
SWIDTH 600 0
DWIDTH 8 0
BBX 7 21 -1 -6
BITMAP
0050
00F4
00F4
00F4
00F4
00F4
00F4
00F4
00F4
00F4
BFF4
0060
0060
0060
0060
0060
0060
0060
0060
0060
0010
ENDCHAR
STARTCHAR uni2527
ENCODING 9511
SWIDTH 600 0
DWIDTH 8 0
BBX 7 21 -1 -6
BITMAP
0010
0060
0060
0060
0060
0060
0060
0060
0060
0060
BFF4
00F4
00F4
00F4
00F4
00F4
00F4
00F4
00F4
00F4
0050
ENDCHAR
STARTCHAR uni2528
ENCODING 9512
SWIDTH 600 0
DWIDTH 8 0
BBX 7 21 -1 -6
BITMAP
0050
00F4
00F4
00F4
00F4
00F4
00F4
00F4
00F4
00F4
BFF4
00F4
00F4
00F4
00F4
00F4
00F4
00F4
00F4
00F4
0050
ENDCHAR
STARTCHAR uni2529
ENCODING 9513
SWIDTH 600 0
DWIDTH 8 0
BBX 7 20 -1 -6
BITMAP
00A4
00F4
00F4
00F4
00F4
00F4
00F4
00F4
00F4
BFF4
BFF4
0060
0060
0060
0060
0060
0060
0060
0060
0060
ENDCHAR
STARTCHAR uni252A
ENCODING 9514
SWIDTH 600 0
DWIDTH 8 0
BBX 7 20 -1 -6
BITMAP
0060
0060
0060
0060
0060
0060
0060
0060
0060
BFF4
BFF4
00F4
00F4
00F4
00F4
00F4
00F4
00F4
00F4
00A4
ENDCHAR
STARTCHAR uni252B
ENCODING 9515
SWIDTH 600 0
DWIDTH 8 0
BBX 7 20 -1 -6
BITMAP
00A4
00F4
00F4
00F4
00F4
00F4
00F4
00F4
00F4
BFF4
BFF4
00F4
00F4
00F4
00F4
00F4
00F4
00F4
00F4
00A4
ENDCHAR
STARTCHAR uni252C
ENCODING 9516
SWIDTH 600 0
DWIDTH 8 0
BBX 10 11 -1 -6
BITMAP
BFFFF0
006000
006000
006000
006000
006000
006000
006000
006000
006000
001000
ENDCHAR
STARTCHAR uni252D
ENCODING 9517
SWIDTH 600 0
DWIDTH 8 0
BBX 10 11 -1 -6
BITMAP
BFFFF0
BFE000
006000
006000
006000
006000
006000
006000
006000
006000
006000
ENDCHAR
STARTCHAR uni252E
ENCODING 9518
SWIDTH 600 0
DWIDTH 8 0
BBX 10 11 -1 -6
BITMAP
BFFFF0
007FF0
006000
006000
006000
006000
006000
006000
006000
006000
006000
ENDCHAR
STARTCHAR uni252F
ENCODING 9519
SWIDTH 600 0
DWIDTH 8 0
BBX 10 11 -1 -6
BITMAP
BFFFF0
BFFFF0
006000
006000
006000
006000
006000
006000
006000
006000
006000
ENDCHAR
STARTCHAR uni2530
ENCODING 9520
SWIDTH 600 0
DWIDTH 8 0
BBX 10 11 -1 -6
BITMAP
BFFFF0
00F400
00F400
00F400
00F400
00F400
00F400
00F400
00F400
00F400
005000
ENDCHAR
STARTCHAR uni2531
ENCODING 9521
SWIDTH 600 0
DWIDTH 8 0
BBX 10 11 -1 -6
BITMAP
BFFFF0
BFF400
00F400
00F400
00F400
00F400
00F400
00F400
00F400
00F400
00A400
ENDCHAR
STARTCHAR uni2532
ENCODING 9522
SWIDTH 600 0
DWIDTH 8 0
BBX 10 11 -1 -6
BITMAP
BFFFF0
00FFF0
00F400
00F400
00F400
00F400
00F400
00F400
00F400
00F400
00A400
ENDCHAR
STARTCHAR uni2533
ENCODING 9523
SWIDTH 600 0
DWIDTH 8 0
BBX 10 11 -1 -6
BITMAP
BFFFF0
BFFFF0
00F400
00F400
00F400
00F400
00F400
00F400
00F400
00F400
00A400
ENDCHAR
STARTCHAR uni2534
ENCODING 9524
SWIDTH 600 0
DWIDTH 8 0
BBX 10 11 -1 4
BITMAP
001000
006000
006000
006000
006000
006000
006000
006000
006000
006000
BFFFF0
ENDCHAR
STARTCHAR uni2535
ENCODING 9525
SWIDTH 600 0
DWIDTH 8 0
BBX 10 11 -1 3
BITMAP
006000
006000
006000
006000
006000
006000
006000
006000
006000
BFFFF0
BFE000
ENDCHAR
STARTCHAR uni2536
ENCODING 9526
SWIDTH 600 0
DWIDTH 8 0
BBX 10 11 -1 3
BITMAP
006000
006000
006000
006000
006000
006000
006000
006000
006000
BFFFF0
007FF0
ENDCHAR
STARTCHAR uni2537
ENCODING 9527
SWIDTH 600 0
DWIDTH 8 0
BBX 10 11 -1 3
BITMAP
006000
006000
006000
006000
006000
006000
006000
006000
006000
BFFFF0
BFFFF0
ENDCHAR
STARTCHAR uni2538
ENCODING 9528
SWIDTH 600 0
DWIDTH 8 0
BBX 10 11 -1 4
BITMAP
005000
00F400
00F400
00F400
00F400
00F400
00F400
00F400
00F400
00F400
BFFFF0
ENDCHAR
STARTCHAR uni2539
ENCODING 9529
SWIDTH 600 0
DWIDTH 8 0
BBX 10 11 -1 3
BITMAP
00A400
00F400
00F400
00F400
00F400
00F400
00F400
00F400
00F400
BFFFF0
BFF400
ENDCHAR
STARTCHAR uni253A
ENCODING 9530
SWIDTH 600 0
DWIDTH 8 0
BBX 10 11 -1 3
BITMAP
00A400
00F400
00F400
00F400
00F400
00F400
00F400
00F400
00F400
BFFFF0
00FFF0
ENDCHAR
STARTCHAR uni253B
ENCODING 9531
SWIDTH 600 0
DWIDTH 8 0
BBX 10 11 -1 3
BITMAP
00A400
00F400
00F400
00F400
00F400
00F400
00F400
00F400
00F400
BFFFF0
BFFFF0
ENDCHAR
STARTCHAR uni253C
ENCODING 9532
SWIDTH 600 0
DWIDTH 8 0
BBX 10 21 -1 -6
BITMAP
001000
006000
006000
006000
006000
006000
006000
006000
006000
006000
BFFFF0
006000
006000
006000
006000
006000
006000
006000
006000
006000
001000
ENDCHAR
STARTCHAR uni253D
ENCODING 9533
SWIDTH 600 0
DWIDTH 8 0
BBX 10 20 -1 -6
BITMAP
006000
006000
006000
006000
006000
006000
006000
006000
006000
BFFFF0
BFE000
006000
006000
006000
006000
006000
006000
006000
006000
006000
ENDCHAR
STARTCHAR uni253E
ENCODING 9534
SWIDTH 600 0
DWIDTH 8 0
BBX 10 20 -1 -6
BITMAP
006000
006000
006000
006000
006000
006000
006000
006000
006000
BFFFF0
007FF0
006000
006000
006000
006000
006000
006000
006000
006000
006000
ENDCHAR
STARTCHAR uni253F
ENCODING 9535
SWIDTH 600 0
DWIDTH 8 0
BBX 10 20 -1 -6
BITMAP
006000
006000
006000
006000
006000
006000
006000
006000
006000
BFFFF0
BFFFF0
006000
006000
006000
006000
006000
006000
006000
006000
006000
ENDCHAR
STARTCHAR uni2540
ENCODING 9536
SWIDTH 600 0
DWIDTH 8 0
BBX 10 21 -1 -6
BITMAP
005000
00F400
00F400
00F400
00F400
00F400
00F400
00F400
00F400
00F400
BFFFF0
006000
006000
006000
006000
006000
006000
006000
006000
006000
001000
ENDCHAR
STARTCHAR uni2541
ENCODING 9537
SWIDTH 600 0
DWIDTH 8 0
BBX 10 21 -1 -6
BITMAP
001000
006000
006000
006000
006000
006000
006000
006000
006000
006000
BFFFF0
00F400
00F400
00F400
00F400
00F400
00F400
00F400
00F400
00F400
005000
ENDCHAR
STARTCHAR uni2542
ENCODING 9538
SWIDTH 600 0
DWIDTH 8 0
BBX 10 21 -1 -6
BITMAP
005000
00F400
00F400
00F400
00F400
00F400
00F400
00F400
00F400
00F400
BFFFF0
00F400
00F400
00F400
00F400
00F400
00F400
00F400
00F400
00F400
005000
ENDCHAR
STARTCHAR uni2543
ENCODING 9539
SWIDTH 600 0
DWIDTH 8 0
BBX 10 20 -1 -6
BITMAP
00A400
00F400
00F400
00F400
00F400
00F400
00F400
00F400
00F400
BFFFF0
BFF400
006000
006000
006000
006000
006000
006000
006000
006000
006000
ENDCHAR
STARTCHAR uni2544
ENCODING 9540
SWIDTH 600 0
DWIDTH 8 0
BBX 10 20 -1 -6
BITMAP
00A400
00F400
00F400
00F400
00F400
00F400
00F400
00F400
00F400
BFFFF0
00FFF0
006000
006000
006000
006000
006000
006000
006000
006000
006000
ENDCHAR
STARTCHAR uni2545
ENCODING 9541
SWIDTH 600 0
DWIDTH 8 0
BBX 10 20 -1 -6
BITMAP
006000
006000
006000
006000
006000
006000
006000
006000
006000
BFFFF0
BFF400
00F400
00F400
00F400
00F400
00F400
00F400
00F400
00F400
00A400
ENDCHAR
STARTCHAR uni2546
ENCODING 9542
SWIDTH 600 0
DWIDTH 8 0
BBX 10 20 -1 -6
BITMAP
006000
006000
006000
006000
006000
006000
006000
006000
006000
BFFFF0
00FFF0
00F400
00F400
00F400
00F400
00F400
00F400
00F400
00F400
00A400
ENDCHAR
STARTCHAR uni2547
ENCODING 9543
SWIDTH 600 0
DWIDTH 8 0
BBX 10 20 -1 -6
BITMAP
00A400
00F400
00F400
00F400
00F400
00F400
00F400
00F400
00F400
BFFFF0
BFFFF0
006000
006000
006000
006000
006000
006000
006000
006000
006000
ENDCHAR
STARTCHAR uni2548
ENCODING 9544
SWIDTH 600 0
DWIDTH 8 0
BBX 10 20 -1 -6
BITMAP
006000
006000
006000
006000
006000
006000
006000
006000
006000
BFFFF0
BFFFF0
00F400
00F400
00F400
00F400
00F400
00F400
00F400
00F400
00A400
ENDCHAR
STARTCHAR uni2549
ENCODING 9545
SWIDTH 600 0
DWIDTH 8 0
BBX 10 20 -1 -6
BITMAP
00A400
00F400
00F400
00F400
00F400
00F400
00F400
00F400
00F400
BFFFF0
BFF400
00F400
00F400
00F400
00F400
00F400
00F400
00F400
00F400
00A400
ENDCHAR
STARTCHAR uni254A
ENCODING 9546
SWIDTH 600 0
DWIDTH 8 0
BBX 10 20 -1 -6
BITMAP
00A400
00F400
00F400
00F400
00F400
00F400
00F400
00F400
00F400
BFFFF0
00FFF0
00F400
00F400
00F400
00F400
00F400
00F400
00F400
00F400
00A400
ENDCHAR
STARTCHAR uni254B
ENCODING 9547
SWIDTH 600 0
DWIDTH 8 0
BBX 10 20 -1 -6
BITMAP
00A400
00F400
00F400
00F400
00F400
00F400
00F400
00F400
00F400
BFFFF0
BFFFF0
00F400
00F400
00F400
00F400
00F400
00F400
00F400
00F400
00A400
ENDCHAR
STARTCHAR uni254C
ENCODING 9548
SWIDTH 600 0
DWIDTH 8 0
BBX 7 1 1 4
BITMAP
F0B4
ENDCHAR
STARTCHAR uni254D
ENCODING 9549
SWIDTH 600 0
DWIDTH 8 0
BBX 7 2 1 3
BITMAP
F0B4
F0B4
ENDCHAR
STARTCHAR uni254E
ENCODING 9550
SWIDTH 600 0
DWIDTH 8 0
BBX 2 13 3 -2
BITMAP
60
60
60
60
00
00
00
00
00
60
60
60
60
ENDCHAR
STARTCHAR uni254F
ENCODING 9551
SWIDTH 600 0
DWIDTH 8 0
BBX 3 12 3 -2
BITMAP
F4
F4
F4
F4
00
00
00
00
F4
F4
F4
F4
ENDCHAR
STARTCHAR uni2550
ENCODING 9552
SWIDTH 600 0
DWIDTH 8 0
BBX 10 3 -1 3
BITMAP
BFFFF0
000000
BFFFF0
ENDCHAR
STARTCHAR uni2551
ENCODING 9553
SWIDTH 600 0
DWIDTH 8 0
BBX 4 20 2 -6
BITMAP
67
67
67
67
67
67
67
67
67
67
67
67
67
67
67
67
67
67
67
67
ENDCHAR
STARTCHAR uni2552
ENCODING 9554
SWIDTH 600 0
DWIDTH 8 0
BBX 6 11 3 -5
BITMAP
7FF0
6000
7FF0
6000
6000
6000
6000
6000
6000
6000
6000
ENDCHAR
STARTCHAR uni2553
ENCODING 9555
SWIDTH 600 0
DWIDTH 8 0
BBX 7 11 2 -6
BITMAP
7FFC
6700
6700
6700
6700
6700
6700
6700
6700
6700
0100
ENDCHAR
STARTCHAR uni2554
ENCODING 9556
SWIDTH 600 0
DWIDTH 8 0
BBX 7 12 2 -6
BITMAP
7FFC
6000
67FC
6700
6700
6700
6700
6700
6700
6700
6700
1000
ENDCHAR
STARTCHAR uni2555
ENCODING 9557
SWIDTH 600 0
DWIDTH 8 0
BBX 6 11 -1 -5
BITMAP
BFE0
0060
BFE0
0060
0060
0060
0060
0060
0060
0060
0060
ENDCHAR
STARTCHAR uni2556
ENCODING 9558
SWIDTH 600 0
DWIDTH 8 0
BBX 7 11 -1 -6
BITMAP
BFFC
019C
019C
019C
019C
019C
019C
019C
019C
019C
0004
ENDCHAR
STARTCHAR uni2557
ENCODING 9559
SWIDTH 600 0
DWIDTH 8 0
BBX 7 12 -1 -6
BITMAP
BFFC
001C
BF9C
019C
019C
019C
019C
019C
019C
019C
019C
0004
ENDCHAR
STARTCHAR uni2558
ENCODING 9560
SWIDTH 600 0
DWIDTH 8 0
BBX 6 11 3 3
BITMAP
6000
6000
6000
6000
6000
6000
6000
6000
7FF0
6000
7FF0
ENDCHAR
STARTCHAR uni2559
ENCODING 9561
SWIDTH 600 0
DWIDTH 8 0
BBX 7 11 2 4
BITMAP
0100
6700
6700
6700
6700
6700
6700
6700
6700
6700
7FFC
ENDCHAR
STARTCHAR uni255A
ENCODING 9562
SWIDTH 600 0
DWIDTH 8 0
BBX 7 12 2 3
BITMAP
1000
6700
6700
6700
6700
6700
6700
6700
6700
67FC
6000
7FFC
ENDCHAR
STARTCHAR uni255B
ENCODING 9563
SWIDTH 600 0
DWIDTH 8 0
BBX 6 11 -1 3
BITMAP
0060
0060
0060
0060
0060
0060
0060
0060
BFE0
0060
BFE0
ENDCHAR
STARTCHAR uni255C
ENCODING 9564
SWIDTH 600 0
DWIDTH 8 0
BBX 7 11 -1 4
BITMAP
0004
019C
019C
019C
019C
019C
019C
019C
019C
019C
BFFC
ENDCHAR
STARTCHAR uni255D
ENCODING 9565
SWIDTH 600 0
DWIDTH 8 0
BBX 7 12 -1 3
BITMAP
0004
019C
019C
019C
019C
019C
019C
019C
019C
BF9C
001C
BFFC
ENDCHAR
STARTCHAR uni255E
ENCODING 9566
SWIDTH 600 0
DWIDTH 8 0
BBX 6 19 3 -5
BITMAP
6000
6000
6000
6000
6000
6000
6000
6000
7FF0
6000
7FF0
6000
6000
6000
6000
6000
6000
6000
6000
ENDCHAR
STARTCHAR uni255F
ENCODING 9567
SWIDTH 600 0
DWIDTH 8 0
BBX 7 21 2 -6
BITMAP
0100
6700
6700
6700
6700
6700
6700
6700
6700
6700
67FC
6700
6700
6700
6700
6700
6700
6700
6700
6700
5100
ENDCHAR
STARTCHAR uni2560
ENCODING 9568
SWIDTH 600 0
DWIDTH 8 0
BBX 7 20 2 -6
BITMAP
6700
6700
6700
6700
6700
6700
6700
6700
67FC
6000
67FC
6700
6700
6700
6700
6700
6700
6700
6700
5000
ENDCHAR
STARTCHAR uni2561
ENCODING 9569
SWIDTH 600 0
DWIDTH 8 0
BBX 6 19 -1 -5
BITMAP
0060
0060
0060
0060
0060
0060
0060
0060
BFE0
0060
BFE0
0060
0060
0060
0060
0060
0060
0060
0060
ENDCHAR
STARTCHAR uni2562
ENCODING 9570
SWIDTH 600 0
DWIDTH 8 0
BBX 7 20 -1 -6
BITMAP
019C
019C
019C
019C
019C
019C
019C
019C
019C
BF9C
019C
019C
019C
019C
019C
019C
019C
019C
019C
0008
ENDCHAR
STARTCHAR uni2563
ENCODING 9571
SWIDTH 600 0
DWIDTH 8 0
BBX 7 20 -1 -6
BITMAP
019C
019C
019C
019C
019C
019C
019C
019C
BF9C
001C
BF9C
019C
019C
019C
019C
019C
019C
019C
019C
0008
ENDCHAR
STARTCHAR uni2564
ENCODING 9572
SWIDTH 600 0
DWIDTH 8 0
BBX 10 11 -1 -5
BITMAP
BFFFF0
000000
BFFFF0
006000
006000
006000
006000
006000
006000
006000
006000
ENDCHAR
STARTCHAR uni2565
ENCODING 9573
SWIDTH 600 0
DWIDTH 8 0
BBX 10 11 -1 -6
BITMAP
BFFFF0
019C00
019C00
019C00
019C00
019C00
019C00
019C00
019C00
019C00
000400
ENDCHAR
STARTCHAR uni2566
ENCODING 9574
SWIDTH 600 0
DWIDTH 8 0
BBX 10 11 -1 -5
BITMAP
BFFFF0
000000
BF9FF0
019C00
019C00
019C00
019C00
019C00
019C00
019C00
019C00
ENDCHAR
STARTCHAR uni2567
ENCODING 9575
SWIDTH 600 0
DWIDTH 8 0
BBX 10 11 -1 3
BITMAP
006000
006000
006000
006000
006000
006000
006000
006000
BFFFF0
000000
BFFFF0
ENDCHAR
STARTCHAR uni2568
ENCODING 9576
SWIDTH 600 0
DWIDTH 8 0
BBX 10 11 -1 4
BITMAP
000400
019C00
019C00
019C00
019C00
019C00
019C00
019C00
019C00
019C00
BFFFF0
ENDCHAR
STARTCHAR uni2569
ENCODING 9577
SWIDTH 600 0
DWIDTH 8 0
BBX 10 11 -1 3
BITMAP
019C00
019C00
019C00
019C00
019C00
019C00
019C00
019C00
BF9FF0
000000
BFFFF0
ENDCHAR
STARTCHAR uni256A
ENCODING 9578
SWIDTH 600 0
DWIDTH 8 0
BBX 10 19 -1 -5
BITMAP
006000
006000
006000
006000
006000
006000
006000
006000
BFFFF0
006000
BFFFF0
006000
006000
006000
006000
006000
006000
006000
006000
ENDCHAR
STARTCHAR uni256B
ENCODING 9579
SWIDTH 600 0
DWIDTH 8 0
BBX 10 21 -1 -6
BITMAP
000400
019C00
019C00
019C00
019C00
019C00
019C00
019C00
019C00
019C00
BFFFF0
019C00
019C00
019C00
019C00
019C00
019C00
019C00
019C00
019C00
000400
ENDCHAR
STARTCHAR uni256C
ENCODING 9580
SWIDTH 600 0
DWIDTH 8 0
BBX 10 19 -1 -5
BITMAP
019C00
019C00
019C00
019C00
019C00
019C00
019C00
019C00
BF9FF0
000000
BF9FF0
019C00
019C00
019C00
019C00
019C00
019C00
019C00
019C00
ENDCHAR
STARTCHAR uni256D
ENCODING 9581
SWIDTH 600 0
DWIDTH 8 0
BBX 6 11 3 -6
BITMAP
02F0
1E00
2800
7000
6000
6000
6000
6000
6000
6000
1000
ENDCHAR
STARTCHAR uni256E
ENCODING 9582
SWIDTH 600 0
DWIDTH 8 0
BBX 6 11 -1 -6
BITMAP
B900
0740
01D0
00A0
0060
0060
0060
0060
0060
0060
0010
ENDCHAR
STARTCHAR uni256F
ENCODING 9583
SWIDTH 600 0
DWIDTH 8 0
BBX 6 11 -1 4
BITMAP
0010
0060
0060
0060
0060
0060
0060
00A0
00D0
0780
B900
ENDCHAR
STARTCHAR uni2570
ENCODING 9584
SWIDTH 600 0
DWIDTH 8 0
BBX 6 11 3 4
BITMAP
1000
6000
6000
6000
6000
6000
6000
7000
2800
1E00
02F0
ENDCHAR
STARTCHAR uni2571
ENCODING 9585
SWIDTH 600 0
DWIDTH 8 0
BBX 9 17 0 -4
BITMAP
000140
000340
000600
000D00
001800
003400
006000
00D000
018000
034000
060000
0D0000
180000
340000
700000
D00000
C00000
ENDCHAR
STARTCHAR uni2572
ENCODING 9586
SWIDTH 600 0
DWIDTH 8 0
BBX 9 17 0 -4
BITMAP
C00000
D00000
700000
340000
180000
0D0000
060000
034000
018000
00D000
006000
003400
001800
000D00
000600
000340
000140
ENDCHAR
STARTCHAR uni2573
ENCODING 9587
SWIDTH 600 0
DWIDTH 8 0
BBX 9 17 0 -4
BITMAP
C00140
D00340
700600
340D00
1C1800
0D3400
076000
03D000
02C000
03D000
076000
0D3400
1C1800
340D00
700600
D00340
C00140
ENDCHAR
STARTCHAR uni2574
ENCODING 9588
SWIDTH 600 0
DWIDTH 8 0
BBX 6 1 -1 4
BITMAP
BFE0
ENDCHAR
STARTCHAR uni2575
ENCODING 9589
SWIDTH 600 0
DWIDTH 8 0
BBX 2 10 3 4
BITMAP
60
60
60
60
60
60
60
60
60
60
ENDCHAR
STARTCHAR uni2576
ENCODING 9590
SWIDTH 600 0
DWIDTH 8 0
BBX 6 1 3 4
BITMAP
7FF0
ENDCHAR
STARTCHAR uni2577
ENCODING 9591
SWIDTH 600 0
DWIDTH 8 0
BBX 2 10 3 -5
BITMAP
60
60
60
60
60
60
60
60
60
60
ENDCHAR
STARTCHAR uni2578
ENCODING 9592
SWIDTH 600 0
DWIDTH 8 0
BBX 6 2 -1 3
BITMAP
BFE0
BFE0
ENDCHAR
STARTCHAR uni2579
ENCODING 9593
SWIDTH 600 0
DWIDTH 8 0
BBX 3 10 3 4
BITMAP
F4
F4
F4
F4
F4
F4
F4
F4
F4
F4
ENDCHAR
STARTCHAR uni257A
ENCODING 9594
SWIDTH 600 0
DWIDTH 8 0
BBX 6 2 3 3
BITMAP
7FF0
7FF0
ENDCHAR
STARTCHAR uni257B
ENCODING 9595
SWIDTH 600 0
DWIDTH 8 0
BBX 3 10 3 -5
BITMAP
F4
F4
F4
F4
F4
F4
F4
F4
F4
F4
ENDCHAR
STARTCHAR uni257C
ENCODING 9596
SWIDTH 600 0
DWIDTH 8 0
BBX 10 3 -1 3
BITMAP
006AA0
BFFFF0
006AA0
ENDCHAR
STARTCHAR uni257D
ENCODING 9597
SWIDTH 600 0
DWIDTH 8 0
BBX 3 20 3 -6
BITMAP
60
60
60
60
60
60
60
60
60
B0
F4
F4
F4
F4
F4
F4
F4
F4
F4
F4
ENDCHAR
STARTCHAR uni257E
ENCODING 9598
SWIDTH 600 0
DWIDTH 8 0
BBX 10 3 -1 3
BITMAP
6A9000
BFFFF0
6A9000
ENDCHAR
STARTCHAR uni257F
ENCODING 9599
SWIDTH 600 0
DWIDTH 8 0
BBX 3 20 3 -6
BITMAP
F4
F4
F4
F4
F4
F4
F4
F4
F4
F4
B0
60
60
60
60
60
60
60
60
60
ENDCHAR
STARTCHAR uni2580
ENCODING 9600
SWIDTH 600 0
DWIDTH 8 0
BBX 9 10 0 4
BITMAP
FFFF40
FFFF40
FFFF40
FFFF40
FFFF40
FFFF40
FFFF40
FFFF40
FFFF40
FFFF40
ENDCHAR
STARTCHAR uni2581
ENCODING 9601
SWIDTH 600 0
DWIDTH 8 0
BBX 9 3 0 -6
BITMAP
FFFF40
FFFF40
FFFF40
ENDCHAR
STARTCHAR uni2582
ENCODING 9602
SWIDTH 600 0
DWIDTH 8 0
BBX 9 5 0 -6
BITMAP
FFFF40
FFFF40
FFFF40
FFFF40
FFFF40
ENDCHAR
STARTCHAR uni2583
ENCODING 9603
SWIDTH 600 0
DWIDTH 8 0
BBX 9 8 0 -6
BITMAP
FFFF40
FFFF40
FFFF40
FFFF40
FFFF40
FFFF40
FFFF40
FFFF40
ENDCHAR
STARTCHAR uni2584
ENCODING 9604
SWIDTH 600 0
DWIDTH 8 0
BBX 9 10 0 -6
BITMAP
FFFF40
FFFF40
FFFF40
FFFF40
FFFF40
FFFF40
FFFF40
FFFF40
FFFF40
FFFF40
ENDCHAR
STARTCHAR uni2585
ENCODING 9605
SWIDTH 600 0
DWIDTH 8 0
BBX 9 13 0 -6
BITMAP
FFFF40
FFFF40
FFFF40
FFFF40
FFFF40
FFFF40
FFFF40
FFFF40
FFFF40
FFFF40
FFFF40
FFFF40
FFFF40
ENDCHAR
STARTCHAR uni2586
ENCODING 9606
SWIDTH 600 0
DWIDTH 8 0
BBX 9 15 0 -6
BITMAP
FFFF40
FFFF40
FFFF40
FFFF40
FFFF40
FFFF40
FFFF40
FFFF40
FFFF40
FFFF40
FFFF40
FFFF40
FFFF40
FFFF40
FFFF40
ENDCHAR
STARTCHAR uni2587
ENCODING 9607
SWIDTH 600 0
DWIDTH 8 0
BBX 9 18 0 -6
BITMAP
FFFF40
FFFF40
FFFF40
FFFF40
FFFF40
FFFF40
FFFF40
FFFF40
FFFF40
FFFF40
FFFF40
FFFF40
FFFF40
FFFF40
FFFF40
FFFF40
FFFF40
FFFF40
ENDCHAR
STARTCHAR uni2588
ENCODING 9608
SWIDTH 600 0
DWIDTH 8 0
BBX 9 20 0 -6
BITMAP
FFFF40
FFFF40
FFFF40
FFFF40
FFFF40
FFFF40
FFFF40
FFFF40
FFFF40
FFFF40
FFFF40
FFFF40
FFFF40
FFFF40
FFFF40
FFFF40
FFFF40
FFFF40
FFFF40
FFFF40
ENDCHAR
STARTCHAR uni2589
ENCODING 9609
SWIDTH 600 0
DWIDTH 8 0
BBX 8 20 0 -6
BITMAP
FFFD
FFFD
FFFD
FFFD
FFFD
FFFD
FFFD
FFFD
FFFD
FFFD
FFFD
FFFD
FFFD
FFFD
FFFD
FFFD
FFFD
FFFD
FFFD
FFFD
ENDCHAR
STARTCHAR uni258A
ENCODING 9610
SWIDTH 600 0
DWIDTH 8 0
BBX 7 20 0 -6
BITMAP
FFF4
FFF4
FFF4
FFF4
FFF4
FFF4
FFF4
FFF4
FFF4
FFF4
FFF4
FFF4
FFF4
FFF4
FFF4
FFF4
FFF4
FFF4
FFF4
FFF4
ENDCHAR
STARTCHAR uni258B
ENCODING 9611
SWIDTH 600 0
DWIDTH 8 0
BBX 6 20 0 -6
BITMAP
FFD0
FFD0
FFD0
FFD0
FFD0
FFD0
FFD0
FFD0
FFD0
FFD0
FFD0
FFD0
FFD0
FFD0
FFD0
FFD0
FFD0
FFD0
FFD0
FFD0
ENDCHAR
STARTCHAR uni258C
ENCODING 9612
SWIDTH 600 0
DWIDTH 8 0
BBX 5 20 0 -6
BITMAP
FF40
FF40
FF40
FF40
FF40
FF40
FF40
FF40
FF40
FF40
FF40
FF40
FF40
FF40
FF40
FF40
FF40
FF40
FF40
FF40
ENDCHAR
STARTCHAR uni258D
ENCODING 9613
SWIDTH 600 0
DWIDTH 8 0
BBX 3 20 0 -6
BITMAP
FC
FC
FC
FC
FC
FC
FC
FC
FC
FC
FC
FC
FC
FC
FC
FC
FC
FC
FC
FC
ENDCHAR
STARTCHAR uni258E
ENCODING 9614
SWIDTH 600 0
DWIDTH 8 0
BBX 2 20 0 -6
BITMAP
F0
F0
F0
F0
F0
F0
F0
F0
F0
F0
F0
F0
F0
F0
F0
F0
F0
F0
F0
F0
ENDCHAR
STARTCHAR uni258F
ENCODING 9615
SWIDTH 600 0
DWIDTH 8 0
BBX 1 20 0 -6
BITMAP
C0
C0
C0
C0
C0
C0
C0
C0
C0
C0
C0
C0
C0
C0
C0
C0
C0
C0
C0
C0
ENDCHAR
STARTCHAR uni2590
ENCODING 9616
SWIDTH 600 0
DWIDTH 8 0
BBX 5 20 4 -6
BITMAP
BF40
BF40
BF40
BF40
BF40
BF40
BF40
BF40
BF40
BF40
BF40
BF40
BF40
BF40
BF40
BF40
BF40
BF40
BF40
BF40
ENDCHAR
STARTCHAR uni2591
ENCODING 9617
SWIDTH 600 0
DWIDTH 8 0
BBX 7 19 1 -6
BITMAP
8614
1040
4000
8114
1040
4114
4114
1040
8114
4000
1040
8614
0000
0000
8614
1040
4000
8114
1040
ENDCHAR
STARTCHAR uni2592
ENCODING 9618
SWIDTH 600 0
DWIDTH 8 0
BBX 9 19 -1 -6
BITMAP
1C6280
555940
045540
1C6280
524800
086140
086140
524800
1C6280
045540
510800
1C7280
551400
551400
1C7280
510800
045540
1C6280
524800
ENDCHAR
STARTCHAR uni2593
ENCODING 9619
SWIDTH 600 0
DWIDTH 8 0
BBX 9 20 -1 -6
BITMAP
1DB280
2DB7C0
A65D00
6EBA80
2DF7C0
A79D40
2EB7C0
2EB7C0
A79D40
2DF7C0
6EBA80
A69E40
2DF7C0
6AAA80
6AAA80
2DF7C0
A69E40
6EBA80
7EFBC0
A69D40
ENDCHAR
STARTCHAR uni2594
ENCODING 9620
SWIDTH 600 0
DWIDTH 8 0
BBX 9 2 0 12
BITMAP
FFFF40
FFFF40
ENDCHAR
STARTCHAR uni2595
ENCODING 9621
SWIDTH 600 0
DWIDTH 8 0
BBX 2 20 7 -6
BITMAP
90
90
90
90
90
90
90
90
90
90
90
90
90
90
90
90
90
90
90
90
ENDCHAR
STARTCHAR uni2596
ENCODING 9622
SWIDTH 600 0
DWIDTH 8 0
BBX 5 10 0 -6
BITMAP
FF40
FF40
FF40
FF40
FF40
FF40
FF40
FF40
FF40
FF40
ENDCHAR
STARTCHAR uni2597
ENCODING 9623
SWIDTH 600 0
DWIDTH 8 0
BBX 5 10 4 -6
BITMAP
BF40
BF40
BF40
BF40
BF40
BF40
BF40
BF40
BF40
BF40
ENDCHAR
STARTCHAR uni2598
ENCODING 9624
SWIDTH 600 0
DWIDTH 8 0
BBX 5 10 0 4
BITMAP
FF40
FF40
FF40
FF40
FF40
FF40
FF40
FF40
FF40
FF40
ENDCHAR
STARTCHAR uni2599
ENCODING 9625
SWIDTH 600 0
DWIDTH 8 0
BBX 9 20 0 -6
BITMAP
FF4000
FF4000
FF4000
FF4000
FF4000
FF4000
FF4000
FF4000
FF4000
FF4000
FFFF40
FFFF40
FFFF40
FFFF40
FFFF40
FFFF40
FFFF40
FFFF40
FFFF40
FFFF40
ENDCHAR
STARTCHAR uni259A
ENCODING 9626
SWIDTH 600 0
DWIDTH 8 0
BBX 9 20 0 -6
BITMAP
FF4000
FF4000
FF4000
FF4000
FF4000
FF4000
FF4000
FF4000
FF4000
FF4000
00BF40
00BF40
00BF40
00BF40
00BF40
00BF40
00BF40
00BF40
00BF40
00BF40
ENDCHAR
STARTCHAR uni259B
ENCODING 9627
SWIDTH 600 0
DWIDTH 8 0
BBX 9 20 0 -6
BITMAP
FFFF40
FFFF40
FFFF40
FFFF40
FFFF40
FFFF40
FFFF40
FFFF40
FFFF40
FFFF40
FF4000
FF4000
FF4000
FF4000
FF4000
FF4000
FF4000
FF4000
FF4000
FF4000
ENDCHAR
STARTCHAR uni259C
ENCODING 9628
SWIDTH 600 0
DWIDTH 8 0
BBX 9 20 0 -6
BITMAP
FFFF40
FFFF40
FFFF40
FFFF40
FFFF40
FFFF40
FFFF40
FFFF40
FFFF40
FFFF40
00BF40
00BF40
00BF40
00BF40
00BF40
00BF40
00BF40
00BF40
00BF40
00BF40
ENDCHAR
STARTCHAR uni259D
ENCODING 9629
SWIDTH 600 0
DWIDTH 8 0
BBX 5 10 4 4
BITMAP
BF40
BF40
BF40
BF40
BF40
BF40
BF40
BF40
BF40
BF40
ENDCHAR
STARTCHAR uni259E
ENCODING 9630
SWIDTH 600 0
DWIDTH 8 0
BBX 9 20 0 -6
BITMAP
00BF40
00BF40
00BF40
00BF40
00BF40
00BF40
00BF40
00BF40
00BF40
00BF40
FF4000
FF4000
FF4000
FF4000
FF4000
FF4000
FF4000
FF4000
FF4000
FF4000
ENDCHAR
STARTCHAR uni259F
ENCODING 9631
SWIDTH 600 0
DWIDTH 8 0
BBX 9 20 0 -6
BITMAP
00BF40
00BF40
00BF40
00BF40
00BF40
00BF40
00BF40
00BF40
00BF40
00BF40
FFFF40
FFFF40
FFFF40
FFFF40
FFFF40
FFFF40
FFFF40
FFFF40
FFFF40
FFFF40
ENDCHAR
STARTCHAR uni25A0
ENCODING 9632
SWIDTH 600 0
DWIDTH 8 0
BBX 6 6 1 2
BITMAP
BFF0
BFF0
BFF0
BFF0
BFF0
BFF0
ENDCHAR
STARTCHAR uni25A1
ENCODING 9633
SWIDTH 600 0
DWIDTH 8 0
BBX 7 7 1 1
BITMAP
FFF4
8014
8014
8014
8014
8014
FFF4
ENDCHAR
STARTCHAR uni25AA
ENCODING 9642
SWIDTH 600 0
DWIDTH 8 0
BBX 4 4 2 2
BITMAP
BF
BF
BF
BF
ENDCHAR
STARTCHAR uni25AB
ENCODING 9643
SWIDTH 600 0
DWIDTH 8 0
BBX 5 5 2 1
BITMAP
FF40
8140
8140
8140
FF40
ENDCHAR
STARTCHAR filledrect
ENCODING 9644
SWIDTH 600 0
DWIDTH 8 0
BBX 9 1 0 3
BITMAP
FFFF40
ENDCHAR
STARTCHAR triagup
ENCODING 9650
SWIDTH 600 0
DWIDTH 8 0
BBX 7 7 1 1
BITMAP
0100
0B00
0F40
1FC0
3FD0
7FE0
FFF4
ENDCHAR
STARTCHAR uni25B3
ENCODING 9651
SWIDTH 600 0
DWIDTH 8 0
BBX 7 7 1 1
BITMAP
0100
0600
0440
1040
1050
4020
FFF4
ENDCHAR
STARTCHAR uni25B4
ENCODING 9652
SWIDTH 600 0
DWIDTH 8 0
BBX 5 4 2 2
BITMAP
0400
2C00
7E00
BF40
ENDCHAR
STARTCHAR uni25B5
ENCODING 9653
SWIDTH 600 0
DWIDTH 8 0
BBX 5 5 2 1
BITMAP
0400
1400
1100
4100
FF40
ENDCHAR
STARTCHAR uni25B6
ENCODING 9654
SWIDTH 600 0
DWIDTH 8 0
BBX 7 7 1 1
BITMAP
9000
F900
FF90
FFF4
FF40
F400
4000
ENDCHAR
STARTCHAR uni25B7
ENCODING 9655
SWIDTH 600 0
DWIDTH 8 0
BBX 7 7 1 1
BITMAP
9000
9900
8190
8074
8640
E400
4000
ENDCHAR
STARTCHAR uni25B8
ENCODING 9656
SWIDTH 600 0
DWIDTH 8 0
BBX 4 5 2 1
BITMAP
90
B8
BF
B8
90
ENDCHAR
STARTCHAR uni25B9
ENCODING 9657
SWIDTH 600 0
DWIDTH 8 0
BBX 5 5 2 1
BITMAP
9000
9900
8240
9900
9000
ENDCHAR
STARTCHAR triagrt
ENCODING 9658
SWIDTH 600 0
DWIDTH 8 0
BBX 9 7 0 1
BITMAP
A00000
BE4000
BFF900
BFFF40
BFE400
B90000
500000
ENDCHAR
STARTCHAR triagdn
ENCODING 9660
SWIDTH 600 0
DWIDTH 8 0
BBX 7 7 1 1
BITMAP
FFF4
7FE0
3FD0
1FC0
0F40
0700
0100
ENDCHAR
STARTCHAR uni25BD
ENCODING 9661
SWIDTH 600 0
DWIDTH 8 0
BBX 7 7 1 1
BITMAP
FFF4
4020
1050
1040
0440
0500
0100
ENDCHAR
STARTCHAR uni25BE
ENCODING 9662
SWIDTH 600 0
DWIDTH 8 0
BBX 5 4 2 1
BITMAP
BF40
7E00
2C00
0400
ENDCHAR
STARTCHAR uni25BF
ENCODING 9663
SWIDTH 600 0
DWIDTH 8 0
BBX 5 5 2 1
BITMAP
FF40
4100
1100
1400
0400
ENDCHAR
STARTCHAR uni25C0
ENCODING 9664
SWIDTH 600 0
DWIDTH 8 0
BBX 7 7 1 1
BITMAP
0024
02F8
2FF8
BFF8
1BF8
01B8
0014
ENDCHAR
STARTCHAR uni25C1
ENCODING 9665
SWIDTH 600 0
DWIDTH 8 0
BBX 7 7 1 1
BITMAP
0014
0148
1408
A008
1A48
01A8
0014
ENDCHAR
STARTCHAR uni25C2
ENCODING 9666
SWIDTH 600 0
DWIDTH 8 0
BBX 4 5 2 1
BITMAP
02
1F
BF
1F
02
ENDCHAR
STARTCHAR uni25C3
ENCODING 9667
SWIDTH 600 0
DWIDTH 8 0
BBX 5 5 2 1
BITMAP
0240
1940
9140
2940
0240
ENDCHAR
STARTCHAR triaglf
ENCODING 9668
SWIDTH 600 0
DWIDTH 8 0
BBX 8 7 0 1
BITMAP
0006
01BF
1BFF
BFFF
07FF
006F
0001
ENDCHAR
STARTCHAR uni25C6
ENCODING 9670
SWIDTH 600 0
DWIDTH 8 0
BBX 8 7 0 1
BITMAP
0180
07E0
1FF8
7FFE
1FF8
07E0
0180
ENDCHAR
STARTCHAR uni25C9
ENCODING 9673
SWIDTH 600 0
DWIDTH 8 0
BBX 8 7 0 1
BITMAP
0BE0
2BE8
2BF6
5BF2
27E6
2818
0BE4
ENDCHAR
STARTCHAR lozenge
ENCODING 9674
SWIDTH 600 0
DWIDTH 8 0
BBX 6 9 1 0
BITMAP
0B00
0E40
24C0
2060
5030
2060
24C0
0E40
0B00
ENDCHAR
STARTCHAR uni25CB
ENCODING 9675
SWIDTH 600 0
DWIDTH 8 0
BBX 7 7 1 1
BITMAP
1F80
6060
8024
8014
8014
6060
1F80
ENDCHAR
STARTCHAR uni25CC
ENCODING 9676
SWIDTH 600 0
DWIDTH 8 0
BBX 8 7 0 0
BITMAP
0960
2008
0000
5005
0000
2008
0960
ENDCHAR
STARTCHAR uni25CF
ENCODING 9679
SWIDTH 600 0
DWIDTH 8 0
BBX 7 6 1 2
BITMAP
1F80
7FF0
FFF4
FFF4
7FF0
1F80
ENDCHAR
STARTCHAR invbullet
ENCODING 9688
SWIDTH 600 0
DWIDTH 8 0
BBX 5 5 2 1
BITMAP
FF40
8140
4040
8140
FF40
ENDCHAR
STARTCHAR invcircle
ENCODING 9689
SWIDTH 600 0
DWIDTH 8 0
BBX 7 6 1 2
BITMAP
E074
5F84
7FD0
7FE0
BFD4
EFB4
ENDCHAR
STARTCHAR uni25E6
ENCODING 9702
SWIDTH 600 0
DWIDTH 8 0
BBX 5 5 2 1
BITMAP
2E00
9240
8140
8600
7900
ENDCHAR
STARTCHAR uni2610
ENCODING 9744
SWIDTH 600 0
DWIDTH 8 0
BBX 10 9 -1 0
BITMAP
3FFFE0
500060
500060
500060
500060
500060
500060
500060
7FFFD0
ENDCHAR
STARTCHAR uni2611
ENCODING 9745
SWIDTH 600 0
DWIDTH 8 0
BBX 11 11 -1 0
BITMAP
000018
000020
3FFFE0
5001E0
500360
560960
525860
51A460
50A060
500060
7FFFD0
ENDCHAR
STARTCHAR uni2615
ENCODING 9749
SWIDTH 600 0
DWIDTH 8 0
BBX 10 9 -1 0
BITMAP
0BF800
340600
5BF500
6C6910
5BF960
500170
200390
181900
07E400
ENDCHAR
STARTCHAR smileface
ENCODING 9786
SWIDTH 600 0
DWIDTH 8 0
BBX 9 9 0 0
BITMAP
0BE400
241D00
577200
800200
800140
892600
57E200
241900
0BE400
ENDCHAR
STARTCHAR invsmileface
ENCODING 9787
SWIDTH 600 0
DWIDTH 8 0
BBX 8 7 0 1
BITMAP
0BE4
39DD
799E
B9DF
77EA
381D
0BE4
ENDCHAR
STARTCHAR sun
ENCODING 9788
SWIDTH 600 0
DWIDTH 8 0
BBX 9 9 0 0
BITMAP
018000
369900
1D2800
140800
F40F40
140800
1D2800
21EC00
018500
ENDCHAR
STARTCHAR female
ENCODING 9792
SWIDTH 600 0
DWIDTH 8 0
BBX 7 11 1 -1
BITMAP
1F80
6070
C024
8014
C024
A070
2F80
0600
7FE0
0600
0600
ENDCHAR
STARTCHAR male
ENCODING 9794
SWIDTH 600 0
DWIDTH 8 0
BBX 9 10 0 0
BITMAP
001540
001780
000980
1FB580
A07040
C02400
801400
C02400
A07000
1F8000
ENDCHAR
STARTCHAR spade
ENCODING 9824
SWIDTH 600 0
DWIDTH 8 0
BBX 9 10 0 0
BITMAP
018000
07E000
1FF800
3FFE00
BFFF00
FFFF40
BEFF00
16D400
07E000
2FFC00
ENDCHAR
STARTCHAR club
ENCODING 9827
SWIDTH 600 0
DWIDTH 8 0
BBX 9 10 0 0
BITMAP
07E000
0BF400
0BF000
17E400
BFFF00
FFFF40
BFFF00
16D400
07E000
2FFC00
ENDCHAR
STARTCHAR heart
ENCODING 9829
SWIDTH 600 0
DWIDTH 8 0
BBX 9 10 0 0
BITMAP
2D2D00
BFBF00
FFFF40
BFFF40
BFFF00
7FFE00
2FFC00
0FF400
07E000
018000
ENDCHAR
STARTCHAR diamond
ENCODING 9830
SWIDTH 600 0
DWIDTH 8 0
BBX 8 10 0 0
BITMAP
0180
03D0
0FF4
2FFC
BFFF
BFFF
2FFC
0FF4
03D0
0180
ENDCHAR
STARTCHAR musicalnote
ENCODING 9834
SWIDTH 600 0
DWIDTH 8 0
BBX 7 10 1 0
BITMAP
0240
03D0
0270
0224
0214
0210
0200
6F00
BE00
B800
ENDCHAR
STARTCHAR musicalnotedbl
ENCODING 9835
SWIDTH 600 0
DWIDTH 8 0
BBX 9 11 0 0
BITMAP
005A40
03FF40
03FF40
039640
020140
020140
020140
020140
7E2F00
FE7E00
B87D00
ENDCHAR
STARTCHAR uni2713
ENCODING 10003
SWIDTH 600 0
DWIDTH 8 0
BBX 9 10 0 0
BITMAP
000240
000600
001800
002400
005000
408000
914000
220000
2A0000
1D0000
ENDCHAR
STARTCHAR uni2752
ENCODING 10066
SWIDTH 600 0
DWIDTH 8 0
BBX 7 7 1 1
BITMAP
BFF4
8024
8024
8024
8024
8024
FFF0
ENDCHAR
STARTCHAR uni2764
ENCODING 10084
SWIDTH 600 0
DWIDTH 8 0
BBX 11 9 -1 0
BITMAP
2F4BD0
BFEFF0
FFFFF4
FFFFF4
BFFFF0
3FFFD0
0BFF40
01F800
006000
ENDCHAR
STARTCHAR uni27E6
ENCODING 10214
SWIDTH 600 0
DWIDTH 8 0
BBX 7 12 1 -2
BITMAP
06FC
0940
0A40
0A00
1600
1600
2500
2800
2800
5800
5400
AF80
ENDCHAR
STARTCHAR uni27E7
ENCODING 10215
SWIDTH 600 0
DWIDTH 8 0
BBX 7 12 0 -2
BITMAP
07FC
0058
0054
0094
00A0
00A0
0160
0250
0250
0280
0680
BE80
ENDCHAR
STARTCHAR uni2E18
ENCODING 11800
SWIDTH 600 0
DWIDTH 8 0
BBX 5 10 1 -3
BITMAP
0280
0280
0000
0300
0A00
2E00
6600
9500
A180
6E40
ENDCHAR
STARTCHAR uni2E22
ENCODING 11810
SWIDTH 600 0
DWIDTH 8 0
BBX 5 7 3 3
BITMAP
3FC0
2000
6000
5000
9000
8000
4000
ENDCHAR
STARTCHAR uni2E23
ENCODING 11811
SWIDTH 600 0
DWIDTH 8 0
BBX 5 7 2 3
BITMAP
7F40
0200
0200
0200
0600
0500
0400
ENDCHAR
STARTCHAR uni2E24
ENCODING 11812
SWIDTH 600 0
DWIDTH 8 0
BBX 4 7 2 -2
BITMAP
10
60
50
90
80
80
FE
ENDCHAR
STARTCHAR uni2E25
ENCODING 11813
SWIDTH 600 0
DWIDTH 8 0
BBX 5 7 0 -2
BITMAP
0040
0080
00C0
0180
0140
0240
BF00
ENDCHAR
STARTCHAR uniE0A0
ENCODING 57504
SWIDTH 600 0
DWIDTH 8 0
BBX 8 19 1 -4
BITMAP
9000
9000
9020
90B4
91FD
9030
9030
9030
9070
9060
01D0
0B40
2800
7000
A000
9000
9000
9000
9000
ENDCHAR
STARTCHAR uniE0A1
ENCODING 57505
SWIDTH 600 0
DWIDTH 8 0
BBX 7 15 1 -2
BITMAP
9000
9000
9000
9000
9000
9000
BF40
0000
0000
1C24
1A24
1A24
19A4
18A4
1834
ENDCHAR
STARTCHAR uniE0A2
ENCODING 57506
SWIDTH 600 0
DWIDTH 8 0
BBX 8 13 0 -1
BITMAP
07E0
0D24
0814
0818
0818
7FFE
7FFE
7D2E
7D3E
7E7E
7E7E
7FFE
7FFE
ENDCHAR
STARTCHAR uniE0B0
ENCODING 57520
SWIDTH 600 0
DWIDTH 8 0
BBX 8 18 0 -4
BITMAP
4000
D000
F400
FD00
FF40
FFD0
FFF0
FFFC
FFFF
FFFF
FFFC
FFF0
FFD0
FF40
FD00
F400
D000
4000
ENDCHAR
STARTCHAR uniE0B1
ENCODING 57521
SWIDTH 600 0
DWIDTH 8 0
BBX 9 17 0 -3
BITMAP
800000
700000
180000
060000
018000
006000
002800
000A00
000340
000A00
002800
006000
018000
060000
180000
700000
800000
ENDCHAR
STARTCHAR uniE0B2
ENCODING 57522
SWIDTH 600 0
DWIDTH 8 0
BBX 9 18 0 -4
BITMAP
000040
000280
000B80
002F80
00BF80
02FF80
0BFF80
2FFF80
BFFF80
BFFF80
2FFF80
0BFF80
02FF80
00BF80
002F80
000B80
000280
000040
ENDCHAR
STARTCHAR uniE0B3
ENCODING 57523
SWIDTH 600 0
DWIDTH 8 0
BBX 9 17 0 -3
BITMAP
000240
000A00
002800
006000
018000
060000
180000
700000
D00000
700000
180000
060000
018000
006000
002800
000A00
000240
ENDCHAR
STARTCHAR f_i
ENCODING 64257
SWIDTH 600 0
DWIDTH 8 0
BBX 7 10 1 0
BITMAP
0B9C
1C1C
2800
BE24
3030
7070
6060
A090
9090
C0C0
ENDCHAR
STARTCHAR f_l
ENCODING 64258
SWIDTH 600 0
DWIDTH 8 0
BBX 7 10 1 0
BITMAP
0B98
1C28
2824
BE30
3030
7060
60A0
A090
90D0
C0A0
ENDCHAR
STARTCHAR uniFE0E
ENCODING 65038
SWIDTH 600 0
DWIDTH 8 0
BBX 8 9 0 0
BITMAP
69AA
8002
4001
681A
0820
0410
0820
0410
05A0
ENDCHAR
STARTCHAR uniFE0F
ENCODING 65039
SWIDTH 600 0
DWIDTH 8 0
BBX 8 9 0 0
BITMAP
05A0
1004
1001
8FB2
8516
0410
5042
1814
0190
ENDCHAR
STARTCHAR uniFEFF
ENCODING 65279
SWIDTH 600 0
DWIDTH 8 0
BBX 1 1 0 0
BITMAP
00
ENDCHAR
STARTCHAR u1F3B5
ENCODING 127925
SWIDTH 600 0
DWIDTH 8 0
BBX 7 11 1 0
BITMAP
0100
0380
02E0
0224
0214
0214
0200
0200
6F00
BE00
B800
ENDCHAR
STARTCHAR u1F3B6
ENCODING 127926
SWIDTH 600 0
DWIDTH 8 0
BBX 9 11 0 0
BITMAP
005A40
03FF40
03FF40
039640
020140
020140
020140
020140
7E2F00
FE7E00
B87D00
ENDCHAR
STARTCHAR u1F4A9
ENCODING 128169
SWIDTH 600 0
DWIDTH 8 0
BBX 9 10 0 0
BITMAP
004000
0BF000
0FF400
2FFC00
758E00
75AA00
7FFE00
F40F40
F81F40
6FFE00
ENDCHAR
STARTCHAR u1F512
ENCODING 128274
SWIDTH 600 0
DWIDTH 8 0
BBX 8 13 0 -1
BITMAP
07E0
0D24
0814
0818
0818
7FFE
7FFE
7D2E
7D3E
7E7E
7E7E
7FFE
7FFE
ENDCHAR
STARTCHAR u1F916
ENCODING 129302
SWIDTH 600 0
DWIDTH 8 0
BBX 10 9 -1 0
BITMAP
02F900
090640
26F980
76AAA0
76FE60
7000A0
146080
090640
02F900
ENDCHAR
STARTCHAR .notdef
ENCODING -1
SWIDTH 600 0
DWIDTH 8 0
BBX 7 9 1 0
BITMAP
FFF4
E064
9494
8A54
8B14
8954
A494
E074
FFF4
ENDCHAR
STARTCHAR uni00470303
ENCODING -1
SWIDTH 600 0
DWIDTH 8 0
BBX 8 12 1 0
BITMAP
07D9
0978
0000
06E4
2D18
7000
9000
C1F8
C024
D030
A070
2F90
ENDCHAR
STARTCHAR uni004C00B7004C
ENCODING -1
SWIDTH 600 0
DWIDTH 8 0
BBX 8 9 0 0
BITMAP
180C
2818
2418
3764
3764
6030
9060
9060
FDBE
ENDCHAR
STARTCHAR uni01320301
ENCODING -1
SWIDTH 600 0
DWIDTH 8 0
BBX 10 14 0 -2
BITMAP
018090
060240
000000
090600
0D0600
0C0900
180D00
180C00
241800
342800
302400
603000
007000
02D000
ENDCHAR
STARTCHAR uni00670303
ENCODING -1
SWIDTH 600 0
DWIDTH 8 0
BBX 8 13 0 -3
BITMAP
02A2
022D
0000
06E6
1D1D
2409
300C
701C
3478
1BA4
0024
50A0
6F80
ENDCHAR
STARTCHAR uni006C00B7006C
ENCODING -1
SWIDTH 600 0
DWIDTH 8 0
BBX 8 10 0 0
BITMAP
FCBD
180C
1418
2418
3764
3770
6030
9060
A060
7D2E
ENDCHAR
STARTCHAR uni01330301
ENCODING -1
SWIDTH 600 0
DWIDTH 8 0
BBX 8 14 1 -3
BITMAP
0206
0D1D
2420
0000
2430
3060
70A0
6090
90C0
90C0
C180
0280
0340
1E00
ENDCHAR
STARTCHAR uni014A.a
ENCODING -1
SWIDTH 600 0
DWIDTH 8 0
BBX 8 11 0 -2
BITMAP
0D03
0E03
1B06
2649
2589
30CC
3098
6078
9034
0030
02D0
ENDCHAR
STARTCHAR a.a
ENCODING -1
SWIDTH 600 0
DWIDTH 8 0
BBX 8 7 0 0
BITMAP
06F8
091C
000D
06FC
3918
7078
2F54
ENDCHAR
STARTCHAR agrave.a
ENCODING -1
SWIDTH 600 0
DWIDTH 8 0
BBX 8 11 0 0
BITMAP
0080
00A0
0020
0000
06F8
091C
000D
06FC
3918
7078
2F54
ENDCHAR
STARTCHAR aacute.a
ENCODING -1
SWIDTH 600 0
DWIDTH 8 0
BBX 8 11 0 0
BITMAP
0008
0034
0090
0000
06F8
091C
000D
06FC
3918
7078
2F54
ENDCHAR
STARTCHAR acircumflex.a
ENCODING -1
SWIDTH 600 0
DWIDTH 8 0
BBX 8 10 0 0
BITMAP
00B4
0248
0000
06F8
091C
000D
06FC
3918
7078
2F54
ENDCHAR
STARTCHAR atilde.a
ENCODING -1
SWIDTH 600 0
DWIDTH 8 0
BBX 8 10 0 0
BITMAP
0296
022D
0000
06F8
091C
000D
06FC
3918
7078
2F54
ENDCHAR
STARTCHAR adieresis.a
ENCODING -1
SWIDTH 600 0
DWIDTH 8 0
BBX 8 9 0 0
BITMAP
024C
0000
06F8
091C
000D
06FC
3918
7078
2F54
ENDCHAR
STARTCHAR amacron.a
ENCODING -1
SWIDTH 600 0
DWIDTH 8 0
BBX 8 9 0 0
BITMAP
02FC
0000
06F8
091C
000D
06FC
3918
7078
2F54
ENDCHAR
STARTCHAR abreve.a
ENCODING -1
SWIDTH 600 0
DWIDTH 8 0
BBX 8 10 0 0
BITMAP
0249
01F8
0000
06F8
091C
000D
06FC
3918
7078
2F54
ENDCHAR
STARTCHAR aring.a
ENCODING -1
SWIDTH 600 0
DWIDTH 8 0
BBX 8 12 0 0
BITMAP
00B4
0098
0198
00B0
0000
06F8
091C
000D
06FC
3918
7078
2F54
ENDCHAR
STARTCHAR aringacute.a
ENCODING -1
SWIDTH 600 0
DWIDTH 8 0
BBX 8 12 0 0
BITMAP
0024
00B4
0198
00F4
0000
06F8
091C
000D
06FC
3918
7068
2F54
ENDCHAR
STARTCHAR uni01CE.a
ENCODING -1
SWIDTH 600 0
DWIDTH 8 0
BBX 8 10 0 0
BITMAP
0149
00A4
0000
06F8
091C
000D
06FC
3918
7078
2F54
ENDCHAR
STARTCHAR uni1EA1.a
ENCODING -1
SWIDTH 600 0
DWIDTH 8 0
BBX 8 11 0 -4
BITMAP
06F8
091C
000D
06FC
3918
7078
2F54
0000
0000
0700
0700
ENDCHAR
STARTCHAR uni1EA3.a
ENCODING -1
SWIDTH 600 0
DWIDTH 8 0
BBX 8 11 0 0
BITMAP
0060
0024
0060
0000
06F8
091C
000D
06FC
3918
7078
2F54
ENDCHAR
STARTCHAR uni1EA5.a
ENCODING -1
SWIDTH 600 0
DWIDTH 8 0
BBX 9 11 0 0
BITMAP
000140
00B600
024800
000000
06F800
091C00
000D00
06FC00
391800
707800
2F5400
ENDCHAR
STARTCHAR uni1EA7.a
ENCODING -1
SWIDTH 600 0
DWIDTH 8 0
BBX 8 11 0 0
BITMAP
0800
06B4
0248
0000
06F8
091C
000D
06FC
3918
7078
2F54
ENDCHAR
STARTCHAR uni1EA9.a
ENCODING -1
SWIDTH 600 0
DWIDTH 8 0
BBX 9 12 0 0
BITMAP
000600
000240
00B600
024800
000000
06F800
091C00
000D00
06FC00
391800
707800
2F5400
ENDCHAR
STARTCHAR uni1EAB.a
ENCODING -1
SWIDTH 600 0
DWIDTH 8 0
BBX 8 12 0 0
BITMAP
00A5
016C
00B4
0148
0000
06F8
091C
000D
06FC
3918
7078
2F54
ENDCHAR
STARTCHAR uni1EAD.a
ENCODING -1
SWIDTH 600 0
DWIDTH 8 0
BBX 8 14 0 -4
BITMAP
00B4
0248
0000
06F8
091C
000D
06FC
3918
7078
2F54
0000
0000
0700
0700
ENDCHAR
STARTCHAR uni1EAF.a
ENCODING -1
SWIDTH 600 0
DWIDTH 8 0
BBX 8 12 0 0
BITMAP
0018
0020
0249
01F8
0000
06F8
091C
000D
06FC
3918
7078
2F54
ENDCHAR
STARTCHAR uni1EB1.a
ENCODING -1
SWIDTH 600 0
DWIDTH 8 0
BBX 8 12 0 0
BITMAP
0090
0020
0249
01F8
0000
06F8
091C
000D
06FC
3918
7078
2F54
ENDCHAR
STARTCHAR uni1EB3.a
ENCODING -1
SWIDTH 600 0
DWIDTH 8 0
BBX 8 13 0 0
BITMAP
0034
0028
0020
0249
01F8
0000
06F8
091C
000D
06FC
3918
7078
2F54
ENDCHAR
STARTCHAR uni1EB5.a
ENCODING -1
SWIDTH 600 0
DWIDTH 8 0
BBX 8 12 0 0
BITMAP
00A5
016C
0248
01F4
0000
06F8
091C
000D
06FC
3918
7078
2F54
ENDCHAR
STARTCHAR uni1EB7.a
ENCODING -1
SWIDTH 600 0
DWIDTH 8 0
BBX 8 14 0 -4
BITMAP
0249
01F8
0000
06F8
091C
000D
06FC
3918
7078
2F54
0000
0000
0700
0700
ENDCHAR
STARTCHAR aogonek.a
ENCODING -1
SWIDTH 600 0
DWIDTH 8 0
BBX 8 10 0 -3
BITMAP
06F8
091C
000D
06FC
3918
7078
2F54
0050
0080
00F0
ENDCHAR
STARTCHAR g.a
ENCODING -1
SWIDTH 600 0
DWIDTH 8 0
BBX 8 10 0 -3
BITMAP
06FF
1D18
1818
1824
1BD0
3400
2FE0
9028
D064
6F90
ENDCHAR
STARTCHAR uni01F5.a
ENCODING -1
SWIDTH 600 0
DWIDTH 8 0
BBX 8 14 0 -3
BITMAP
0008
0034
0090
0000
06FF
1D18
1818
1824
1BD0
3400
2FE0
9028
D064
6F90
ENDCHAR
STARTCHAR gcircumflex.a
ENCODING -1
SWIDTH 600 0
DWIDTH 8 0
BBX 8 13 0 -3
BITMAP
00B4
0248
0000
06FF
1D18
1818
1824
1BD0
3400
2FE0
9028
D064
6F90
ENDCHAR
STARTCHAR gbreve.a
ENCODING -1
SWIDTH 600 0
DWIDTH 8 0
BBX 8 13 0 -3
BITMAP
0249
01F8
0000
06FF
1D18
1818
1824
1BD0
3400
2FE0
9028
D064
6F90
ENDCHAR
STARTCHAR gdotaccent.a
ENCODING -1
SWIDTH 600 0
DWIDTH 8 0
BBX 8 13 0 -3
BITMAP
0070
0060
0000
06FF
1D18
1818
1824
1BD0
3400
2FE0
9028
D064
6F90
ENDCHAR
STARTCHAR uni0123.a
ENCODING -1
SWIDTH 600 0
DWIDTH 8 0
BBX 8 13 0 -3
BITMAP
0024
0090
0050
06FF
1D18
1818
1824
1BD0
3400
2FE0
9028
D064
6F90
ENDCHAR
STARTCHAR gcaron.a
ENCODING -1
SWIDTH 600 0
DWIDTH 8 0
BBX 8 13 0 -3
BITMAP
0149
00A4
0000
06FF
1D18
1818
1824
1BD0
3400
2FE0
9028
D064
6F90
ENDCHAR
STARTCHAR uni1E21.a
ENCODING -1
SWIDTH 600 0
DWIDTH 8 0
BBX 8 12 0 -3
BITMAP
02FC
0000
06FF
1D18
1818
1824
1BD0
3400
2FE0
9028
D064
6F90
ENDCHAR
STARTCHAR uni00670303.a
ENCODING -1
SWIDTH 600 0
DWIDTH 8 0
BBX 8 13 0 -3
BITMAP
0296
022D
0000
06FF
1D18
1818
1824
1BD0
3400
2FE0
9028
D064
6F90
ENDCHAR
STARTCHAR iogonek.d
ENCODING -1
SWIDTH 600 0
DWIDTH 8 0
BBX 6 10 1 -3
BITMAP
7F00
0300
0600
0900
0D00
0D00
07D0
0100
0600
0780
ENDCHAR
STARTCHAR uni0268.d
ENCODING -1
SWIDTH 600 0
DWIDTH 8 0
BBX 6 7 1 0
BITMAP
7F00
0300
0600
BFE0
0900
0D00
07D0
ENDCHAR
STARTCHAR uni029D.d
ENCODING -1
SWIDTH 600 0
DWIDTH 8 0
BBX 6 11 0 -4
BITMAP
0FF0
0030
0060
00A0
0090
00C0
00C0
7E80
D780
BDC0
0090
ENDCHAR
STARTCHAR zero.a
ENCODING -1
SWIDTH 600 0
DWIDTH 8 0
BBX 7 9 1 0
BITMAP
0BD0
3474
6424
9818
C228
C224
C0B0
A1D0
2E40
ENDCHAR
STARTCHAR one.a
ENCODING -1
SWIDTH 600 0
DWIDTH 8 0
BBX 7 9 0 0
BITMAP
00B0
02E0
0590
0090
00C0
01C0
0180
0240
7FF8
ENDCHAR
STARTCHAR zero.onum
ENCODING -1
SWIDTH 600 0
DWIDTH 8 0
BBX 8 8 0 0
BITMAP
06F4
1D1C
2409
3189
7289
300C
3474
1BD0
ENDCHAR
STARTCHAR one.onum
ENCODING -1
SWIDTH 600 0
DWIDTH 8 0
BBX 7 8 0 0
BITMAP
02A0
01A0
0090
00C0
01C0
0180
0240
7FF8
ENDCHAR
STARTCHAR two.onum
ENCODING -1
SWIDTH 600 0
DWIDTH 8 0
BBX 7 8 0 0
BITMAP
07E0
1828
0018
0024
0090
0240
1900
7FF8
ENDCHAR
STARTCHAR three.onum
ENCODING -1
SWIDTH 600 0
DWIDTH 8 0
BBX 7 9 0 -1
BITMAP
06F4
181C
0018
01A4
06D0
0024
0028
A074
1F90
ENDCHAR
STARTCHAR four.onum
ENCODING -1
SWIDTH 600 0
DWIDTH 8 0
BBX 7 9 0 -1
BITMAP
002C
00A8
01A4
0624
1830
6030
FFFC
0060
0090
ENDCHAR
STARTCHAR five.onum
ENCODING -1
SWIDTH 600 0
DWIDTH 8 0
BBX 8 9 0 -1
BITMAP
0BFD
0C00
1800
1FE0
0428
0018
0018
6074
1F90
ENDCHAR
STARTCHAR six.onum
ENCODING -1
SWIDTH 600 0
DWIDTH 8 0
BBX 7 9 1 0
BITMAP
07E0
2914
6000
9BD0
E470
C030
C030
A090
2F40
ENDCHAR
STARTCHAR seven.onum
ENCODING -1
SWIDTH 600 0
DWIDTH 8 0
BBX 7 9 1 -1
BITMAP
7FFC
0024
0090
0240
0600
0900
1C00
2800
3400
ENDCHAR
STARTCHAR eight.onum
ENCODING -1
SWIDTH 600 0
DWIDTH 8 0
BBX 7 9 1 0
BITMAP
0BD0
2824
2424
1870
7BD0
D090
C020
D0A0
6F80
ENDCHAR
STARTCHAR nine.onum
ENCODING -1
SWIDTH 600 0
DWIDTH 8 0
BBX 8 9 0 -1
BITMAP
06E4
1D1C
2409
300D
286D
0B9C
0028
60B0
2F80
ENDCHAR
STARTCHAR zero.b
ENCODING -1
SWIDTH 600 0
DWIDTH 8 0
BBX 8 8 0 0
BITMAP
06F4
1D1C
2609
3149
7089
305C
3474
1BD0
ENDCHAR
STARTCHAR one.b
ENCODING -1
SWIDTH 600 0
DWIDTH 8 0
BBX 7 8 0 0
BITMAP
00A0
07D0
0490
00C0
01C0
0180
0240
7FF8
ENDCHAR
STARTCHAR zero.cap
ENCODING -1
SWIDTH 600 0
DWIDTH 8 0
BBX 7 9 1 0
BITMAP
0BD0
2874
6028
D718
C628
C024
C070
A1D0
2E40
ENDCHAR
STARTCHAR one.cap
ENCODING -1
SWIDTH 600 0
DWIDTH 8 0
BBX 7 18 0 0
BITMAP
0010
02F0
0060
0050
0090
0080
0080
0040
0040
00F8
00F8
01F8
01F8
01F8
01F8
02F8
02F8
7FF8
ENDCHAR
STARTCHAR two.cap
ENCODING -1
SWIDTH 600 0
DWIDTH 8 0
BBX 7 9 0 0
BITMAP
02F4
0D1C
000C
0018
0024
0090
0640
1800
7FFC
ENDCHAR
STARTCHAR three.cap
ENCODING -1
SWIDTH 600 0
DWIDTH 8 0
BBX 8 9 0 0
BITMAP
06F4
091D
000D
0028
03E0
0064
0018
6468
1FD0
ENDCHAR
STARTCHAR four.cap
ENCODING -1
SWIDTH 600 0
DWIDTH 8 0
BBX 8 9 0 0
BITMAP
001D
00AC
0298
0924
2424
BFFD
0030
0060
0060
ENDCHAR
STARTCHAR five.cap
ENCODING -1
SWIDTH 600 0
DWIDTH 8 0
BBX 8 9 0 0
BITMAP
07FE
0900
0C00
1EE4
0428
000C
0018
6074
1F90
ENDCHAR
STARTCHAR six.cap
ENCODING -1
SWIDTH 600 0
DWIDTH 8 0
BBX 7 9 1 0
BITMAP
07E4
2918
6000
9BD0
E470
C030
C030
A090
2F40
ENDCHAR
STARTCHAR seven.cap
ENCODING -1
SWIDTH 600 0
DWIDTH 8 0
BBX 7 9 1 0
BITMAP
7FFC
0024
0090
0180
0300
0900
0C00
1800
2400
ENDCHAR
STARTCHAR eight.cap
ENCODING -1
SWIDTH 600 0
DWIDTH 8 0
BBX 7 9 1 0
BITMAP
0BE0
2824
2424
1970
2FD0
A1D0
C070
D0A0
6F80
ENDCHAR
STARTCHAR nine.cap
ENCODING -1
SWIDTH 600 0
DWIDTH 8 0
BBX 7 9 1 0
BITMAP
1B90
3470
A024
9028
6074
2F74
0060
81D0
BE00
ENDCHAR
STARTCHAR zero.c
ENCODING -1
SWIDTH 600 0
DWIDTH 8 0
BBX 7 9 1 0
BITMAP
0BD0
2474
6428
D818
C228
C224
C0B0
A1D0
2E40
ENDCHAR
STARTCHAR one.c
ENCODING -1
SWIDTH 600 0
DWIDTH 8 0
BBX 7 10 0 0
BITMAP
0010
00B0
07A0
0590
0090
00C0
01C0
0180
0240
7FF8
ENDCHAR
STARTCHAR at.case
ENCODING -1
SWIDTH 600 0
DWIDTH 8 0
BBX 8 9 0 0
BITMAP
01BD
0A47
2802
206F
6296
531A
62E9
3410
0BE0
ENDCHAR
STARTCHAR asterisk.a
ENCODING -1
SWIDTH 600 0
DWIDTH 8 0
BBX 6 5 2 5
BITMAP
0500
9A90
2E40
2E00
6200
ENDCHAR
STARTCHAR hyphen.a
ENCODING -1
SWIDTH 600 0
DWIDTH 8 0
BBX 6 1 1 3
BITMAP
7FD0
ENDCHAR
STARTCHAR uni00AD.a
ENCODING -1
SWIDTH 600 0
DWIDTH 8 0
BBX 6 1 1 3
BITMAP
7FD0
ENDCHAR
STARTCHAR uni2010.a
ENCODING -1
SWIDTH 600 0
DWIDTH 8 0
BBX 6 1 1 3
BITMAP
7FD0
ENDCHAR
STARTCHAR dollar.a
ENCODING -1
SWIDTH 600 0
DWIDTH 8 0
BBX 6 13 1 -2
BITMAP
0020
0050
1BD0
34F0
3190
1A40
0700
0990
8860
B8A0
2F80
2000
5000
ENDCHAR
STARTCHAR period.sups
ENCODING -1
SWIDTH 600 0
DWIDTH 8 0
BBX 1 1 4 6
BITMAP
80
ENDCHAR
STARTCHAR comma.sups
ENCODING -1
SWIDTH 600 0
DWIDTH 8 0
BBX 2 3 3 4
BITMAP
30
20
90
ENDCHAR
STARTCHAR period.subs
ENCODING -1
SWIDTH 600 0
DWIDTH 8 0
BBX 2 1 2 -2
BITMAP
60
ENDCHAR
STARTCHAR comma.subs
ENCODING -1
SWIDTH 600 0
DWIDTH 8 0
BBX 2 3 2 -4
BITMAP
20
60
90
ENDCHAR
STARTCHAR zero.dnom
ENCODING -1
SWIDTH 600 0
DWIDTH 8 0
BBX 5 5 1 0
BITMAP
1B40
2580
2080
6240
2E00
ENDCHAR
STARTCHAR one.dnom
ENCODING -1
SWIDTH 600 0
DWIDTH 8 0
BBX 2 4 3 0
BITMAP
A0
60
50
80
ENDCHAR
STARTCHAR two.dnom
ENCODING -1
SWIDTH 600 0
DWIDTH 8 0
BBX 5 5 1 0
BITMAP
1F00
1240
0200
1800
7F40
ENDCHAR
STARTCHAR three.dnom
ENCODING -1
SWIDTH 600 0
DWIDTH 8 0
BBX 4 5 2 0
BITMAP
2D
09
28
49
B8
ENDCHAR
STARTCHAR four.dnom
ENCODING -1
SWIDTH 600 0
DWIDTH 8 0
BBX 5 4 1 0
BITMAP
0500
1600
7F80
0200
ENDCHAR
STARTCHAR five.dnom
ENCODING -1
SWIDTH 600 0
DWIDTH 8 0
BBX 4 4 2 0
BITMAP
7E
7C
89
B8
ENDCHAR
STARTCHAR six.dnom
ENCODING -1
SWIDTH 600 0
DWIDTH 8 0
BBX 4 5 2 0
BITMAP
2D
90
ED
C9
78
ENDCHAR
STARTCHAR seven.dnom
ENCODING -1
SWIDTH 600 0
DWIDTH 8 0
BBX 4 4 2 0
BITMAP
7F
08
24
20
ENDCHAR
STARTCHAR eight.dnom
ENCODING -1
SWIDTH 600 0
DWIDTH 8 0
BBX 4 5 2 0
BITMAP
7D
66
7C
C9
B8
ENDCHAR
STARTCHAR nine.dnom
ENCODING -1
SWIDTH 600 0
DWIDTH 8 0
BBX 4 5 2 0
BITMAP
7C
85
85
BD
B4
ENDCHAR
STARTCHAR parenleft.dnom
ENCODING -1
SWIDTH 600 0
DWIDTH 8 0
BBX 3 7 3 -1
BITMAP
14
60
80
80
80
C0
50
ENDCHAR
STARTCHAR parenright.dnom
ENCODING -1
SWIDTH 600 0
DWIDTH 8 0
BBX 3 7 2 -1
BITMAP
20
18
08
08
14
20
90
ENDCHAR
STARTCHAR period.dnom
ENCODING -1
SWIDTH 600 0
DWIDTH 8 0
BBX 1 1 3 0
BITMAP
80
ENDCHAR
STARTCHAR comma.dnom
ENCODING -1
SWIDTH 600 0
DWIDTH 8 0
BBX 2 3 2 -2
BITMAP
30
20
90
ENDCHAR
STARTCHAR zero.numr
ENCODING -1
SWIDTH 600 0
DWIDTH 8 0
BBX 5 5 2 4
BITMAP
1F40
2180
5180
6240
2D00
ENDCHAR
STARTCHAR one.numr
ENCODING -1
SWIDTH 600 0
DWIDTH 8 0
BBX 3 4 3 4
BITMAP
68
14
24
20
ENDCHAR
STARTCHAR two.numr
ENCODING -1
SWIDTH 600 0
DWIDTH 8 0
BBX 4 5 2 4
BITMAP
1E
12
06
18
7F
ENDCHAR
STARTCHAR three.numr
ENCODING -1
SWIDTH 600 0
DWIDTH 8 0
BBX 4 5 3 4
BITMAP
3C
49
38
48
B8
ENDCHAR
STARTCHAR four.numr
ENCODING -1
SWIDTH 600 0
DWIDTH 8 0
BBX 5 4 2 4
BITMAP
0500
2600
7F40
0600
ENDCHAR
STARTCHAR five.numr
ENCODING -1
SWIDTH 600 0
DWIDTH 8 0
BBX 4 4 3 4
BITMAP
7D
BC
48
B8
ENDCHAR
STARTCHAR six.numr
ENCODING -1
SWIDTH 600 0
DWIDTH 8 0
BBX 4 5 3 4
BITMAP
2D
90
FC
89
B8
ENDCHAR
STARTCHAR seven.numr
ENCODING -1
SWIDTH 600 0
DWIDTH 8 0
BBX 4 4 3 4
BITMAP
BE
08
20
60
ENDCHAR
STARTCHAR eight.numr
ENCODING -1
SWIDTH 600 0
DWIDTH 8 0
BBX 4 5 3 4
BITMAP
7D
99
78
88
F8
ENDCHAR
STARTCHAR nine.numr
ENCODING -1
SWIDTH 600 0
DWIDTH 8 0
BBX 4 5 3 4
BITMAP
78
89
C9
B8
F4
ENDCHAR
STARTCHAR parenleft.numr
ENCODING -1
SWIDTH 600 0
DWIDTH 8 0
BBX 4 7 3 3
BITMAP
09
18
20
60
60
20
20
ENDCHAR
STARTCHAR parenright.numr
ENCODING -1
SWIDTH 600 0
DWIDTH 8 0
BBX 3 7 3 3
BITMAP
20
14
18
18
24
60
80
ENDCHAR
STARTCHAR period.numr
ENCODING -1
SWIDTH 600 0
DWIDTH 8 0
BBX 2 1 3 4
BITMAP
60
ENDCHAR
STARTCHAR comma.numr
ENCODING -1
SWIDTH 600 0
DWIDTH 8 0
BBX 2 3 3 2
BITMAP
30
60
90
ENDCHAR
STARTCHAR ordfeminine.a
ENCODING -1
SWIDTH 600 0
DWIDTH 8 0
BBX 5 5 2 5
BITMAP
1B80
1080
1580
6280
7E40
ENDCHAR
STARTCHAR q.sups
ENCODING -1
SWIDTH 600 0
DWIDTH 8 0
BBX 5 7 2 3
BITMAP
1F80
34C0
5080
6240
3E40
0200
0100
ENDCHAR
STARTCHAR egrave.sups
ENCODING -1
SWIDTH 600 0
DWIDTH 8 0
BBX 5 8 2 5
BITMAP
0500
0200
0000
1B40
2480
7FC0
6140
2E00
ENDCHAR
STARTCHAR eacute.sups
ENCODING -1
SWIDTH 600 0
DWIDTH 8 0
BBX 5 8 2 5
BITMAP
0040
0240
0000
1B40
2480
7FC0
6140
2E00
ENDCHAR
STARTCHAR a.supa
ENCODING -1
SWIDTH 600 0
DWIDTH 8 0
BBX 5 5 2 5
BITMAP
1B80
1080
1580
6280
7E40
ENDCHAR
STARTCHAR g.supa
ENCODING -1
SWIDTH 600 0
DWIDTH 8 0
BBX 6 7 2 3
BITMAP
1FD0
2180
2F40
6000
3F80
8180
BE00
ENDCHAR
STARTCHAR colon.sups
ENCODING -1
SWIDTH 600 0
DWIDTH 8 0
BBX 2 4 3 6
BITMAP
20
00
00
50
ENDCHAR
STARTCHAR hyphen.sups
ENCODING -1
SWIDTH 600 0
DWIDTH 8 0
BBX 3 1 3 7
BITMAP
7C
ENDCHAR
STARTCHAR endash.sups
ENCODING -1
SWIDTH 600 0
DWIDTH 8 0
BBX 4 1 3 7
BITMAP
FE
ENDCHAR
STARTCHAR emdash.sups
ENCODING -1
SWIDTH 600 0
DWIDTH 8 0
BBX 8 1 1 7
BITMAP
7FFD
ENDCHAR
STARTCHAR slash.frac
ENCODING -1
SWIDTH 600 0
DWIDTH 8 0
BBX 9 8 0 1
BITMAP
000140
000600
001400
000000
000000
180000
600000
800000
ENDCHAR
STARTCHAR uni0300.cap
ENCODING -1
SWIDTH 600 0
DWIDTH 8 0
BBX 2 2 4 10
BITMAP
80
60
ENDCHAR
STARTCHAR uni0301.cap
ENCODING -1
SWIDTH 600 0
DWIDTH 8 0
BBX 3 2 4 10
BITMAP
08
64
ENDCHAR
STARTCHAR uni0302.cap
ENCODING -1
SWIDTH 600 0
DWIDTH 8 0
BBX 5 2 3 10
BITMAP
2E00
5240
ENDCHAR
STARTCHAR uni0303.cap
ENCODING -1
SWIDTH 600 0
DWIDTH 8 0
BBX 5 2 3 10
BITMAP
7880
8B40
ENDCHAR
STARTCHAR uni0304.cap
ENCODING -1
SWIDTH 600 0
DWIDTH 8 0
BBX 5 1 3 10
BITMAP
7F40
ENDCHAR
STARTCHAR uni0305.cap
ENCODING -1
SWIDTH 600 0
DWIDTH 8 0
BBX 5 1 3 10
BITMAP
7F40
ENDCHAR
STARTCHAR uni0306.c
ENCODING -1
SWIDTH 600 0
DWIDTH 8 0
BBX 4 2 3 8
BITMAP
92
7D
ENDCHAR
STARTCHAR uni0306.cap
ENCODING -1
SWIDTH 600 0
DWIDTH 8 0
BBX 5 2 3 10
BITMAP
5140
2E00
ENDCHAR
STARTCHAR uni0306.ccap
ENCODING -1
SWIDTH 600 0
DWIDTH 8 0
BBX 5 2 3 10
BITMAP
6240
2E00
ENDCHAR
STARTCHAR uni0307.cap
ENCODING -1
SWIDTH 600 0
DWIDTH 8 0
BBX 1 1 5 10
BITMAP
C0
ENDCHAR
STARTCHAR uni0308.cap
ENCODING -1
SWIDTH 600 0
DWIDTH 8 0
BBX 5 1 3 10
BITMAP
6240
ENDCHAR
STARTCHAR uni0309.cap
ENCODING -1
SWIDTH 600 0
DWIDTH 8 0
BBX 3 3 4 10
BITMAP
70
24
60
ENDCHAR
STARTCHAR uni0310.cap
ENCODING -1
SWIDTH 600 0
DWIDTH 8 0
BBX 5 4 3 10
BITMAP
0900
0D00
5180
2E00
ENDCHAR
STARTCHAR uni030A.cap
ENCODING -1
SWIDTH 600 0
DWIDTH 8 0
BBX 3 3 4 10
BITMAP
78
88
74
ENDCHAR
STARTCHAR uni030B.cap
ENCODING -1
SWIDTH 600 0
DWIDTH 8 0
BBX 5 2 4 10
BITMAP
2240
9500
ENDCHAR
STARTCHAR uni030C.cap
ENCODING -1
SWIDTH 600 0
DWIDTH 8 0
BBX 5 2 3 10
BITMAP
6140
2E00
ENDCHAR
STARTCHAR uni030C.a
ENCODING -1
SWIDTH 600 0
DWIDTH 8 0
BBX 2 4 4 8
BITMAP
30
60
50
90
ENDCHAR
STARTCHAR uni030F.cap
ENCODING -1
SWIDTH 600 0
DWIDTH 8 0
BBX 4 2 3 10
BITMAP
88
95
ENDCHAR
STARTCHAR uni0311.cap
ENCODING -1
SWIDTH 600 0
DWIDTH 8 0
BBX 5 2 3 10
BITMAP
2E00
9240
ENDCHAR
STARTCHAR uni0326.a
ENCODING -1
SWIDTH 600 0
DWIDTH 8 0
BBX 3 3 4 7
BITMAP
24
90
50
ENDCHAR
STARTCHAR uni0327.cap
ENCODING -1
SWIDTH 600 0
DWIDTH 8 0
BBX 3 4 1 -4
BITMAP
14
28
1C
A4
ENDCHAR
STARTCHAR uni0328.cap
ENCODING -1
SWIDTH 600 0
DWIDTH 8 0
BBX 2 3 2 -3
BITMAP
50
80
F0
ENDCHAR
STARTCHAR uni0342.cap
ENCODING -1
SWIDTH 600 0
DWIDTH 8 0
BBX 5 2 3 10
BITMAP
7880
8B40
ENDCHAR
STARTCHAR uni03080301
ENCODING -1
SWIDTH 600 0
DWIDTH 8 0
BBX 4 4 3 8
BITMAP
02
08
00
92
ENDCHAR
STARTCHAR uni03080301.cap
ENCODING -1
SWIDTH 600 0
DWIDTH 8 0
BBX 4 4 3 10
BITMAP
02
09
00
62
ENDCHAR
STARTCHAR uni03080300
ENCODING -1
SWIDTH 600 0
DWIDTH 8 0
BBX 4 4 3 8
BITMAP
14
08
00
92
ENDCHAR
STARTCHAR uni03080300.cap
ENCODING -1
SWIDTH 600 0
DWIDTH 8 0
BBX 4 4 3 10
BITMAP
14
08
00
62
ENDCHAR
STARTCHAR uni03080303
ENCODING -1
SWIDTH 600 0
DWIDTH 8 0
BBX 5 4 3 8
BITMAP
7880
8B00
0000
9200
ENDCHAR
STARTCHAR uni03080304
ENCODING -1
SWIDTH 600 0
DWIDTH 8 0
BBX 5 3 3 8
BITMAP
7F40
0000
9200
ENDCHAR
STARTCHAR uni03080304.cap
ENCODING -1
SWIDTH 600 0
DWIDTH 8 0
BBX 5 3 3 10
BITMAP
3F80
0000
6200
ENDCHAR
STARTCHAR uni0308030C
ENCODING -1
SWIDTH 600 0
DWIDTH 8 0
BBX 5 4 3 8
BITMAP
2240
1D00
0000
9200
ENDCHAR
STARTCHAR uni0308030C.cap
ENCODING -1
SWIDTH 600 0
DWIDTH 8 0
BBX 5 4 3 10
BITMAP
2140
1E00
0000
6200
ENDCHAR
STARTCHAR uni03020301
ENCODING -1
SWIDTH 600 0
DWIDTH 8 0
BBX 6 3 3 8
BITMAP
0090
2D40
9600
ENDCHAR
STARTCHAR uni03020301.cap
ENCODING -1
SWIDTH 600 0
DWIDTH 8 0
BBX 6 3 3 10
BITMAP
0050
1E80
6200
ENDCHAR
STARTCHAR uni03020300
ENCODING -1
SWIDTH 600 0
DWIDTH 8 0
BBX 5 3 2 8
BITMAP
8000
6B00
2580
ENDCHAR
STARTCHAR uni03020300.cap
ENCODING -1
SWIDTH 600 0
DWIDTH 8 0
BBX 4 3 3 10
BITMAP
80
AD
62
ENDCHAR
STARTCHAR uni03020309
ENCODING -1
SWIDTH 600 0
DWIDTH 8 0
BBX 5 4 3 8
BITMAP
0180
0080
2D80
9600
ENDCHAR
STARTCHAR uni03020309.cap
ENCODING -1
SWIDTH 600 0
DWIDTH 8 0
BBX 6 3 3 10
BITMAP
00D0
1D90
62C0
ENDCHAR
STARTCHAR uni03020303
ENCODING -1
SWIDTH 600 0
DWIDTH 8 0
BBX 5 4 3 8
BITMAP
2540
5B00
2D00
9200
ENDCHAR
STARTCHAR uni03020303.cap
ENCODING -1
SWIDTH 600 0
DWIDTH 8 0
BBX 5 4 3 10
BITMAP
2880
5740
1D00
6200
ENDCHAR
STARTCHAR uni03060301
ENCODING -1
SWIDTH 600 0
DWIDTH 8 0
BBX 5 4 3 8
BITMAP
0600
0800
8240
7D00
ENDCHAR
STARTCHAR uni03060301.cap
ENCODING -1
SWIDTH 600 0
DWIDTH 8 0
BBX 5 4 3 10
BITMAP
0200
0900
5140
2E00
ENDCHAR
STARTCHAR uni03060300
ENCODING -1
SWIDTH 600 0
DWIDTH 8 0
BBX 5 4 3 8
BITMAP
2400
0800
8240
7D00
ENDCHAR
STARTCHAR uni03060300.cap
ENCODING -1
SWIDTH 600 0
DWIDTH 8 0
BBX 5 4 3 10
BITMAP
1800
0800
5140
2E00
ENDCHAR
STARTCHAR uni03060309
ENCODING -1
SWIDTH 600 0
DWIDTH 8 0
BBX 5 5 3 8
BITMAP
1D00
0900
0800
8240
7D00
ENDCHAR
STARTCHAR uni03060309.cap
ENCODING -1
SWIDTH 600 0
DWIDTH 8 0
BBX 5 5 3 10
BITMAP
0900
0600
0900
5140
2E00
ENDCHAR
STARTCHAR uni03060303
ENCODING -1
SWIDTH 600 0
DWIDTH 8 0
BBX 5 4 3 8
BITMAP
2540
9B00
9200
7D00
ENDCHAR
STARTCHAR uni03060303.cap
ENCODING -1
SWIDTH 600 0
DWIDTH 8 0
BBX 5 4 3 10
BITMAP
2880
5740
5240
2E00
ENDCHAR
STARTCHAR uni03020306
ENCODING -1
SWIDTH 600 0
DWIDTH 8 0
BBX 4 4 3 8
BITMAP
11
29
14
55
ENDCHAR
STARTCHAR uni03040301
ENCODING -1
SWIDTH 600 0
DWIDTH 8 0
BBX 4 4 3 8
BITMAP
06
08
00
BF
ENDCHAR
STARTCHAR uni03040301.cap
ENCODING -1
SWIDTH 600 0
DWIDTH 8 0
BBX 5 4 3 10
BITMAP
0240
0500
0000
7F40
ENDCHAR
STARTCHAR space.frac
ENCODING -1
SWIDTH 600 0
DWIDTH 8 0
BBX 1 1 0 0
BITMAP
00
ENDCHAR
STARTCHAR nbspace.frac
ENCODING -1
SWIDTH 600 0
DWIDTH 8 0
BBX 1 1 0 0
BITMAP
00
ENDCHAR
STARTCHAR u1F3B5_uniFE0F
ENCODING -1
SWIDTH 600 0
DWIDTH 8 0
BBX 7 11 1 0
BITMAP
0100
0380
02E0
0224
0214
0214
0200
0200
6F00
BE00
B800
ENDCHAR
STARTCHAR u1F3B6_uniFE0F
ENCODING -1
SWIDTH 600 0
DWIDTH 8 0
BBX 9 11 0 0
BITMAP
005A40
03FF40
03FF40
039640
020140
020140
020140
020140
7E2F00
FE7E00
B87D00
ENDCHAR
STARTCHAR uni2611_uniFE0F
ENCODING -1
SWIDTH 600 0
DWIDTH 8 0
BBX 11 11 -1 0
BITMAP
000004
000034
3FFFE0
5001E0
500360
510960
521860
51A460
50A060
500060
7FFFD0
ENDCHAR
STARTCHAR uni2713_uniFE0F
ENCODING -1
SWIDTH 600 0
DWIDTH 8 0
BBX 9 10 0 0
BITMAP
000240
000600
001800
002400
005000
408000
914000
220000
2A0000
1D0000
ENDCHAR
STARTCHAR uni2665_uniFE0F
ENCODING -1
SWIDTH 600 0
DWIDTH 8 0
BBX 9 10 0 0
BITMAP
2D2D00
BFBF00
FFFF40
BFFF40
BFFF00
7FFE00
2FFC00
0FF400
07E000
018000
ENDCHAR
STARTCHAR uni2663_uniFE0F
ENCODING -1
SWIDTH 600 0
DWIDTH 8 0
BBX 9 10 0 0
BITMAP
07E000
0BF400
0BF000
17E400
BFFF00
FFFF40
BFFF00
16D400
07E000
2FFC00
ENDCHAR
STARTCHAR uni2666_uniFE0F
ENCODING -1
SWIDTH 600 0
DWIDTH 8 0
BBX 8 10 0 0
BITMAP
0180
03D0
0FF4
2FFC
BFFF
BFFF
2FFC
0FF4
03D0
0180
ENDCHAR
STARTCHAR uni2660_uniFE0F
ENCODING -1
SWIDTH 600 0
DWIDTH 8 0
BBX 9 10 0 0
BITMAP
018000
07E000
1FF800
3FFE00
BFFF00
FFFF40
BEFF00
16D400
07E000
2FFC00
ENDCHAR
STARTCHAR uni263A_uniFE0F
ENCODING -1
SWIDTH 600 0
DWIDTH 8 0
BBX 8 9 0 0
BITMAP
05A0
1004
1001
8FB2
8516
0410
5042
1814
0190
ENDCHAR
STARTCHAR uni263B_uniFE0F
ENCODING -1
SWIDTH 600 0
DWIDTH 8 0
BBX 8 7 0 1
BITMAP
0BE4
39DD
799E
B9DF
77EA
381D
0BE4
ENDCHAR
STARTCHAR uni2764_uniFE0F
ENCODING -1
SWIDTH 600 0
DWIDTH 8 0
BBX 11 9 -1 0
BITMAP
2F4BD0
BFEFF0
FFFFF4
FFFFF4
BFFFF0
3FFFD0
0BFF40
01F800
006000
ENDCHAR
STARTCHAR uni2615_uniFE0F
ENCODING -1
SWIDTH 600 0
DWIDTH 8 0
BBX 10 9 -1 0
BITMAP
0BF800
340600
5BF500
6C6910
5BF960
500170
200390
181900
07E400
ENDCHAR
STARTCHAR u1F4A9_uniFE0F
ENCODING -1
SWIDTH 600 0
DWIDTH 8 0
BBX 9 10 0 0
BITMAP
004000
0BF000
0FF400
2FFC00
758E00
75AA00
7FFE00
F40F40
F81F40
6FFE00
ENDCHAR
STARTCHAR u1F916_uniFE0F
ENCODING -1
SWIDTH 600 0
DWIDTH 8 0
BBX 10 9 -1 0
BITMAP
02F900
090640
26F980
76AAA0
76FE60
7000A0
146080
090640
02F900
ENDCHAR
STARTCHAR u1F512_uniFE0F
ENCODING -1
SWIDTH 600 0
DWIDTH 8 0
BBX 8 13 0 -1
BITMAP
07E0
0D24
0814
0818
0818
7FFE
7D3E
7C2E
7E3E
7E7E
7E7E
7E7E
7FFE
ENDCHAR
ENDFONT
